<svg width="186" height="173" viewBox="0 0 186 173" fill="none" xmlns="http://www.w3.org/2000/svg">
<g clip-path="url(#clip0_87_1316)">
<path d="M92.3599 21.9C105.075 21.7981 117.534 25.4688 128.163 32.4479C138.791 39.4269 147.112 49.4009 152.072 61.1087C157.032 72.8164 158.409 85.7321 156.029 98.2225C153.649 110.713 147.618 122.217 138.7 131.28C132.027 138.071 123.929 143.296 114.992 146.578C106.055 149.86 96.501 151.118 87.0189 150.262C77.5367 149.405 68.3629 146.454 60.1591 141.622C51.9554 136.791 44.9262 130.199 39.5785 122.322C34.2308 114.444 30.6979 105.479 29.2346 96.0711C27.7714 86.6634 28.4142 77.0482 31.1168 67.919C33.8194 58.7898 38.5144 50.3742 44.8631 43.2792C51.2118 36.1841 59.056 30.5865 67.8299 26.89C75.5968 23.6229 83.934 21.9269 92.3599 21.9ZM92.3599 21.9C76.5084 22.0137 61.2653 28.0172 49.5935 38.7435C37.9216 49.4698 30.6549 64.1527 29.2057 79.9383C27.7564 95.7239 32.2282 111.484 41.7519 124.157C51.2756 136.829 65.1707 145.507 80.7366 148.505C96.3025 151.504 112.427 148.607 125.976 140.379C139.525 132.15 149.531 119.178 154.049 103.984C158.567 88.7891 157.274 72.4575 150.421 58.1633C143.568 43.869 131.645 32.6333 116.97 26.64C109.159 23.4535 100.796 21.8427 92.3599 21.9Z" fill="#54575C"/>
<path d="M174.53 106.49C175.944 104.852 177.545 103.385 179.3 102.12C180.798 100.969 182.018 99.4957 182.87 97.81C183.751 96.2128 184.424 94.5088 184.87 92.74C185.336 90.1284 185.583 87.4826 185.61 84.83C185.061 87.2554 184.222 89.6057 183.11 91.83C182.486 93.0312 181.724 94.1554 180.84 95.18C179.828 96.4208 178.747 97.6027 177.6 98.72C177.198 99.1176 176.839 99.5567 176.53 100.03C176.171 100.509 175.837 101.006 175.53 101.52C175.496 101.578 175.466 101.638 175.44 101.7C175.913 99.64 176.3 97.5566 176.6 95.45C177.26 94.79 177.78 95.5 178.47 95.27C179.62 94.86 179.77 92.67 178.47 92.55C178.113 92.5513 177.765 92.6584 177.47 92.8578C177.174 93.0572 176.945 93.3399 176.81 93.67C176.9 92.84 176.99 92.01 177.06 91.18C177.151 90.9708 177.255 90.7671 177.37 90.57C178.429 88.6726 179.704 86.9042 181.17 85.3C182.363 83.8259 183.244 82.1248 183.76 80.3C184.038 79.415 184.258 78.5132 184.42 77.6C184.553 76.7164 184.613 75.8234 184.6 74.93C184.612 73.3488 184.519 71.7686 184.32 70.2C184.15 69.1361 183.926 68.0815 183.65 67.04C183.768 69.5261 183.45 72.0137 182.71 74.39C182.35 75.6811 181.865 76.9338 181.26 78.13C180.512 79.5574 179.68 80.9398 178.77 82.27C178.167 83.2583 177.702 84.325 177.39 85.44C177.364 85.515 177.344 85.5919 177.33 85.67C177.33 85.33 177.33 84.99 177.33 84.67C177.33 82.88 177.25 81.1 177.13 79.34C177.65 78.47 178.32 79.1 178.97 78.71C180.07 78.08 179.59 75.92 178.33 76.07C177.6 76.15 177.19 76.73 176.99 77.55C176.92 76.77 176.83 75.99 176.73 75.21C176.79 75.01 176.84 74.82 176.91 74.59C177.631 72.551 178.503 70.5688 179.52 68.66C180.375 66.9685 180.914 65.1351 181.11 63.25C181.217 61.4358 181.1 59.6153 180.76 57.83C180.626 57.0013 180.449 56.1802 180.23 55.37C179.98 54.62 179.72 53.91 179.46 53.27C178.96 51.99 178.46 50.96 178.2 50.27C178.47 51.56 178.67 52.78 178.8 53.98C178.95 55.202 178.95 56.4379 178.8 57.66C178.661 59.0074 178.43 60.3438 178.11 61.66C177.94 62.36 177.75 63.08 177.52 63.83C177.29 64.58 176.92 65.39 176.57 66.21C176.131 67.2919 175.887 68.443 175.85 69.61V69.88C175.44 67.8 174.94 65.76 174.36 63.74C174.64 62.74 175.47 63.2 176.03 62.68C176.89 61.85 176.03 59.82 174.84 60.22C174.522 60.3624 174.256 60.599 174.077 60.8977C173.898 61.1963 173.816 61.5427 173.84 61.89C173.6 61.12 173.33 60.36 173.07 59.6C173.07 59.37 173.12 59.12 173.15 58.83C173.361 56.6853 173.776 54.5657 174.39 52.5C174.693 51.5962 174.888 50.6596 174.97 49.71C174.995 48.7808 174.945 47.8511 174.82 46.93C174.702 46.0088 174.521 45.0968 174.28 44.2C174.082 43.3264 173.787 42.4778 173.4 41.67C172.326 39.237 170.945 36.9517 169.29 34.87C169.57 35.45 169.84 36.03 170.08 36.59C170.32 37.15 170.49 37.77 170.66 38.35C171.002 39.5306 171.263 40.7335 171.44 41.95C171.53 42.57 171.61 43.21 171.66 43.87C171.71 44.53 171.66 45.25 171.66 45.98C171.569 47.5783 171.392 49.1706 171.13 50.75C170.98 51.9084 170.98 53.0815 171.13 54.24C171.13 54.34 171.13 54.44 171.18 54.55C170.34 52.5966 169.42 50.6866 168.42 48.82C168.51 47.76 169.42 48.06 169.83 47.43C170.53 46.43 169.33 44.58 168.2 45.26C167.902 45.4877 167.681 45.8021 167.568 46.1601C167.455 46.5182 167.456 46.9023 167.57 47.26C167.07 46.39 166.57 45.53 166.03 44.67C166.03 44.44 165.95 44.21 165.92 43.94C165.71 41.7864 165.67 39.6198 165.8 37.46C165.867 35.5632 165.592 33.6698 164.99 31.87C164.309 30.1916 163.447 28.5922 162.42 27.1C161.529 25.7906 160.492 24.5863 159.33 23.51C158.33 22.51 157.5 21.81 156.96 21.32C158.465 23.2651 159.68 25.4173 160.57 27.71C160.995 28.988 161.329 30.2946 161.57 31.62C161.71 32.33 161.83 33.07 161.94 33.85C162.05 34.63 162.05 35.51 162.08 36.39C162.134 37.5566 162.395 38.7044 162.85 39.78C162.85 39.92 162.96 40.04 163.02 40.17C161.77 38.42 160.45 36.74 159.02 35.11C158.83 34.04 159.79 34.11 160.08 33.43C160.52 32.31 158.91 30.81 157.99 31.68C157.739 31.9426 157.58 32.2794 157.537 32.64C157.494 33.0006 157.568 33.3654 157.75 33.68L156.27 32.09C156.19 31.87 156.11 31.63 156.02 31.35C155.304 29.3147 154.805 27.2098 154.53 25.07C154.26 23.1967 153.577 21.4068 152.53 19.83C151.6 18.2598 150.433 16.843 149.07 15.63C147.881 14.5869 146.629 13.6184 145.32 12.73C144.416 12.141 143.478 11.6067 142.51 11.13C144.466 12.6972 146.143 14.5838 147.47 16.71C149.006 19.234 150.123 21.9895 150.78 24.87C150.933 25.4179 151.137 25.9502 151.39 26.46C151.633 27.0038 151.91 27.5315 152.22 28.04C152.22 28.12 152.32 28.18 152.37 28.26C150.81 26.83 149.18 25.47 147.5 24.18C147.18 23.18 148.09 23.12 148.23 22.38C148.257 22.0742 148.193 21.7672 148.048 21.4971C147.902 21.2269 147.68 21.0054 147.41 20.86C147.168 20.6917 146.871 20.6218 146.579 20.6645C146.288 20.7073 146.023 20.8594 145.84 21.09C145.42 21.69 145.6 22.35 146.06 23.09C145.37 22.58 144.66 22.09 143.95 21.61C143.83 21.44 143.72 21.27 143.59 21.06C142.532 19.1742 141.616 17.2121 140.85 15.19C140.142 13.4339 139.126 11.8185 137.85 10.42C136.552 9.15139 135.108 8.04038 133.55 7.10997C132.84 6.65915 132.102 6.25497 131.34 5.89997C130.61 5.58997 129.91 5.31997 129.26 5.08997C127.97 4.61997 126.89 4.28997 126.19 4.08997C127.285 4.69996 128.346 5.36756 129.37 6.08997C130.388 6.77808 131.321 7.58363 132.15 8.48997C133.067 9.48161 133.915 10.534 134.69 11.64C135.11 12.23 135.52 12.86 135.94 13.53C136.36 14.2 136.71 14.99 137.1 15.8C137.663 16.9123 138.43 17.9094 139.36 18.74C137.54 17.68 135.673 16.68 133.76 15.74C133.22 14.89 134.11 14.58 134.09 13.84C134.09 12.64 131.95 11.93 131.46 13.1C131.359 13.4193 131.354 13.7615 131.446 14.0835C131.539 14.4056 131.725 14.6931 131.98 14.91C130.72 14.35 129.43 13.84 128.13 13.34L127.94 13.15C126.518 11.5221 125.225 9.78696 124.07 7.95997C123.025 6.37686 121.7 4.99763 120.16 3.88997C118.631 2.91304 116.993 2.11767 115.28 1.51997C114.499 1.21531 113.697 0.967992 112.88 0.779968C112.1 0.619968 111.36 0.499971 110.68 0.399971C109.31 0.199971 108.19 0.0899716 107.46 0.00997162C108.655 0.393185 109.83 0.837089 110.98 1.33997C112.116 1.80907 113.194 2.40984 114.19 3.12997C115.286 3.91961 116.329 4.78153 117.31 5.70997C117.83 6.19997 118.37 6.70996 118.9 7.29996C119.43 7.88997 119.96 8.57996 120.5 9.29996C121.255 10.2678 122.189 11.0824 123.25 11.7C121.72 11.23 120.16 10.82 118.59 10.45C117.738 10.0548 116.919 9.59336 116.14 9.06997C114.308 7.95406 112.548 6.725 110.87 5.38997C109.303 4.48529 107.506 4.05779 105.7 4.15997C104.69 4.22588 103.687 4.37302 102.7 4.59997C103.319 4.66939 103.929 4.80346 104.52 4.99997C105.209 5.20332 105.878 5.46771 106.52 5.78997L106.69 5.89997C106.487 5.88976 106.283 5.88976 106.08 5.89997C101.77 5.89997 98.54 8.52997 98.54 10.9C98.54 13.1 101.45 15.52 105.42 15.8C104.564 16.1496 103.685 16.4403 102.79 16.67C104.462 16.7224 106.136 16.622 107.79 16.37C108.973 16.26 110.139 16.0048 111.26 15.61L112.16 15.26C112.46 15.15 112.75 15.03 113.05 14.9C113.673 14.6154 114.271 14.281 114.84 13.9C115.618 13.3715 116.441 12.9131 117.3 12.53C117.843 12.3053 118.405 12.1312 118.98 12.01C120.27 12.32 121.55 12.67 122.81 13.01H122.69C122.33 12.9846 121.971 13.0746 121.665 13.267C121.359 13.4594 121.123 13.7442 120.99 14.08C120.62 15.29 122.44 16.08 123.29 15.18C123.84 14.64 123.38 13.72 124.55 13.56C127.115 14.3993 129.632 15.3774 132.09 16.49C130.818 16.2191 129.502 16.2191 128.23 16.49C125.675 17.3574 123.066 18.0589 120.42 18.59C118.425 19.0852 116.375 19.3271 114.32 19.31C116.343 19.8988 118.414 20.3037 120.51 20.52C121.981 20.7606 123.475 20.8177 124.96 20.69C125.36 20.69 125.77 20.6 126.17 20.54C126.57 20.48 126.97 20.45 127.38 20.38C128.225 20.2432 129.055 20.029 129.86 19.74C130.974 19.3414 132.122 19.0436 133.29 18.85C134.168 18.7368 135.055 18.7033 135.94 18.75C136.27 18.75 136.56 18.75 136.83 18.81C137.42 19.13 138 19.47 138.58 19.81H138.5C138.153 19.7106 137.783 19.7249 137.445 19.8509C137.107 19.9768 136.817 20.2078 136.62 20.51C136.01 21.63 137.62 22.72 138.62 22.05C139.25 21.65 139.01 20.7 140.08 20.72C141.98 21.88 143.82 23.12 145.6 24.44C145.49 24.39 145.38 24.32 145.26 24.27C144.19 23.8728 143.05 23.6992 141.91 23.76C140.2 23.9 138.75 23.97 137.44 24.03C136.13 24.09 134.92 24.2 133.82 24.18C132.793 24.1651 131.768 24.0916 130.75 23.96C129.744 23.8971 128.742 23.7769 127.75 23.6C128.28 23.84 129.08 24.22 130.08 24.6C131.08 24.98 132.22 25.6 133.55 26.04C134.239 26.2713 134.94 26.4649 135.65 26.62C136.39 26.77 137.1 27 137.88 27.12C139.537 27.3771 141.223 27.3771 142.88 27.12C144.928 26.9079 146.998 27.0227 149.01 27.46C149.28 27.52 149.5 27.59 149.72 27.65C150.26 28.11 150.79 28.58 151.32 29.06C151.009 28.8688 150.643 28.7876 150.28 28.8293C149.918 28.871 149.579 29.0332 149.32 29.29C148.5 30.29 149.81 31.74 150.92 31.29C151.64 31.02 151.57 30.04 152.69 30.29C154.24 31.77 155.69 33.29 157.13 34.9C156.102 34.162 154.93 33.6507 153.69 33.4C151 33.1443 148.328 32.7235 145.69 32.14C143.672 31.7432 141.703 31.1262 139.82 30.3C141.444 31.639 143.173 32.8462 144.99 33.91C147.654 35.6404 150.69 36.7132 153.85 37.04C155.028 37.1401 156.195 37.3374 157.34 37.63C158.192 37.8862 159.019 38.221 159.81 38.63L160.5 39C160.91 39.54 161.31 40.07 161.7 40.62C161.424 40.3878 161.08 40.2508 160.72 40.2292C160.36 40.2076 160.002 40.3025 159.7 40.5C158.7 41.27 159.7 42.94 160.93 42.74C161.65 42.63 161.83 41.74 162.74 42.07C164.08 44 165.32 46 166.47 48.07L166.3 47.88C165.511 47.0568 164.547 46.4212 163.48 46.02C161.86 45.44 160.48 44.93 159.3 44.42C158.12 43.91 156.92 43.54 155.94 43.07C155.004 42.6433 154.098 42.1521 153.23 41.6C152.328 41.1194 151.453 40.5886 150.61 40.01C150.99 40.44 151.56 41.13 152.31 41.91C153.109 42.8755 153.964 43.7937 154.87 44.66C155.39 45.13 155.95 45.6 156.55 46.05C157.13 46.5473 157.738 47.0114 158.37 47.44C159.783 48.3635 161.322 49.0775 162.94 49.56C164.898 50.2015 166.739 51.1573 168.39 52.39C168.59 52.53 168.75 52.66 168.91 52.79C169.21 53.44 169.51 54.11 169.79 54.79C169.587 54.4963 169.291 54.2795 168.95 54.1743C168.609 54.0691 168.243 54.0816 167.91 54.21C166.76 54.75 167.34 56.63 168.53 56.7C169.3 56.75 169.62 55.82 170.53 56.48C171.37 58.53 172.11 60.63 172.77 62.76C172.128 61.6771 171.275 60.7349 170.26 59.99C167.928 58.6357 165.684 57.1361 163.54 55.5C161.85 54.3275 160.315 52.9466 158.97 51.39C159.867 53.2948 160.928 55.1183 162.14 56.84C162.933 58.1058 163.88 59.2681 164.96 60.3C166.135 61.4868 167.459 62.5155 168.9 63.36C169.936 63.9404 170.92 64.6096 171.84 65.36C172.492 65.9521 173.097 66.594 173.65 67.28C173.85 67.53 174.01 67.76 174.16 67.97C174.31 68.62 174.45 69.27 174.58 69.97C174.425 69.6431 174.17 69.3744 173.851 69.2034C173.533 69.0324 173.168 68.9681 172.81 69.02C171.58 69.3 171.81 71.25 173 71.56C173.71 71.77 174.27 70.96 174.95 71.74C175.33 73.8666 175.613 76.0166 175.8 78.19C175.8 78.06 175.74 77.92 175.69 77.78C175.263 76.7247 174.639 75.7607 173.85 74.94L170.6 71.71C169.719 70.8868 168.884 70.0155 168.1 69.1C167.433 68.3152 166.805 67.4975 166.22 66.65C165.599 65.8448 165.021 65.0069 164.49 64.14C164.66 64.69 164.9 65.54 165.26 66.57C165.62 67.6 165.91 68.84 166.47 70.12C167.67 72.66 168.99 75.54 171.82 77.89C173.353 79.2622 174.633 80.8938 175.6 82.71C175.75 82.98 175.87 83.22 175.98 83.45C175.98 83.87 175.98 84.28 175.98 84.7C175.98 85.12 175.98 85.24 175.98 85.51C175.71 84.69 175.24 84.14 174.46 84.15C173.25 84.15 172.96 86.15 174 86.68C174.69 87.05 175.41 86.29 175.94 87.37C175.86 89.61 175.67 91.83 175.4 94.02C175.34 92.7245 174.921 91.4713 174.19 90.4C173.19 88.97 172.39 87.74 171.7 86.63L169.89 83.55C168.882 81.7601 168.054 79.8741 167.42 77.92C167.503 80.0268 167.734 82.1253 168.11 84.2C168.339 85.6716 168.707 87.1182 169.21 88.52C169.504 89.2851 169.855 90.0271 170.26 90.74C170.47 91.11 170.7 91.48 170.94 91.84C171.18 92.2 171.39 92.57 171.64 92.93C172.847 94.604 173.769 96.4656 174.37 98.44C174.453 98.6827 174.523 98.9297 174.58 99.18C174.45 99.88 174.29 100.58 174.13 101.28C174.04 100.4 173.7 99.76 172.96 99.61C171.72 99.36 171.05 101.22 171.96 101.98C172.56 102.48 173.42 101.88 173.71 103.08C173.15 105.28 172.483 107.44 171.71 109.56C171.71 109.36 171.77 109.17 171.79 108.97C171.926 107.846 171.782 106.705 171.37 105.65C170.292 103.178 169.364 100.643 168.59 98.06C167.924 96.1196 167.501 94.1043 167.33 92.06C166.916 94.1276 166.708 96.2313 166.71 98.34C166.585 99.8214 166.642 101.312 166.88 102.78C167.016 103.593 167.21 104.395 167.46 105.18C167.68 105.999 167.957 106.8 168.29 107.58C169.131 109.483 169.661 111.509 169.86 113.58C169.86 113.86 169.86 114.09 169.86 114.32C169.57 115 169.26 115.66 168.95 116.32C169.05 115.42 168.85 114.69 168.15 114.38C166.99 113.88 165.97 115.57 166.71 116.5C167.18 117.12 168.1 116.75 168.18 117.92C167.18 119.86 166.18 121.77 165.04 123.62C165.478 122.394 165.646 121.087 165.53 119.79C164.953 117.154 164.566 114.481 164.37 111.79C164.145 109.743 164.145 107.677 164.37 105.63C164.17 106.17 163.83 106.99 163.48 108.02C163.31 108.53 163.13 109.1 162.97 109.71C162.81 110.32 162.66 110.98 162.45 111.63C161.611 114.691 161.487 117.904 162.09 121.02C162.333 122.172 162.477 123.343 162.52 124.52C162.583 125.413 162.529 126.311 162.36 127.19C162.36 127.47 162.25 127.71 162.2 127.94C161.77 128.53 161.36 129.13 160.92 129.71C161.19 128.84 161.15 128.08 160.52 127.63C159.52 126.9 158.16 128.36 158.7 129.43C159.04 130.12 159.97 129.97 159.87 131.05C158.43 132.87 156.87 134.62 155.3 136.31L155.47 136C156.01 135.002 156.35 133.908 156.47 132.78C156.53 131.95 156.59 131.17 156.65 130.43C156.71 129.69 156.7 128.96 156.72 128.28C156.774 127.081 156.891 125.886 157.07 124.7C157.39 122.674 157.838 120.67 158.41 118.7C157.76 119.7 156.58 121.7 155.23 124.15C154.555 125.49 154.025 126.898 153.65 128.35C153.13 129.937 152.873 131.599 152.89 133.27C152.918 134.454 152.817 135.638 152.59 136.8C152.388 137.658 152.124 138.5 151.8 139.32C151.68 139.62 151.56 139.88 151.45 140.12C150.97 140.56 150.45 140.98 149.98 141.41C150.19 141.119 150.303 140.769 150.303 140.41C150.303 140.051 150.19 139.701 149.98 139.41C149.12 138.47 147.55 139.65 147.86 140.82C147.98 141.29 148.39 141.48 148.61 141.82C148.677 141.936 148.717 142.065 148.728 142.198C148.738 142.331 148.718 142.465 148.67 142.59C146.97 143.99 145.21 145.3 143.4 146.59C143.45 146.52 143.51 146.46 143.56 146.4C144.275 145.51 144.815 144.492 145.15 143.4C145.58 141.75 146.02 140.4 146.38 139.11C146.74 137.82 147.05 136.66 147.38 135.63C147.734 134.665 148.148 133.723 148.62 132.81C149.06 131.92 149.46 130.97 149.96 130.06C149.57 130.48 148.96 131.12 148.24 131.94C147.327 132.797 146.481 133.723 145.71 134.71C144.09 137.03 142.2 139.56 141.54 143.18C141.097 145.154 140.294 147.028 139.17 148.71C139.01 148.97 138.85 149.18 138.71 149.39C138.14 149.72 137.58 150.05 137.01 150.39C137.261 150.14 137.428 149.818 137.489 149.469C137.549 149.12 137.501 148.76 137.35 148.44C136.72 147.35 134.95 148.21 134.95 149.33C134.95 150.08 135.95 150.33 135.32 151.28C133.43 152.28 131.51 153.15 129.53 153.96L129.83 153.77C130.731 153.068 131.47 152.182 132 151.17C133.53 148.09 134.74 146.01 135.84 144.04C136.368 143.151 136.956 142.299 137.6 141.49C137.913 141.097 138.247 140.717 138.6 140.35L139.6 139.13C138.73 139.91 136.55 140.94 134.47 142.81C133.353 143.787 132.292 144.825 131.29 145.92C130.2 147.213 129.31 148.662 128.65 150.22C127.763 152.064 126.585 153.752 125.16 155.22C124.95 155.44 124.77 155.61 124.59 155.78L122.59 156.4C122.916 156.235 123.176 155.964 123.325 155.631C123.474 155.297 123.504 154.923 123.41 154.57C123.03 153.42 121.07 153.71 120.86 154.87C120.71 155.64 121.64 156.09 120.78 156.87C118.61 157.46 116.39 157.95 114.14 158.35C114.32 158.27 114.5 158.22 114.68 158.14C115.199 157.905 115.697 157.628 116.17 157.31C116.61 156.96 117.01 156.56 117.36 156.12C118.44 154.76 119.36 153.61 120.23 152.62C121.1 151.63 121.89 150.84 122.63 149.98C124.008 148.462 125.566 147.119 127.27 145.98C125.261 146.618 123.322 147.455 121.48 148.48C120.143 149.12 118.876 149.898 117.7 150.8C116.403 151.866 115.229 153.074 114.2 154.4C112.95 156.046 111.444 157.481 109.74 158.65C109.525 158.802 109.301 158.943 109.07 159.07C108.35 159.15 107.61 159.2 106.88 159.25C107.73 158.91 108.28 158.39 108.2 157.62C108.07 156.36 106.09 156.27 105.64 157.37C105.33 158.1 106.18 158.74 105.06 159.37C103.78 159.44 102.49 159.47 101.2 159.47C98.3975 159.479 95.602 159.751 92.85 160.28C90.0979 159.751 87.3024 159.479 84.5 159.47C83.21 159.47 81.92 159.47 80.64 159.37C79.52 158.72 80.37 158.08 80.06 157.37C79.61 156.27 77.63 156.37 77.5 157.62C77.42 158.39 77.97 158.91 78.82 159.25C78.08 159.2 77.35 159.15 76.63 159.07C76.4027 158.964 76.1822 158.844 75.97 158.71C74.2656 157.541 72.7599 156.106 71.51 154.46C70.4806 153.134 69.3067 151.926 68.01 150.86C66.8317 149.956 65.5614 149.178 64.22 148.54C62.3824 147.514 60.4459 146.677 58.44 146.04C60.142 147.182 61.7 148.525 63.08 150.04C63.81 150.9 64.62 151.69 65.48 152.68C66.34 153.67 67.27 154.82 68.34 156.18C68.6939 156.621 69.0965 157.02 69.54 157.37C70.0126 157.688 70.511 157.965 71.03 158.2C71.2 158.28 71.39 158.33 71.57 158.41C69.32 158.01 67.1 157.52 64.93 156.93C64.07 156.11 65 155.66 64.85 154.93C64.64 153.77 62.67 153.48 62.3 154.63C62.2057 154.983 62.2358 155.357 62.3851 155.691C62.5344 156.024 62.7939 156.295 63.12 156.46L61.12 155.84C60.94 155.67 60.75 155.5 60.55 155.28C59.1216 153.815 57.9427 152.126 57.06 150.28C56.3965 148.724 55.5069 147.275 54.42 145.98C53.4132 144.89 52.3519 143.852 51.24 142.87C49.15 141 46.98 139.97 46.11 139.19C46.44 139.61 46.75 140.02 47.11 140.41C47.47 140.8 47.76 141.16 48.11 141.55C48.7537 142.359 49.3417 143.211 49.87 144.1C50.97 146.1 52.17 148.1 53.71 151.23C54.2395 152.242 54.9794 153.128 55.88 153.83C55.97 153.9 56.08 153.95 56.18 154.02C54.18 153.21 52.28 152.31 50.39 151.34C49.8 150.42 50.74 150.14 50.75 149.39C50.75 148.27 48.99 147.39 48.36 148.5C48.2089 148.82 48.1605 149.18 48.2214 149.529C48.2822 149.878 48.4494 150.2 48.7 150.45C48.12 150.14 47.56 149.81 47 149.45C46.85 149.24 46.7 149.03 46.53 148.77C45.4039 147.048 44.6071 145.132 44.18 143.12C43.52 139.5 41.63 136.97 40.01 134.65C39.2385 133.66 38.3891 132.734 37.47 131.88C36.76 131.06 36.14 130.42 35.75 130C36.26 130.91 36.66 131.86 37.1 132.75C37.573 133.661 37.9839 134.603 38.33 135.57C38.71 136.57 39.04 137.74 39.33 139.05C39.62 140.36 40.12 141.69 40.56 143.34C40.8948 144.432 41.4344 145.45 42.15 146.34C42.2 146.4 42.26 146.46 42.31 146.53C40.5 145.28 38.73 143.97 37.04 142.53C36.9868 142.406 36.9645 142.272 36.9749 142.138C36.9854 142.003 37.0283 141.874 37.1 141.76C37.32 141.43 37.73 141.24 37.85 140.76C38.16 139.59 36.59 138.41 35.73 139.35C35.52 139.641 35.4071 139.991 35.4071 140.35C35.4071 140.709 35.52 141.059 35.73 141.35C35.24 140.92 34.73 140.5 34.26 140.07C34.14 139.82 34.03 139.56 33.91 139.26C33.5811 138.442 33.3169 137.599 33.12 136.74C32.8926 135.578 32.792 134.394 32.82 133.21C32.832 131.54 32.5754 129.879 32.06 128.29C31.6807 126.839 31.1512 125.431 30.48 124.09C29.13 121.68 27.95 119.6 27.3 118.64C27.8722 120.61 28.3197 122.614 28.64 124.64C28.8193 125.826 28.9362 127.021 28.99 128.22C28.99 128.9 28.99 129.61 29.06 130.37C29.13 131.13 29.18 131.89 29.24 132.72C29.3604 133.848 29.7001 134.942 30.24 135.94C30.24 136.04 30.35 136.14 30.4 136.25C28.8 134.57 27.28 132.81 25.84 130.99C25.74 129.91 26.67 130.06 27.01 129.37C27.54 128.3 26.22 126.84 25.19 127.57C24.56 128.02 24.52 128.78 24.79 129.65C24.35 129.07 23.93 128.48 23.51 127.88C23.46 127.65 23.4 127.41 23.35 127.13C23.1769 126.251 23.1197 125.354 23.18 124.46C23.2265 123.283 23.3737 122.112 23.62 120.96C24.2225 117.844 24.0993 114.631 23.26 111.57C23.0532 110.939 22.8797 110.299 22.74 109.65C22.57 109.04 22.4 108.47 22.23 107.96C21.88 106.96 21.54 106.11 21.33 105.57C21.56 107.617 21.56 109.683 21.33 111.73C21.1343 114.421 20.7467 117.094 20.17 119.73C20.0573 121.026 20.2209 122.332 20.65 123.56C19.53 121.713 18.4866 119.813 17.52 117.86C17.6 116.69 18.52 117.06 18.99 116.44C19.73 115.51 18.71 113.82 17.55 114.32C16.85 114.63 16.65 115.32 16.75 116.26C16.44 115.6 16.13 114.93 15.84 114.26C15.84 114.03 15.84 113.8 15.84 113.52C16.0399 111.45 16.5664 109.425 17.4 107.52C17.7416 106.744 18.0192 105.941 18.23 105.12C18.4878 104.336 18.685 103.534 18.82 102.72C19.0595 101.253 19.1132 99.7608 18.98 98.28C18.9919 96.1708 18.7841 94.0661 18.36 92C18.1972 94.0446 17.7773 96.0605 17.11 98C16.3362 100.583 15.4078 103.118 14.33 105.59C13.918 106.645 13.7738 107.786 13.91 108.91C13.91 109.11 13.97 109.3 13.99 109.5C13.24 107.38 12.57 105.22 11.99 103.02C12.28 101.82 13.14 102.42 13.74 101.92C14.65 101.16 13.98 99.3 12.74 99.55C12 99.7 11.66 100.34 11.57 101.22C11.41 100.52 11.25 99.82 11.11 99.12C11.17 98.89 11.24 98.65 11.32 98.38C11.9084 96.4279 12.8028 94.5816 13.97 92.91C14.2231 92.5597 14.4568 92.1959 14.67 91.82C14.92 91.46 15.15 91.09 15.36 90.72C15.7437 90.0037 16.0778 89.262 16.36 88.5C16.863 87.0982 17.2314 85.6516 17.46 84.18C17.8361 82.1053 18.0667 80.0068 18.15 77.9C17.5158 79.8541 16.6884 81.7401 15.68 83.53C15.12 84.53 14.53 85.53 13.86 86.61C13.19 87.69 12.36 88.95 11.38 90.38C10.6491 91.4512 10.2302 92.7045 10.17 94C9.88996 91.81 9.70997 89.6 9.62997 87.35C10.16 86.27 10.88 87.03 11.56 86.66C12.56 86.11 12.32 84.15 11.11 84.13C10.33 84.13 9.84997 84.67 9.58997 85.49C9.58997 85.22 9.58997 84.95 9.58997 84.68C9.58997 84.41 9.58997 83.85 9.58997 83.43L9.96996 82.71C10.9448 80.8961 12.2272 79.2652 13.76 77.89C16.58 75.54 17.9 72.66 19.11 70.12C19.67 68.84 19.94 67.59 20.32 66.57C20.7 65.55 20.92 64.69 21.09 64.14C20.5585 65.0093 19.9776 65.8473 19.35 66.65C18.7681 67.4975 18.144 68.3152 17.48 69.1C16.6928 70.013 15.8583 70.8842 14.98 71.71L11.82 74.89C11.0312 75.7107 10.4067 76.6747 9.97997 77.73C9.97997 77.87 9.90996 78.01 9.85996 78.14C10.0466 75.9733 10.3333 73.8233 10.72 71.69C11.4 70.91 11.95 71.69 12.67 71.51C13.84 71.2 14.09 69.25 12.85 68.97C12.4923 68.9197 12.1279 68.9848 11.8096 69.1556C11.4914 69.3264 11.2358 69.5941 11.08 69.92C11.21 69.26 11.34 68.61 11.49 67.92C11.65 67.71 11.81 67.48 12.01 67.23C12.56 66.5417 13.1653 65.8996 13.82 65.31C14.7403 64.5596 15.724 63.8904 16.76 63.31C18.2007 62.4655 19.5251 61.4368 20.7 60.25C21.777 59.2154 22.7239 58.0535 23.52 56.79C24.7321 55.0683 25.7928 53.2448 26.69 51.34C25.3454 52.8966 23.81 54.2775 22.12 55.45C19.9763 57.0861 17.7319 58.5857 15.4 59.94C14.3829 60.6822 13.5287 61.6249 12.89 62.71C13.55 60.58 14.29 58.48 15.13 56.43C16.02 55.77 16.35 56.7 17.13 56.65C18.32 56.58 18.9 54.7 17.75 54.16C17.4153 54.0327 17.0477 54.0207 16.7055 54.1257C16.3632 54.2308 16.0657 54.4469 15.86 54.74C16.15 54.08 16.44 53.41 16.75 52.74C16.9 52.61 17.07 52.48 17.26 52.34C18.9161 51.1094 20.7597 50.1538 22.72 49.51C24.3376 49.0275 25.8769 48.3135 27.29 47.39C27.9192 46.9613 28.5235 46.4972 29.1 46C29.6848 45.5675 30.2457 45.1035 30.78 44.61C31.6915 43.7462 32.5498 42.8278 33.35 41.86C34.1 41.08 34.67 40.39 35.05 39.96C34.2057 40.5364 33.3311 41.0672 32.43 41.55C31.5605 42.1 30.6552 42.5911 29.72 43.02C28.72 43.49 27.62 43.91 26.36 44.37C25.1 44.83 23.79 45.37 22.18 45.97C21.1097 46.3711 20.1427 47.0066 19.35 47.83C19.2912 47.8921 19.2377 47.959 19.19 48.03C20.3366 45.97 21.58 43.97 22.92 42.03C23.83 41.66 24.01 42.59 24.73 42.7C25.92 42.9 26.96 41.23 25.95 40.46C25.6479 40.2625 25.2903 40.1676 24.9301 40.1892C24.5699 40.2108 24.2262 40.3478 23.95 40.58C24.35 40.03 24.75 39.5 25.16 38.96L25.85 38.59C26.6379 38.1826 27.4613 37.8479 28.31 37.59C29.4583 37.2966 30.629 37.0993 31.81 37C34.9665 36.6735 38.0001 35.6006 40.66 33.87C42.4811 32.8082 44.2134 31.6009 45.84 30.26C43.9565 31.0862 41.9881 31.7032 39.97 32.1C37.3314 32.6822 34.6598 33.1029 31.97 33.36C30.7313 33.6147 29.5595 34.1256 28.53 34.86C29.95 33.26 31.43 31.73 32.98 30.25C34.1 29.99 33.98 30.97 34.75 31.25C35.86 31.69 37.17 30.25 36.34 29.25C36.0814 28.9916 35.7431 28.8283 35.38 28.7866C35.0169 28.7448 34.6504 28.8271 34.34 29.02C34.86 28.55 35.4 28.07 35.94 27.61C36.16 27.55 36.38 27.48 36.65 27.42C38.6624 26.9827 40.7315 26.8679 42.78 27.08C44.4366 27.3382 46.1233 27.3382 47.78 27.08C48.57 26.96 49.28 26.73 50.02 26.58C50.73 26.4249 51.431 26.2313 52.12 26C53.45 25.58 54.58 25 55.59 24.56C56.6 24.12 57.39 23.77 57.92 23.56C56.9275 23.7364 55.9259 23.8566 54.92 23.92C53.8983 24.0515 52.87 24.125 51.84 24.14C50.75 24.14 49.57 24.14 48.23 23.99C46.89 23.84 45.47 23.86 43.76 23.72C42.6202 23.6592 41.48 23.8328 40.41 24.23L40.06 24.4C41.84 23.0666 43.68 21.8266 45.58 20.68C46.66 20.68 46.41 21.61 47.05 22.01C48.05 22.68 49.69 21.59 49.05 20.47C48.8525 20.1678 48.5634 19.9368 48.2251 19.8108C47.8868 19.6849 47.517 19.6706 47.17 19.77H47.09C47.67 19.44 48.25 19.1 48.84 18.77C49.11 18.77 49.4 18.72 49.73 18.71C50.6112 18.6631 51.4948 18.6966 52.37 18.81C53.5378 19.0024 54.6859 19.3002 55.8 19.7C56.609 19.9878 57.4424 20.202 58.29 20.34C58.7 20.41 59.1 20.46 59.49 20.5L60.7 20.65C62.1879 20.7776 63.686 20.7205 65.16 20.48C67.2524 20.265 69.3209 19.86 71.34 19.27C69.2878 19.2865 67.2417 19.0446 65.25 18.55C62.6041 18.0189 59.9954 17.3174 57.44 16.45C56.1676 16.1791 54.8524 16.1791 53.58 16.45C56.0384 15.3374 58.5554 14.3593 61.12 13.52C62.29 13.68 61.82 14.6 62.38 15.14C63.23 16 65.05 15.25 64.68 14.04C64.547 13.7042 64.3106 13.4194 64.0049 13.227C63.6992 13.0346 63.3402 12.9446 62.98 12.97H62.85C64.12 12.59 65.4 12.24 66.69 11.97C67.2644 12.0926 67.8267 12.2666 68.37 12.49C69.2277 12.8752 70.0508 13.3336 70.83 13.86C71.3987 14.241 71.9973 14.5754 72.62 14.86C72.91 14.99 73.21 15.11 73.51 15.22L74.41 15.57C75.5279 15.9637 76.6899 16.2189 77.87 16.33C79.524 16.5818 81.1976 16.6822 82.87 16.63C81.9753 16.3973 81.0968 16.1067 80.24 15.76C84.24 15.48 87.12 13.06 87.12 10.86C87.12 8.50997 83.9 5.85997 79.58 5.85997C79.38 5.85997 79.18 5.85997 78.98 5.85997L79.15 5.74997C79.7757 5.43043 80.4282 5.16609 81.1 4.95997C81.691 4.76346 82.301 4.62939 82.92 4.55997C81.9334 4.33302 80.9301 4.18589 79.92 4.11997C78.1135 4.01662 76.3163 4.44419 74.75 5.34997C73.0698 6.6827 71.3099 7.91165 69.48 9.02997C68.6994 9.55126 67.8803 10.0126 67.03 10.41C65.45 10.78 63.9 11.19 62.36 11.66C63.4241 11.0426 64.3608 10.2281 65.12 9.25997C65.66 8.54997 66.18 7.86997 66.71 7.25997C67.24 6.64997 67.78 6.15997 68.31 5.66997C69.2893 4.73915 70.3318 3.8771 71.43 3.08997C72.425 2.36778 73.5026 1.76687 74.64 1.29996C75.7899 0.797088 76.9648 0.353184 78.16 -0.0300293C77.43 0.0499707 76.31 0.15997 74.94 0.35997C74.26 0.45997 73.52 0.579967 72.74 0.739967C71.923 0.927991 71.1209 1.17531 70.34 1.47997C68.6267 2.07767 66.989 2.87304 65.46 3.84997C63.92 4.95763 62.595 6.33686 61.55 7.91997C60.3954 9.74696 59.1016 11.4821 57.68 13.11C57.61 13.19 57.55 13.24 57.49 13.3C56.19 13.8 54.9 14.3 53.63 14.87C53.8898 14.6565 54.0786 14.3691 54.1715 14.0458C54.2643 13.7226 54.2568 13.3788 54.15 13.06C53.67 11.89 51.58 12.6 51.53 13.8C51.53 14.54 52.4 14.8 51.86 15.7C49.94 16.61 48.08 17.59 46.26 18.7C47.19 17.8694 47.9565 16.8723 48.52 15.76C48.9 14.95 49.28 14.18 49.68 13.49C50.08 12.8 50.51 12.19 50.92 11.6C51.701 10.4987 52.5493 9.44674 53.46 8.44997C54.295 7.54576 55.2311 6.74048 56.25 6.04996C57.2719 5.32977 58.3299 4.66223 59.42 4.04996C58.73 4.27996 57.65 4.60996 56.35 5.04996C55.71 5.27996 55.01 5.54997 54.27 5.85997C53.5122 6.2172 52.7775 6.62132 52.07 7.06997C50.51 8.00269 49.0636 9.11347 47.76 10.38C46.4832 11.7781 45.4672 13.3936 44.76 15.15C43.994 17.1721 43.0782 19.1342 42.02 21.02C41.89 21.23 41.77 21.4 41.66 21.57C40.95 22.06 40.24 22.57 39.55 23.05C40.01 22.32 40.19 21.66 39.77 21.05C39.5865 20.8194 39.322 20.6673 39.0304 20.6245C38.7388 20.5818 38.4419 20.6517 38.2 20.82C37.9297 20.9654 37.7079 21.1869 37.5622 21.4571C37.4164 21.7272 37.3531 22.0342 37.38 22.34C37.52 23.08 38.38 23.18 38.11 24.14C36.43 25.43 34.8 26.79 33.24 28.22L33.39 28C33.7 27.4915 33.9772 26.9638 34.22 26.42C34.4681 25.9083 34.6722 25.3763 34.83 24.83C35.4823 21.9481 36.6003 19.1919 38.14 16.67C39.4478 14.5564 41.1007 12.677 43.03 11.11C42.061 11.5845 41.1225 12.1188 40.22 12.71C38.9114 13.5984 37.659 14.5669 36.47 15.61C35.1068 16.823 33.9396 18.2398 33.01 19.81C31.959 21.3847 31.2755 23.1755 31.01 25.05C30.7303 27.1889 30.231 29.2933 29.52 31.33C29.43 31.61 29.35 31.84 29.27 32.07C28.77 32.6 28.27 33.07 27.79 33.66C27.9653 33.3437 28.0365 32.9802 27.9934 32.6212C27.9503 32.2621 27.7951 31.9258 27.55 31.66C26.63 30.79 25.02 32.29 25.46 33.41C25.75 34.11 26.71 34.02 26.46 35.09C25.0733 36.7166 23.74 38.4 22.46 40.14C22.52 40.02 22.58 39.89 22.63 39.76C23.0865 38.6853 23.344 37.5367 23.39 36.37C23.39 35.49 23.39 34.61 23.54 33.83C23.69 33.05 23.77 32.31 23.9 31.6C24.1452 30.2757 24.4792 28.9694 24.9 27.69C25.7856 25.3698 27.0087 23.193 28.53 21.23C27.99 21.72 27.14 22.46 26.16 23.42C24.9979 24.4963 23.9613 25.7006 23.07 27.01C22.0362 28.4996 21.1709 30.0994 20.49 31.78C19.8908 33.5804 19.6199 35.4738 19.69 37.37C19.8146 39.5299 19.7745 41.6962 19.57 43.85C19.57 44.12 19.5 44.35 19.46 44.58C18.93 45.44 18.46 46.3 17.92 47.17C18.034 46.8123 18.0347 46.4282 17.9219 46.0701C17.8092 45.7121 17.5884 45.3977 17.29 45.17C16.16 44.49 14.96 46.33 15.66 47.34C16.09 47.97 16.98 47.67 17.06 48.73C16.06 50.6 15.15 52.5 14.31 54.45C14.31 54.35 14.31 54.25 14.36 54.15C14.5055 52.9912 14.5055 51.8187 14.36 50.66C14.0933 49.0813 13.9163 47.4887 13.83 45.89C13.83 45.16 13.77 44.45 13.83 43.78C13.89 43.11 13.95 42.48 14.05 41.86C14.227 40.6435 14.4876 39.4406 14.83 38.26C15 37.68 15.18 37.09 15.4 36.5C15.62 35.91 15.91 35.36 16.2 34.78C14.5414 36.8592 13.1598 39.1449 12.09 41.58C11.7041 42.3892 11.4058 43.2374 11.2 44.11C10.9667 45.0081 10.7897 45.9198 10.67 46.84C10.545 47.7611 10.4949 48.6908 10.52 49.62C10.582 50.5763 10.7531 51.5225 11.03 52.44C11.646 54.5057 12.0645 56.6252 12.28 58.77C12.28 59.06 12.34 59.31 12.36 59.54C12.09 60.3 11.83 61.06 11.59 61.82C11.6137 61.4741 11.5304 61.1293 11.3515 60.8324C11.1727 60.5354 10.9068 60.3007 10.59 60.16C9.38997 59.76 8.58997 61.79 9.40997 62.62C9.96997 63.14 10.8 62.62 11.08 63.68C10.5 65.68 9.99997 67.74 9.58997 69.82V69.55C9.54294 68.3842 9.29952 67.2347 8.86996 66.15C8.50996 65.33 8.19996 64.54 7.86996 63.77C7.53996 63 7.43996 62.3 7.27996 61.6C6.9595 60.2838 6.72897 58.9474 6.58997 57.6C6.43973 56.3779 6.43973 55.142 6.58997 53.92C6.71997 52.72 6.91996 51.5 7.17996 50.21C6.89996 50.88 6.42996 51.91 5.91996 53.21C5.66996 53.85 5.40997 54.56 5.15997 55.31C4.94069 56.1202 4.76378 56.9413 4.62997 57.77C4.29201 59.5555 4.17113 61.3754 4.26997 63.19C4.4742 65.0747 5.01619 66.9073 5.86996 68.6C6.88229 70.5109 7.75458 72.4928 8.47997 74.53C8.54996 74.76 8.59997 74.95 8.65997 75.15C8.55997 75.93 8.46996 76.71 8.39996 77.49C8.19996 76.67 7.77996 76.09 7.05996 76.01C5.79996 75.86 5.31996 78.01 6.41996 78.65C7.06996 79.04 7.73996 78.41 8.25996 79.28C8.13996 81.04 8.05996 82.82 8.05996 84.61C8.05996 84.94 8.05996 85.28 8.05996 85.61L7.99996 85.38C7.68315 84.2666 7.21905 83.2005 6.61996 82.21C5.70982 80.8798 4.87839 79.4974 4.12997 78.07C3.52536 76.8738 3.03969 75.6211 2.67996 74.33C1.94103 71.9532 1.61961 69.4665 1.72997 66.98C1.58997 67.69 1.24996 68.78 1.05996 70.14C0.871091 71.7095 0.777587 73.2891 0.779961 74.87C0.774957 75.7635 0.838479 76.6561 0.969963 77.54C1.13196 78.4532 1.35241 79.355 1.62997 80.24C2.14047 82.0669 3.02216 83.769 4.21996 85.24C5.68236 86.8469 6.95723 88.6149 8.01997 90.51C8.13997 90.73 8.22996 90.92 8.32996 91.11C8.39996 91.95 8.47996 92.78 8.57996 93.6C8.44265 93.2725 8.21206 92.9927 7.91689 92.7953C7.62173 92.598 7.27503 92.4918 6.91996 92.49C5.62996 92.61 5.78996 94.8 6.91996 95.21C7.61996 95.44 8.13997 94.73 8.79996 95.39C9.09997 97.5033 9.48663 99.5866 9.95996 101.64L9.86996 101.46C9.56603 100.944 9.23212 100.447 8.86996 99.97C8.61424 99.52 8.31263 99.0978 7.96996 98.71C6.82295 97.5901 5.738 96.4083 4.71996 95.17C3.83842 94.1454 3.07992 93.021 2.45996 91.82C1.34371 89.5976 0.504115 87.2467 -0.0400391 84.82C-0.0131526 87.4726 0.234373 90.1184 0.699966 92.73C1.14624 94.4988 1.81844 96.2028 2.69997 97.8C3.54922 99.4878 4.76976 100.961 6.26997 102.11C8.02531 103.375 9.62623 104.842 11.04 106.48L11.52 107.07C11.76 107.84 12.02 108.59 12.28 109.34C12.0783 109.052 11.7957 108.831 11.468 108.705C11.1404 108.579 10.7825 108.552 10.44 108.63C9.22996 109.01 9.80996 111.13 11.01 111.28C11.73 111.37 12.1 110.55 12.87 111.07C13.6 113.07 14.43 114.98 15.31 116.87C14.5284 115.938 13.6075 115.131 12.58 114.48C10.0659 112.927 7.76343 111.054 5.72997 108.91C4.22501 106.964 2.96241 104.841 1.96996 102.59C2.5087 105.194 3.29908 107.739 4.32996 110.19C5.15977 111.809 6.16587 113.332 7.32996 114.73C8.51126 116.219 10.039 117.397 11.78 118.16C13.7356 119.056 15.5896 120.159 17.31 121.45C17.56 121.61 17.76 121.76 17.96 121.9C18.3 122.52 18.65 123.14 19.02 123.75C18.7705 123.511 18.455 123.353 18.1143 123.296C17.7736 123.239 17.4236 123.285 17.11 123.43C16 124.06 16.99 126.03 18.18 125.93C18.93 125.87 19.12 124.93 20.04 125.39C21.15 127.13 22.31 128.84 23.55 130.49C22.6104 129.722 21.5445 129.123 20.4 128.72C17.6133 127.758 14.9746 126.411 12.56 124.72C10.6097 123.188 8.89776 121.375 7.47997 119.34C7.78997 120 8.24996 121.03 8.86996 122.26C9.54573 123.688 10.3883 125.03 11.38 126.26C12.5162 127.679 13.8038 128.97 15.22 130.11C15.9512 130.702 16.7584 131.193 17.62 131.57C18.488 131.971 19.392 132.289 20.32 132.52C22.4061 133.036 24.4516 133.704 26.44 134.52C26.69 134.62 26.9 134.72 27.11 134.82C27.73 135.53 28.37 136.23 29.02 136.92C28.7313 136.704 28.3804 136.587 28.02 136.587C27.6595 136.587 27.3087 136.704 27.02 136.92C26.08 137.77 27.42 139.52 28.56 139.18C29.3 138.94 29.26 138 30.33 138.27C31.83 139.77 33.39 141.21 35.01 142.59L34.69 142.41C33.6562 141.888 32.5396 141.55 31.39 141.41C28.4433 141.146 25.5626 140.386 22.87 139.16C21.7351 138.677 20.6499 138.084 19.63 137.39C18.63 136.67 17.71 135.89 16.74 135.01C17.17 135.6 17.82 136.52 18.67 137.61C19.6716 138.834 20.8013 139.947 22.04 140.93C23.3973 142.148 24.9272 143.159 26.58 143.93C28.3186 144.682 30.1781 145.115 32.07 145.21C34.2324 145.27 36.3879 145.484 38.52 145.85L39.16 146C39.86 146.52 40.57 147 41.29 147.52C40.9558 147.361 40.5786 147.318 40.217 147.395C39.8554 147.473 39.5295 147.668 39.29 147.95C38.55 148.95 40.16 150.48 41.29 149.82C41.96 149.44 41.73 148.54 42.83 148.54C44.61 149.713 46.4433 150.81 48.33 151.83C48.2 151.83 48.08 151.76 47.95 151.74C46.8428 151.405 45.6842 151.273 44.53 151.35C42.9182 151.505 41.2988 151.565 39.68 151.53C38.3332 151.438 36.9958 151.241 35.68 150.94C33.246 150.429 30.9206 149.495 28.81 148.18C29.5788 148.936 30.3901 149.647 31.24 150.31C32.5218 151.238 33.8575 152.09 35.24 152.86C36 153.27 36.8 153.67 37.63 154.03C38.5149 154.326 39.4164 154.57 40.33 154.76C42.1641 155.156 44.0551 155.213 45.91 154.93C48.0347 154.454 50.2029 154.199 52.38 154.17H53.08C53.78 154.49 54.48 154.81 55.19 155.1C54.32 155.1 53.67 155.27 53.37 155.96C53.2665 156.235 53.2733 156.539 53.3888 156.809C53.5043 157.08 53.7197 157.295 53.99 157.41C54.2581 157.563 54.5647 157.637 54.8732 157.621C55.1817 157.605 55.4791 157.5 55.73 157.32C56.28 156.81 55.89 155.99 56.86 155.75C58.86 156.523 60.86 157.21 62.86 157.81C61.6186 157.775 60.3781 157.903 59.17 158.19C56.3676 159.138 53.4283 159.618 50.47 159.61C49.2397 159.577 48.0133 159.456 46.8 159.25C45.5587 159.077 44.3388 158.775 43.16 158.35C43.47 158.53 43.85 158.8 44.33 159.06L46.01 159.86C47.4415 160.53 48.9145 161.108 50.42 161.59C50.83 161.72 51.26 161.85 51.69 161.96C52.12 162.07 52.58 162.11 53.04 162.17C53.9615 162.294 54.8901 162.357 55.82 162.36C57.7027 162.411 59.5756 162.07 61.32 161.36C63.2855 160.443 65.3487 159.752 67.47 159.3L68.19 159.18C68.9833 159.353 69.7833 159.513 70.59 159.66C69.78 159.85 69.19 160.23 69.05 160.92C68.79 162.16 70.93 162.68 71.65 161.7C72.08 161.12 71.55 160.41 72.36 159.97C74.42 160.303 76.5066 160.547 78.62 160.7H78.5C77.9151 160.824 77.3402 160.991 76.78 161.2C76.24 161.374 75.715 161.591 75.21 161.85C72.6409 163.316 69.8766 164.411 67 165.1C64.551 165.498 62.063 165.598 59.59 165.4C62.1353 166.169 64.7413 166.721 67.38 167.05C69.2041 167.11 71.0291 166.962 72.82 166.61C74.6854 166.298 76.4523 165.555 77.98 164.44C79.7104 163.148 81.5825 162.058 83.56 161.19L84.26 160.92H84.43C85.9538 160.927 87.476 161.017 88.99 161.19C82.0826 163.068 75.703 166.518 70.35 171.27C70.2548 171.37 70.1907 171.495 70.1656 171.63C70.1404 171.766 70.1552 171.906 70.2083 172.033C70.2613 172.16 70.3502 172.269 70.4641 172.347C70.5781 172.425 70.7122 172.467 70.85 172.47C71.0332 172.47 71.2091 172.398 71.34 172.27C77.4128 166.908 84.8137 163.275 92.77 161.75C100.73 163.274 108.134 166.907 114.21 172.27C114.346 172.397 114.524 172.468 114.71 172.47C114.803 172.47 114.895 172.451 114.981 172.415C115.067 172.379 115.145 172.326 115.21 172.26C115.278 172.195 115.332 172.118 115.369 172.032C115.405 171.946 115.424 171.853 115.424 171.76C115.424 171.666 115.405 171.574 115.369 171.488C115.332 171.402 115.278 171.324 115.21 171.26C109.852 166.509 103.47 163.059 96.56 161.18C98.0773 161.007 99.6029 160.917 101.13 160.91H101.3C101.52 160.99 101.74 161.07 101.99 161.18C103.97 162.043 105.842 163.134 107.57 164.43C109.1 165.547 110.871 166.29 112.74 166.6C114.531 166.952 116.356 167.1 118.18 167.04C120.818 166.718 123.424 166.173 125.97 165.41C123.494 165.609 121.002 165.508 118.55 165.11C115.677 164.419 112.916 163.324 110.35 161.86C109.844 161.603 109.319 161.386 108.78 161.21C108.219 161.003 107.644 160.836 107.06 160.71H106.94C109.053 160.55 111.14 160.307 113.2 159.98C114.01 160.42 113.48 161.13 113.91 161.71C114.63 162.71 116.77 162.17 116.51 160.93C116.408 160.59 116.207 160.289 115.932 160.065C115.658 159.84 115.323 159.703 114.97 159.67C115.783 159.523 116.583 159.363 117.37 159.19L118.09 159.31C120.211 159.762 122.274 160.453 124.24 161.37C125.984 162.081 127.857 162.422 129.74 162.37C130.67 162.367 131.598 162.304 132.52 162.18C132.98 162.12 133.43 162.06 133.87 161.97C134.31 161.88 134.72 161.73 135.14 161.6C136.645 161.118 138.118 160.54 139.55 159.87L141.23 159.07C141.71 158.81 142.09 158.54 142.4 158.36C141.218 158.787 139.995 159.088 138.75 159.26C137.54 159.467 136.317 159.587 135.09 159.62C132.132 159.628 129.192 159.148 126.39 158.2C125.182 157.913 123.941 157.785 122.7 157.82C124.74 157.22 126.74 156.533 128.7 155.76C129.7 156 129.28 156.82 129.83 157.33C130.079 157.511 130.375 157.615 130.682 157.631C130.989 157.647 131.294 157.574 131.56 157.42C131.832 157.307 132.05 157.092 132.167 156.822C132.285 156.552 132.293 156.246 132.19 155.97C131.89 155.28 131.19 155.13 130.36 155.11C131.08 154.82 131.78 154.5 132.48 154.18H133.18C135.357 154.21 137.525 154.464 139.65 154.94C141.505 155.223 143.396 155.166 145.23 154.77C146.143 154.58 147.045 154.336 147.93 154.04C148.76 153.68 149.56 153.28 150.32 152.87C151.702 152.1 153.038 151.248 154.32 150.32C155.165 149.651 155.977 148.941 156.75 148.19C154.636 149.505 152.307 150.439 149.87 150.95C148.554 151.252 147.217 151.45 145.87 151.54C144.251 151.575 142.632 151.515 141.02 151.36C139.866 151.282 138.707 151.414 137.6 151.75C137.47 151.75 137.35 151.81 137.22 151.84C139.107 150.82 140.94 149.723 142.72 148.55C143.82 148.55 143.59 149.45 144.25 149.83C145.35 150.49 146.96 148.96 146.25 147.96C146.01 147.678 145.685 147.483 145.323 147.405C144.961 147.328 144.584 147.371 144.25 147.53C144.97 147.03 145.68 146.53 146.38 146.01L147.02 145.86C149.152 145.494 151.308 145.28 153.47 145.22C155.359 145.126 157.215 144.693 158.95 143.94C160.604 143.167 162.137 142.156 163.5 140.94C164.739 139.957 165.868 138.844 166.87 137.62C167.72 136.53 168.36 135.62 168.8 135.02C167.8 135.9 166.88 136.68 165.91 137.4C164.89 138.094 163.805 138.687 162.67 139.17C159.977 140.396 157.097 141.156 154.15 141.42C153 141.56 151.884 141.898 150.85 142.42L150.53 142.6C152.14 141.22 153.71 139.78 155.2 138.28C156.28 138.01 156.2 138.95 156.97 139.19C158.12 139.53 159.46 137.78 158.51 136.93C158.223 136.711 157.871 136.592 157.51 136.592C157.149 136.592 156.797 136.711 156.51 136.93C157.16 136.24 157.8 135.54 158.42 134.83C158.63 134.73 158.83 134.63 159.09 134.53C161.078 133.715 163.124 133.046 165.21 132.53C166.135 132.301 167.036 131.982 167.9 131.58C168.765 131.203 169.575 130.712 170.31 130.12C171.723 128.98 173.008 127.689 174.14 126.27C175.138 125.043 175.985 123.7 176.66 122.27C177.28 121.04 177.74 120.01 178.05 119.35C176.658 121.368 174.981 123.174 173.07 124.71C170.655 126.401 168.017 127.748 165.23 128.71C164.082 129.113 163.013 129.712 162.07 130.48C163.32 128.83 164.48 127.12 165.59 125.38C166.5 124.95 166.7 125.86 167.44 125.92C168.64 126.02 169.62 124.05 168.52 123.42C168.206 123.275 167.856 123.229 167.516 123.286C167.175 123.343 166.859 123.501 166.61 123.74C166.97 123.13 167.32 122.51 167.67 121.89L168.31 121.44C170.036 120.151 171.893 119.048 173.85 118.15C174.722 117.746 175.549 117.253 176.32 116.68C177.054 116.085 177.725 115.414 178.32 114.68C179.481 113.279 180.487 111.757 181.32 110.14C182.351 107.689 183.141 105.144 183.68 102.54C182.66 104.799 181.367 106.925 179.83 108.87C177.802 111.017 175.503 112.889 172.99 114.44C171.957 115.092 171.032 115.902 170.25 116.84C171.143 114.94 171.96 113.003 172.7 111.03C173.47 110.51 173.84 111.33 174.56 111.24C175.76 111.09 176.34 108.97 175.13 108.59C174.787 108.512 174.43 108.539 174.102 108.665C173.774 108.791 173.492 109.012 173.29 109.3C173.55 108.55 173.81 107.8 174.05 107.03L174.53 106.49ZM81.42 11.62C81.029 11.3929 80.625 11.1892 80.21 11.01C81.1546 9.9408 81.8391 8.66761 82.21 7.28997C82.8018 7.46557 83.3695 7.71414 83.9 8.02997C83.3402 9.39061 82.4945 10.615 81.42 11.62ZM79.48 11.77C80.7823 12.2559 81.9484 13.0483 82.88 14.08C81.8119 14.5095 80.6712 14.7302 79.52 14.73C78.9671 14.7285 78.4152 14.6817 77.87 14.59C77.46 14.4 77.03 14.17 76.59 13.93C77.6418 13.3367 78.6131 12.6108 79.48 11.77ZM83.79 13.65C83.3381 13.0994 82.821 12.6058 82.25 12.18C82.6454 11.793 83.0129 11.3787 83.35 10.94C84.0669 11.3807 84.737 11.8933 85.35 12.47C84.898 12.946 84.371 13.3446 83.79 13.65ZM86.11 10.83C86.0962 11.1159 86.0211 11.3955 85.89 11.65C85.2743 11.0824 84.6044 10.5766 83.89 10.14C84.198 9.64572 84.4655 9.12736 84.69 8.58997C85.0748 8.83814 85.4012 9.16701 85.6463 9.55379C85.8915 9.94056 86.0497 10.376 86.11 10.83ZM77.88 7.06997C78.4537 6.9622 79.0362 6.90863 79.62 6.90997C80.1605 6.91118 80.6997 6.96477 81.23 7.06997C80.32 10.51 77.13 12.53 75.55 13.34C74.72 12.85 73.81 12.34 72.77 11.66C72.1125 11.3055 71.4139 11.0335 70.69 10.85C73.1 10.32 76.36 7.76997 76.87 7.35997L76.97 7.27997C77.27 7.20997 77.56 7.12997 77.88 7.06997ZM107.75 14.59C107.205 14.6812 106.653 14.7281 106.1 14.73C104.949 14.7302 103.808 14.5095 102.74 14.08C103.67 13.0508 104.832 12.2587 106.13 11.77C107.009 12.6068 107.99 13.3292 109.05 13.92C108.61 14.16 108.18 14.39 107.77 14.58L107.75 14.59ZM101.75 8.02997C102.285 7.71599 102.856 7.46754 103.45 7.28997C103.821 8.66761 104.505 9.9408 105.45 11.01C105.035 11.1892 104.631 11.3929 104.24 11.62C103.148 10.6213 102.288 9.396 101.72 8.02997H101.75ZM107.75 7.02997C108.07 7.08997 108.36 7.16997 108.65 7.23997L108.76 7.31997C109.27 7.72997 112.53 10.32 114.94 10.81C114.213 10.9953 113.512 11.2672 112.85 11.62C111.85 12.26 110.91 12.81 110.08 13.3C108.5 12.49 105.31 10.47 104.39 7.02997C104.92 6.92526 105.459 6.87169 106 6.86997C106.585 6.88199 107.168 6.94895 107.74 7.06997L107.75 7.02997ZM100.9 8.54996C101.132 9.08564 101.403 9.60369 101.71 10.1C100.995 10.5366 100.326 11.0424 99.71 11.61C99.5788 11.3555 99.5038 11.0759 99.49 10.79C99.5546 10.3452 99.7128 9.91908 99.9541 9.53986C100.195 9.16065 100.514 8.8369 100.89 8.58997L100.9 8.54996ZM100.3 12.43C100.913 11.8533 101.583 11.3407 102.3 10.9C102.637 11.3387 103.005 11.753 103.4 12.14C102.828 12.568 102.308 13.0614 101.85 13.61C101.273 13.3148 100.746 12.93 100.29 12.47L100.3 12.43Z" fill="#54575C"/>
<path d="M92.2699 25.8799L95.9499 33.3399L104.18 34.5299L98.2199 40.3399L99.6299 48.5399L92.2699 44.6599L84.8999 48.5399L86.3099 40.3399L80.3599 34.5299L88.5799 33.3399L92.2699 25.8799Z" fill="#54575C"/>
<path d="M73.4098 50.12L70.1698 45.28L72.3298 39.87L66.7198 41.45L62.2498 37.73L62.0198 43.54L57.0898 46.65L62.5598 48.67L63.9898 54.31L67.5998 49.74L73.4098 50.12Z" fill="#54575C"/>
<path d="M111.12 50.12L114.36 45.28L112.2 39.87L117.81 41.45L122.28 37.73L122.52 43.54L127.44 46.65L121.97 48.67L120.54 54.31L116.93 49.74L111.12 50.12Z" fill="#54575C"/>
<path d="M67.5601 86.13H61.8901V85.24C62.0947 85.1598 62.3054 85.0963 62.5201 85.05C62.7097 85.0064 62.8941 84.9427 63.0701 84.86C63.2492 84.7663 63.3956 84.6207 63.4902 84.4422C63.5848 84.2637 63.6232 84.0607 63.6001 83.86V71.46C63.6232 71.2593 63.5848 71.0563 63.4902 70.8778C63.3956 70.6993 63.2492 70.5536 63.0701 70.46C62.8941 70.3772 62.7097 70.3135 62.5201 70.27C62.3054 70.2237 62.0947 70.1602 61.8901 70.08V69.18H67.5601V86.13ZM68.6201 76.57C70.8468 76.57 71.9601 75.52 71.9601 73.42C72.0386 72.8178 71.914 72.2067 71.6061 71.6833C71.2982 71.1598 70.8246 70.754 70.2601 70.53C69.9405 70.4059 69.6027 70.3349 69.2601 70.32H68.6301V69.16H70.6301C72.1084 69.0446 73.5837 69.4169 74.8301 70.22C75.2786 70.5757 75.6353 71.0337 75.8701 71.5557C76.105 72.0777 76.2113 72.6484 76.1801 73.22C76.1966 73.7295 76.0929 74.2358 75.8775 74.6979C75.6621 75.16 75.341 75.5649 74.9401 75.88C74.0648 76.527 73.0253 76.915 71.9401 77C73.2371 76.987 74.506 77.3785 75.5701 78.12C76.0675 78.4904 76.4675 78.976 76.7358 79.5352C77.004 80.0943 77.1325 80.7102 77.1101 81.33C77.1266 81.9736 76.9902 82.6119 76.712 83.1925C76.4339 83.7731 76.022 84.2795 75.5101 84.67C74.0495 85.6881 72.2871 86.1816 70.5101 86.07H68.5101V84.81C68.7139 84.8528 68.9222 84.8696 69.1301 84.86C71.4968 84.86 72.6835 83.7033 72.6901 81.39C72.6901 79.07 71.2901 77.92 68.5101 77.92L68.6201 76.57Z" fill="#54575C"/>
<path d="M84.5702 69.1699V86.1699H78.9702V85.2799C79.1743 85.1984 79.3851 85.1348 79.6002 85.0899C79.7866 85.0464 79.9677 84.9827 80.1402 84.8999C80.3211 84.8077 80.4696 84.6627 80.5661 84.4841C80.6625 84.3055 80.7024 84.1017 80.6802 83.8999V71.4999C80.7024 71.2981 80.6625 71.0944 80.5661 70.9157C80.4696 70.7371 80.3211 70.5921 80.1402 70.4999C79.9677 70.4171 79.7866 70.3534 79.6002 70.3099C79.3851 70.265 79.1743 70.2014 78.9702 70.1199V69.2199L84.5702 69.1699ZM89.3302 71.1699C89.045 70.887 88.7046 70.6657 88.3302 70.5199C87.8643 70.3429 87.3685 70.258 86.8702 70.2699C86.3102 70.2699 85.8702 70.2699 85.6802 70.2699V69.0899H88.3702C89.6727 69.1154 90.9756 69.0553 92.2702 68.9099V74.6899H91.4402C91.2279 74.4812 91.0581 74.2333 90.9402 73.9599C90.8002 73.6599 90.6602 73.3499 90.5302 73.0199C90.4002 72.6899 90.2302 72.3599 90.0502 72.0199C89.8565 71.715 89.6131 71.4446 89.3302 71.2199V71.1699ZM85.6402 75.9799H89.6402V79.0399H85.6402V75.9799ZM85.6402 84.8799C86.0302 84.8799 86.5402 84.9299 87.1502 84.9299C87.7135 84.9367 88.273 84.8383 88.8002 84.6399C89.2451 84.4794 89.6532 84.2312 90.0002 83.9099C90.2946 83.6193 90.538 83.2812 90.7202 82.9099C90.8869 82.5499 91.0369 82.1899 91.1702 81.8299C91.3002 81.4799 91.4302 81.1499 91.5602 80.8299C91.6714 80.5508 91.8584 80.3083 92.1002 80.1299H92.9102V86.0499H85.6402V84.8799Z" fill="#54575C"/>
<path d="M101.68 84.8399C102.355 84.7923 102.996 84.5214 103.5 84.0699C103.714 83.8673 103.884 83.622 103.998 83.3498C104.111 83.0777 104.167 82.7847 104.16 82.4899C104.191 81.9627 104.058 81.439 103.78 80.9899C103.51 80.5987 103.171 80.2598 102.78 79.9899C102.323 79.6923 101.837 79.441 101.33 79.2399L99.6702 78.5599C99.1102 78.3332 98.5602 78.0832 98.0202 77.8099C97.4979 77.557 97.0105 77.2377 96.5702 76.8599C96.1173 76.4845 95.7553 76.0115 95.5111 75.4764C95.2669 74.9413 95.147 74.3579 95.1602 73.7699C95.1578 73.1424 95.2814 72.5208 95.5236 71.9419C95.7658 71.3631 96.1217 70.8387 96.5702 70.3999C97.1004 69.8628 97.7352 69.4402 98.4352 69.1581C99.1352 68.876 99.8857 68.7405 100.64 68.7599V70.2899C100.067 70.3242 99.5203 70.5415 99.0802 70.9099C98.8932 71.0684 98.7434 71.2662 98.6414 71.4891C98.5394 71.7121 98.4878 71.9547 98.4902 72.1999C98.4739 72.6519 98.6114 73.0961 98.8802 73.4599C99.1569 73.8146 99.4958 74.1161 99.8802 74.3499C100.34 74.6285 100.826 74.8629 101.33 75.0499L102.97 75.7099C103.53 75.9432 104.08 76.1932 104.62 76.4599C105.141 76.7296 105.625 77.0657 106.06 77.4599C106.516 77.8592 106.878 78.3536 107.122 78.9083C107.365 79.4629 107.484 80.0643 107.47 80.6699C107.509 82.0749 106.996 83.4392 106.04 84.4699C105.477 85.061 104.798 85.5308 104.047 85.8507C103.296 86.1705 102.487 86.3336 101.67 86.3299L101.68 84.8399ZM97.1102 85.3999C96.8202 85.3999 96.5702 85.6399 96.3702 86.1099H95.1702V79.8699H95.9702C96.351 80.1785 96.6384 80.5871 96.8002 81.0499C97.0602 81.6499 97.2802 82.1399 97.4702 82.5199C97.6529 82.8965 97.8813 83.2491 98.1502 83.5699C98.455 83.9371 98.8309 84.239 99.2554 84.4572C99.6799 84.6755 100.144 84.8056 100.62 84.8399V86.3599C99.9641 86.3352 99.3161 86.2069 98.7002 85.9799L97.5902 85.5299C97.4407 85.4543 97.2773 85.4101 97.1102 85.3999ZM101.68 68.7999C102.521 68.9673 103.318 69.3078 104.02 69.7999C104.141 69.8843 104.283 69.9329 104.43 69.9399C104.506 69.9325 104.578 69.909 104.644 69.8711C104.71 69.8331 104.766 69.7816 104.81 69.7199L105.2 69.2099H106.28V74.9999H105.37C105.074 74.6363 104.832 74.2322 104.65 73.7999C104.4 73.2399 104.19 72.7999 104.03 72.4599C103.87 72.1358 103.679 71.8277 103.46 71.5399C103.036 70.9389 102.4 70.5209 101.68 70.3699V68.7999Z" fill="#54575C"/>
<path d="M108.97 68.99C109.97 69.11 110.56 69.17 110.67 69.17H113.21V70.38C112.666 70.3929 112.141 70.5808 111.712 70.9158C111.283 71.2509 110.974 71.7152 110.83 72.24C110.73 72.56 110.64 72.87 110.54 73.17C110.408 73.758 110.122 74.3 109.71 74.74H108.97V68.99ZM118.25 83.17C118.25 84.06 118.45 84.61 118.85 84.81C119.046 84.9032 119.255 84.964 119.47 84.99C119.729 85.0307 119.98 85.1153 120.21 85.24V86.13H112.28V85.24C112.54 85.16 112.78 85.08 113.02 85.02C113.244 84.9647 113.462 84.8877 113.67 84.79C113.865 84.6854 114.026 84.5272 114.134 84.3341C114.243 84.141 114.293 83.9209 114.28 83.7V69.17H118.28L118.25 83.17ZM121.85 69.17C121.957 69.17 122.527 69.11 123.56 68.99V74.71H122.82C122.467 74.39 122.216 73.9724 122.1 73.51C121.93 72.96 121.79 72.51 121.69 72.21C121.586 71.9056 121.441 71.6164 121.26 71.35C121.031 71.0478 120.737 70.801 120.399 70.6279C120.062 70.4548 119.689 70.3598 119.31 70.35V69.14L121.85 69.17Z" fill="#54575C"/>
<path d="M49.48 99.6501C47.5334 99.9634 46.5567 102.383 46.5501 106.91C46.5501 111.43 47.5501 113.85 49.5501 114.16V115.71C48.4818 115.688 47.432 115.428 46.477 114.949C45.522 114.47 44.6861 113.783 44.0301 112.94C42.6698 111.242 41.9606 109.114 42.0301 106.94C41.9714 104.78 42.6484 102.665 43.95 100.94C44.5847 100.09 45.4041 99.3955 46.3465 98.9087C47.2889 98.4219 48.3296 98.1557 49.3901 98.1301L49.48 99.6501ZM56.5301 117.71C56.8114 117.882 57.1309 117.982 57.4601 118C57.8304 117.959 58.1793 117.805 58.4601 117.56L59.3001 118.33C58.7646 119.1 57.9632 119.645 57.0501 119.86C56.6014 119.966 56.1409 120.013 55.6801 120C55.121 120.002 54.5694 119.871 54.0701 119.62C53.5576 119.361 53.0887 119.024 52.6801 118.62C52.2734 118.234 51.9019 117.812 51.5701 117.36C51.2501 116.91 50.94 116.49 50.65 116.11V114.11C52.1834 113.903 53.0834 112.353 53.3501 109.46C53.4201 108.63 53.4601 107.78 53.4601 106.92C53.4601 102.32 52.4834 99.8801 50.5301 99.6001V98.0701C51.5905 98.0957 52.6312 98.3619 53.5736 98.8487C54.516 99.3355 55.3355 100.03 55.9701 100.88C57.2731 102.604 57.9534 104.719 57.9 106.88C57.9429 108.789 57.421 110.667 56.4 112.28C55.9295 113.054 55.3096 113.727 54.5765 114.259C53.8434 114.791 53.0118 115.172 52.1301 115.38C53.2662 115.754 54.3487 116.276 55.3501 116.93C55.8001 117.29 56.1901 117.51 56.5301 117.71Z" fill="#54575C"/>
<path d="M67.9698 115.71C64.3798 115.71 62.1898 114.86 61.3998 113.18C61.1144 112.553 60.9742 111.869 60.9898 111.18V100.71C61.0069 100.501 60.9583 100.293 60.8506 100.113C60.743 99.9341 60.5818 99.793 60.3898 99.71C60.2113 99.6386 60.0274 99.5817 59.8398 99.54C59.6362 99.4973 59.4405 99.423 59.2598 99.32V98.47H66.8498V99.32C66.637 99.4062 66.4158 99.4699 66.1898 99.51C65.9939 99.5394 65.8024 99.5931 65.6198 99.67C65.4352 99.7592 65.2825 99.9029 65.1823 100.082C65.0821 100.261 65.0394 100.466 65.0598 100.67V110.67C65.0598 112.25 65.5698 113.29 66.5898 113.79C67.0234 113.993 67.4917 114.112 67.9698 114.14V115.71ZM69.0298 114.18C69.4938 114.202 69.9572 114.125 70.3886 113.952C70.8199 113.779 71.2091 113.516 71.5298 113.18C72.0298 112.329 72.2534 111.344 72.1698 110.36V100.93C72.1956 100.703 72.1496 100.474 72.0384 100.275C71.9271 100.076 71.7563 99.9169 71.5498 99.82C71.3603 99.7251 71.1583 99.6578 70.9498 99.62C70.728 99.5788 70.5128 99.5082 70.3098 99.41V98.56H75.5298V99.41C75.3532 99.4999 75.1646 99.5639 74.9698 99.6C74.7752 99.64 74.5845 99.6969 74.3998 99.77C74.2077 99.853 74.0465 99.9941 73.9389 100.173C73.8313 100.353 73.7826 100.561 73.7998 100.77V110.18C73.897 111.542 73.5266 112.897 72.7498 114.02C72.265 114.54 71.6806 114.958 71.0313 115.249C70.3819 115.539 69.6809 115.696 68.9698 115.71L69.0298 114.18Z" fill="#54575C"/>
<path d="M81.7299 104.76L79.0499 112.44C78.9363 112.727 78.8721 113.032 78.8599 113.34C78.8541 113.441 78.8688 113.541 78.9032 113.636C78.9376 113.73 78.9909 113.817 79.0599 113.89C79.2051 114.03 79.3792 114.136 79.5699 114.2C79.7823 114.28 79.9993 114.347 80.2199 114.4C80.4438 114.448 80.6594 114.529 80.8599 114.64V115.45H75.1499V114.64C75.3097 114.531 75.485 114.447 75.6699 114.39C75.8612 114.317 76.0481 114.234 76.2299 114.14C76.7021 113.834 77.0551 113.375 77.2299 112.84L80.9699 102.65L81.7299 104.76ZM81.5299 101.07L79.8099 100.55C79.8099 100.21 79.8899 99.9101 79.9099 99.6501C79.9206 99.4114 79.9507 99.1739 79.9999 98.9401C81.1103 98.5303 82.2706 98.2713 83.4499 98.1701C83.6721 98.1411 83.8958 98.1244 84.1199 98.1201C84.2952 98.3249 84.4401 98.5539 84.5499 98.8001L90.0699 112.71C90.2453 113.215 90.5285 113.676 90.8999 114.06C91.2304 114.354 91.6489 114.53 92.0899 114.56V115.44H84.4699V114.71C84.6595 114.592 84.8649 114.501 85.0799 114.44L85.6599 114.27C86.0399 114.15 86.2299 113.96 86.2299 113.67C86.2005 113.386 86.1227 113.108 85.9999 112.85L81.5299 101.07ZM83.8799 110.37H80.9699L81.3599 109.1H83.4199L83.8799 110.37Z" fill="#54575C"/>
<path d="M98.2899 115.45H92.6299V114.57C92.8292 114.482 93.0369 114.415 93.2499 114.37C93.4399 114.328 93.6245 114.264 93.7999 114.18C93.9789 114.086 94.1253 113.941 94.22 113.762C94.3146 113.584 94.3529 113.381 94.3299 113.18V100.78C94.3529 100.579 94.3146 100.376 94.22 100.198C94.1253 100.019 93.9789 99.8737 93.7999 99.78C93.6258 99.6948 93.4407 99.6342 93.2499 99.6C93.0381 99.5503 92.8308 99.4834 92.6299 99.4V98.5H100.08V99.4C99.8586 99.4837 99.6312 99.5505 99.3999 99.6C99.2059 99.6343 99.0175 99.6949 98.8399 99.78C98.6571 99.8707 98.5065 100.015 98.4082 100.194C98.3099 100.373 98.2686 100.577 98.2899 100.78V115.45ZM99.3699 114.29H99.6899C100.429 114.37 101.174 114.222 101.825 113.864C102.476 113.506 103.002 112.957 103.33 112.29C103.5 111.92 103.64 111.56 103.77 111.21C103.9 110.86 104.01 110.52 104.14 110.21C104.237 109.937 104.406 109.695 104.63 109.51H105.44V115.45H99.3699V114.29Z" fill="#54575C"/>
<path d="M108.22 101.37C108.26 100.945 108.198 100.517 108.04 100.12C107.953 99.9795 107.833 99.8627 107.69 99.78C107.576 99.7325 107.459 99.6924 107.34 99.66L106.94 99.57C106.79 99.5359 106.648 99.4749 106.52 99.39V98.49H113.85V99.39C113.725 99.4729 113.586 99.5338 113.44 99.57L113.04 99.66C112.924 99.6907 112.81 99.7309 112.7 99.78C112.584 99.8345 112.487 99.9213 112.42 100.03C112.214 100.445 112.128 100.909 112.17 101.37V112.59C112.124 113.016 112.19 113.447 112.36 113.84C112.437 113.984 112.556 114.103 112.7 114.18C112.813 114.23 112.93 114.271 113.05 114.3C113.33 114.342 113.601 114.434 113.85 114.57V115.45H106.52V114.57C106.719 114.482 106.927 114.415 107.14 114.37C107.327 114.328 107.508 114.264 107.68 114.18C107.861 114.088 108.009 113.943 108.106 113.764C108.202 113.586 108.242 113.382 108.22 113.18V101.37Z" fill="#54575C"/>
<path d="M115.14 98.3201C116.14 98.4301 116.74 98.4901 116.85 98.4901H119.39V99.7101C118.846 99.7255 118.32 99.9142 117.891 100.249C117.461 100.583 117.149 101.046 117 101.57C116.91 101.89 116.81 102.2 116.72 102.5C116.585 103.092 116.295 103.637 115.88 104.08H115.14V98.3201ZM124.43 112.49C124.43 113.38 124.62 113.93 125.02 114.14C125.222 114.226 125.433 114.287 125.65 114.32C125.907 114.355 126.155 114.44 126.38 114.57V115.45H118.46V114.57C118.701 114.48 118.949 114.406 119.2 114.35C119.422 114.296 119.637 114.216 119.84 114.11C120.036 114.009 120.198 113.853 120.307 113.661C120.415 113.469 120.465 113.25 120.45 113.03V98.4901H124.45L124.43 112.49ZM128.03 98.4901C128.14 98.4901 128.71 98.4301 129.73 98.3201V104.07H128.97C128.619 103.744 128.369 103.324 128.25 102.86C128.08 102.31 127.95 101.86 127.84 101.57C127.742 101.26 127.597 100.967 127.41 100.7C127.182 100.399 126.89 100.152 126.554 99.9791C126.218 99.806 125.848 99.7107 125.47 99.7001V98.4901H128.03Z" fill="#54575C"/>
<path d="M139.12 107.51V113.3C139.101 113.493 139.147 113.687 139.25 113.852C139.353 114.017 139.508 114.142 139.69 114.21C139.883 114.288 140.084 114.345 140.29 114.38C140.536 114.419 140.777 114.482 141.01 114.57V115.45H133.22V114.57C133.457 114.483 133.701 114.416 133.95 114.37C134.163 114.329 134.373 114.275 134.58 114.21C134.761 114.148 134.916 114.029 135.021 113.869C135.126 113.71 135.175 113.52 135.16 113.33V108.12L131.46 101.04C131.319 100.695 131.105 100.385 130.832 100.131C130.559 99.8773 130.234 99.6858 129.88 99.57C129.732 99.5308 129.59 99.4701 129.46 99.39V98.49H137.11V99.39C136.932 99.4617 136.748 99.5185 136.56 99.56C136.38 99.5935 136.203 99.6403 136.03 99.7C135.69 99.81 135.51 100 135.51 100.27C135.527 100.493 135.596 100.708 135.71 100.9L136.18 101.79L139.12 107.51ZM138.91 105.14L140.46 102.09C140.77 101.58 140.993 101.023 141.12 100.44C141.129 100.35 141.119 100.259 141.092 100.173C141.064 100.087 141.019 100.008 140.96 99.94C140.837 99.8359 140.694 99.7577 140.54 99.71C140.363 99.6502 140.183 99.6001 140 99.56C139.799 99.5185 139.602 99.4617 139.41 99.39V98.49H144.48V99.34C144.362 99.4349 144.23 99.5123 144.09 99.57C143.943 99.6201 143.802 99.6872 143.67 99.77C143.252 100.03 142.921 100.41 142.72 100.86L139.67 106.71L138.91 105.14Z" fill="#54575C"/>
</g>
<defs>
<clipPath id="clip0_87_1316">
<rect width="185.62" height="172.48" fill="white"/>
</clipPath>
</defs>
</svg>
