<svg width="30" height="30" viewBox="0 0 30 30" fill="none" xmlns="http://www.w3.org/2000/svg">
<path d="M29.9747 11.5673C29.1408 5.60507 24.3944 0.858246 18.4325 0.0258473C17.6725 -0.0818567 16.8986 0.150493 16.3124 0.65824C15.7216 1.17214 15.3831 1.91226 15.3831 2.69234V11.9365C15.3831 13.4136 16.5848 14.6167 18.0633 14.6167H27.3084C28.0869 14.6167 28.8285 14.2782 29.3408 13.6889C29.8501 13.1027 30.0808 12.3304 29.9747 11.5673ZM27.5992 12.1719C27.5562 12.2226 27.4592 12.3073 27.3084 12.3073H18.0648C17.8586 12.3073 17.6925 12.1412 17.6925 11.935V2.69084C17.6925 2.53851 17.7771 2.44167 17.8279 2.39859C17.8694 2.36166 17.951 2.30618 18.0648 2.30618C18.0802 2.30618 18.0971 2.30765 18.1125 2.30919C18.114 2.30919 18.114 2.30919 18.114 2.30919C23.0589 3.00003 26.9961 6.93892 27.6885 11.8856C27.7085 12.0241 27.6423 12.1242 27.5992 12.1719ZM24.299 16.0107H15.1431C14.5077 16.0107 13.9892 15.4937 13.9892 14.8568V5.70048C13.9892 4.90809 13.6369 4.16482 13.023 3.66168C12.4214 3.17086 11.6445 2.97238 10.8875 3.1247C7.37653 3.8294 4.22402 5.96036 2.23775 8.96838C0.229943 12.0102 -0.457841 15.6907 0.300665 19.3295C1.36996 24.4608 5.53638 28.6275 10.669 29.6984C11.6352 29.8999 12.6045 30 13.563 30C16.217 30 18.7941 29.2367 21.0296 27.7612C24.0375 25.7748 26.1683 22.6237 26.873 19.1126C27.0253 18.3587 26.8315 17.5787 26.3376 16.9771C25.8345 16.3631 25.0914 16.0107 24.299 16.0107ZM19.7588 25.8364C17.234 27.5043 14.1707 28.0751 11.1413 27.4396C6.89339 26.5534 3.44545 23.1055 2.56079 18.8588C1.92844 15.8262 2.4977 12.7658 4.16395 10.2394C5.81327 7.74063 8.42887 5.97281 11.3413 5.38813C11.3598 5.38506 11.3752 5.38344 11.3906 5.38344C11.4644 5.38344 11.5213 5.41574 11.5583 5.44805C11.5952 5.47728 11.6798 5.562 11.6798 5.70048V14.8568C11.6798 16.7662 13.2337 18.3187 15.1415 18.3187H24.2975C24.436 18.3187 24.5205 18.4033 24.5497 18.4402C24.5867 18.4863 24.6283 18.5618 24.6083 18.6603C24.0251 21.5714 22.2574 24.187 19.7588 25.8364Z" fill="#6D863A"/>
</svg>
