<svg width="21" height="21" viewBox="0 0 21 21" fill="none" xmlns="http://www.w3.org/2000/svg">
<path d="M10.5 0C4.70986 0 0 4.70986 0 10.5C0 16.2901 4.70986 21 10.5 21C16.2901 21 21 16.2901 21 10.5C21 4.70986 16.2901 0 10.5 0ZM10.5 19.5349C5.51763 19.5349 1.46512 15.4824 1.46512 10.5C1.46512 5.51763 5.51763 1.46512 10.5 1.46512C15.4824 1.46512 19.5349 5.51763 19.5349 10.5C19.5349 15.4824 15.4824 19.5349 10.5 19.5349ZM13.9479 12.9125C14.2341 13.1987 14.2341 13.6627 13.9479 13.9489C13.8053 14.0915 13.6178 14.1637 13.4302 14.1637C13.2427 14.1637 13.0551 14.0925 12.9125 13.9489L9.9823 11.0187C9.84458 10.8809 9.76744 10.6943 9.76744 10.501V5.61723C9.76744 5.21286 10.0956 4.88467 10.5 4.88467C10.9044 4.88467 11.2326 5.21286 11.2326 5.61723V10.1972L13.9479 12.9125Z" fill="#6D863A"/>
</svg>
