<svg width="10" height="16" viewBox="0 0 10 16" fill="none" xmlns="http://www.w3.org/2000/svg">
<path d="M2.56124 16V8.18617C2.56124 8.15893 2.56124 8.13619 2.56124 8.09533H0V5.10329H2.55226C2.55226 4.78093 2.57925 4.47216 2.59726 4.16796C2.61847 3.4391 2.78215 2.72168 3.0789 2.05677C3.32328 1.54219 3.68761 1.09495 4.14071 0.753372C4.5938 0.411792 5.12219 0.186011 5.68067 0.0953285C5.99971 0.0339421 6.32363 0.00204565 6.64843 0C7.52168 0 8.39945 0 9.2772 0H9.45723V2.83314H9.2772C8.75055 2.83314 8.22389 2.83314 7.69724 2.83314C7.4946 2.82485 7.29351 2.87192 7.11523 2.96943C6.93695 3.06693 6.78811 3.21123 6.68445 3.38704C6.61323 3.50147 6.56718 3.63001 6.54941 3.76392C6.5179 4.18617 6.5089 4.61294 6.49089 5.05335H9.11065V8.04539H6.5179C6.5179 8.12712 6.5179 8.19066 6.5179 8.25423V15.7548C6.5179 15.8229 6.5179 15.891 6.5179 15.9592L2.56124 16ZM0.648188 5.75258V7.44155H3.21844V15.3326H5.85169V7.43701H8.45345V5.74349H5.8607C5.85651 5.71337 5.85651 5.68277 5.8607 5.65265C5.8607 5.08057 5.8607 4.50853 5.8607 3.93646C5.86695 3.54114 6.00903 3.16027 6.2627 2.85886C6.51637 2.55745 6.86591 2.35418 7.25161 2.28378C7.69982 2.2299 8.15064 2.20107 8.602 2.19749H8.79105V0.662866H8.71904C7.95832 0.662866 7.19309 0.662866 6.43237 0.662866C5.68505 0.644841 4.95738 0.905327 4.38852 1.39451C3.81966 1.8837 3.44953 2.56728 3.34897 3.31444C3.22474 4.05358 3.1765 4.80364 3.20495 5.55277V5.75706L0.648188 5.75258Z" fill="#6D863A"/>
</svg>
