<svg width="644" height="653" viewBox="0 0 644 653" fill="none" xmlns="http://www.w3.org/2000/svg">
<path d="M338.671 11C338.385 11.0964 338.313 11.265 338.456 11.5299H309.605C309.748 11.265 309.653 11.0964 309.366 11H338.671Z" fill="#6D863A" fill-opacity="0.1"/>
<path d="M309.601 11.5295H338.452C345.277 11.4572 352.055 12.2521 358.832 12.9747C379.474 15.2149 399.711 19.5025 419.518 25.8134C456.794 37.6886 490.704 55.9471 521.155 80.6609C556.736 109.518 584.705 144.59 605.132 185.803C617.303 210.349 626.061 236.098 631.55 262.956C637.229 290.801 639.329 318.96 637.611 347.359C633.435 415.961 610.096 477.119 566.878 530.256C531.583 573.662 487.674 605.241 435.674 625.306C416.845 632.581 397.492 637.856 377.661 641.3C355.777 645.106 333.679 646.407 311.486 645.564C285.641 644.552 260.274 640.481 235.455 633.086C192.643 620.32 154.246 599.316 120.335 570.025C80.9121 535.989 51.5594 494.583 32.2296 445.998C25.309 428.607 20.1067 410.661 16.3839 392.282C11.7304 369.375 9.46334 346.227 10.1077 322.886C12.4702 236.58 43.7081 162.655 104.227 101.593C134.081 71.4595 168.994 48.8412 208.274 33.1602C228.439 25.1149 249.225 19.2375 270.655 15.6485C283.565 13.4806 296.523 11.8667 309.624 11.5536M630.309 328.113C631.001 159.042 495.095 19.7434 326.592 18.5631C155.94 17.3587 19.6532 155.525 17.5293 324.861C15.3338 498.605 155.105 637.952 322.774 638.265C493.282 638.578 630.691 500.099 630.333 328.113" fill="#6D863A" fill-opacity="0.1"/>
<path d="M553.113 491.258C556.525 489.114 560.009 487.79 564.019 489.692C568.553 491.86 570.82 496.1 569.746 500.725C568.744 505.109 563.78 508.746 559.103 508.553C554.521 508.36 550.87 504.795 550.249 499.857C550.058 498.316 550.01 496.75 549.867 494.679C547.385 497.834 545.19 500.604 542.994 503.374C540.847 506.096 538.675 508.842 536.336 511.805C539.081 511.66 541.396 510.865 543.83 511.323C548.841 512.214 552.731 516.55 552.468 521.127C552.182 526.113 547.743 530.16 542.422 530.328C537.219 530.497 533.234 526.98 532.685 521.657C532.542 520.211 532.685 518.718 532.685 516.743C527.077 521.56 522.304 526.522 517.484 532.135C521.827 531.412 525.669 530.762 528.939 533.821C530.8 535.555 532.399 537.434 532.637 540.084C533.091 545.166 528.843 550.345 523.903 550.755C520.109 551.068 516.792 550.152 514.739 546.587C512.878 543.384 513.379 539.843 513.689 535.941C507.461 539.795 503.118 545.19 497.414 549.261C499.634 550.104 501.686 549.695 503.643 550.273C508.081 551.598 511.351 555.548 511.184 559.763C511.017 564.099 506.984 568.387 502.402 569.085C496.579 569.976 492.689 566.725 491.711 560.149C491.448 558.438 491.353 556.728 491.138 554.681C486.365 558.005 481.712 561.233 476.843 564.629C478.896 565.472 480.733 566.147 482.499 567.014C485.959 568.724 488.227 571.374 487.964 575.468C487.725 579.539 486.127 582.96 482.165 584.574C478.395 586.091 474.72 585.73 471.426 583.152C469.469 581.611 468.777 579.371 468.563 576.962C468.515 576.336 468.539 575.709 468.491 575.083C468.229 571.446 466.964 570.723 463.933 572.602C461.165 574.336 458.373 575.998 455.509 577.564C455.032 577.829 454.101 577.781 454.244 578.624C454.364 579.25 455.008 579.636 455.604 579.78C457.394 580.19 458.874 581.105 460.186 582.382C463.575 585.658 464.434 589.463 462.644 593.414C460.998 597.051 456.368 599.58 452.264 599.074C446.441 598.352 443.41 594.449 444.03 588.524C444.102 587.753 444.078 586.958 443.983 586.212C443.768 584.453 442.718 583.923 441.191 584.622C437.468 586.308 433.769 588.09 429.951 589.897C431.908 591.679 433.96 593.076 435.487 595.076C438.733 599.267 438.255 604.759 434.318 608.059C430.189 611.528 423.746 611.19 420.453 607.312C417.828 604.229 418.52 600.568 418.878 597.003C418.949 596.232 419.236 595.485 419.474 594.474C413.986 594.714 409.38 597.581 404.297 598.713C404.082 598.978 403.891 599.243 403.676 599.508C405.037 600.616 406.54 601.579 407.781 602.832C410.406 605.506 411.671 608.758 410.382 612.443C409.022 616.297 406.039 618.417 402.101 619.115C396.302 620.127 390.551 614.466 391.434 608.637C391.673 607.095 391.935 605.554 392.413 604.06C392.89 602.615 392.532 602.158 391.1 602.471C387.33 603.314 383.488 603.82 379.812 605.12C378.595 605.554 378.428 605.939 379.12 607.047C380.314 608.95 381.507 610.901 382.39 612.973C384.752 618.465 381.578 624.053 375.708 624.993C368.143 626.197 362.988 620.946 364.349 613.406C364.516 612.419 364.778 611.431 365.065 610.468C365.804 607.866 365.637 607.553 362.845 607.818C359.838 608.083 356.855 608.565 353.872 609.022C352.393 609.239 351.963 610.106 352.608 611.552C353.681 613.96 354.851 616.321 355.089 619.043C355.567 624.125 350.603 629.979 345.544 630.075C345.305 630.075 345.09 630.051 344.852 630.003C340.58 629.256 333.636 620.753 336.595 615.574C336.905 615.044 337.048 614.418 337.287 613.84C338.79 610.323 338.719 610.082 334.924 610.227C331.75 610.347 328.624 610.925 325.45 611.214C324.257 611.335 323.923 611.648 324.591 612.756C325.116 613.623 325.522 614.539 325.928 615.478C328.195 620.681 327.025 625.065 322.443 628.461C318.148 631.641 316.31 631.4 312.325 627.811C307.338 623.331 305.763 621.379 310.106 613.166C310.535 612.347 310.965 611.552 311.514 610.54C306.359 609.817 301.395 609.649 296.288 609.432C297.076 611.72 297.887 613.72 298.46 615.815C299.629 620.127 298.245 623.764 294.737 626.004C291.253 628.22 286.122 627.739 282.829 624.872C279.441 621.909 278.653 618.489 280.395 614.346C281.159 612.539 282.209 610.901 283.378 609.336C283.927 608.589 284.237 607.866 283.044 607.649C279.011 606.927 274.978 606.228 270.945 605.698C269.776 605.554 270.277 606.734 270.372 607.264C270.73 609.336 270.993 611.431 271.017 613.551C271.04 617.285 269.537 620.031 266.124 621.596C262.593 623.21 259.252 623.186 256.102 620.681C251.353 616.899 250.637 612.78 253.835 607.577C254.407 606.638 255.028 605.747 255.672 604.879C257.199 602.808 257.199 602.712 254.646 601.917C251.615 600.977 248.584 600.086 245.506 599.267C244.742 599.074 243.835 598.255 243.143 599.05C242.428 599.869 243.048 600.833 243.406 601.676C245.196 605.915 244.074 610.251 240.494 612.949C234.29 617.598 226.224 614.442 224.697 606.758C224.148 604.012 225.007 601.724 226.94 599.725C231.307 595.244 230.997 594.16 225.126 592.258C222.406 591.39 219.757 590.306 216.941 589.295C216.654 590.764 217.251 592.065 217.49 593.39C218.444 598.761 216.153 602.808 211.094 604.59C206.393 606.252 201.739 604.301 199.401 599.652C197.253 595.389 198.542 590.355 202.575 587.44C205.128 585.585 205.176 584.911 202.861 582.815C200.498 580.671 197.706 579.467 194.604 578.865C192.886 578.528 192.432 579.058 192.599 580.816C193.077 585.947 190.977 589.849 186.848 591.8C182.41 593.92 177.637 592.498 174.845 588.307C172.005 584.02 172.554 579.202 176.205 575.806C177.923 574.216 180.095 573.301 182.338 571.807C178.162 569.085 174.296 566.291 170.167 563.979C168.664 563.136 168.449 565.014 168.712 566.098C169.261 568.459 168.759 570.603 167.614 572.626C165.204 576.986 159.572 578.913 155.157 576.938C151.028 575.083 148.236 568.748 149.644 564.436C150.408 562.148 152.055 560.727 154.155 559.667C159.166 557.114 159.19 555.548 154.465 552.296C151.72 550.417 149.095 548.346 146.28 546.274C146.28 547.695 146.28 549.044 146.28 550.369C146.208 555.717 143.082 559.595 138.118 560.558C134.061 561.353 129.694 558.703 127.785 554.295C125.136 548.201 129.622 541.36 136.662 540.758C137.474 540.686 138.357 540.999 138.929 540.638C134.658 536.085 130.386 531.509 125.637 526.45C125.637 528.69 125.661 530.184 125.637 531.701C125.518 536.808 121.556 540.734 116.378 540.855C111.152 540.999 106.832 537.049 106.594 531.942C106.355 527.028 107.93 524.595 112.727 522.717C114.851 521.898 117.07 521.271 119.576 520.476C115.757 516.092 112.059 511.853 108.36 507.614C107.119 508.601 107.166 509.782 107.047 510.962C106.474 516.068 102.775 519.778 98.1936 519.874C92.5855 520.019 88.648 516.743 87.8128 511.251C87.073 506.361 89.8173 502.17 94.8288 500.604C96.0936 500.219 97.3822 499.93 98.6231 499.544C100.27 499.014 100.962 498.051 99.7925 496.413C97.1197 492.679 94.4708 488.946 91.6549 484.995C90.748 486.465 90.581 487.91 90.2707 489.283C89.3639 493.498 86.6434 496.003 82.5865 496.75C79.0308 497.401 75.7853 496.365 73.4705 493.354C70.9409 490.03 70.6546 486.344 72.3012 482.538C73.4705 479.841 75.7376 478.66 78.4342 478.082C81.0831 477.504 83.7797 477.528 86.8821 477.456C83.6604 471.771 80.5581 466.327 77.2649 460.546C76.2626 463.509 75.5466 466.159 74.0671 468.471C71.7045 472.181 67.8863 473.65 63.8294 472.446C60.0112 471.314 57.2191 467.411 57.0759 463.027C56.9328 458.716 59.0328 455.175 62.684 453.995C65.4761 453.079 68.3397 453.392 71.1796 453.971C72.0864 454.139 72.9455 454.428 74.3535 454.789C71.3466 448.189 68.5307 441.951 65.5477 435.423C64.6886 437.446 64.0203 439.301 63.1374 441.011C60.393 446.407 55.5486 448.238 50.6088 445.781C45.836 443.42 43.9507 437.711 46.194 432.557C47.4826 429.57 49.869 428.245 52.9236 427.956C55.31 427.715 57.7203 427.835 60.1067 428.197C62.684 428.582 62.9942 428.245 62.1828 425.619C61.0612 422.054 59.7726 418.538 58.651 414.973C53.9736 400.087 50.4418 384.911 48.0315 369.471C45.2871 351.887 44.1655 334.207 44.8337 316.43C45.5973 295.98 48.6758 275.891 54.0929 256.163C63.9965 220.176 80.4388 187.417 102.298 157.428C135.469 111.878 178.687 80.1307 231.856 62.1855C248.608 56.5249 265.719 52.4541 283.163 49.7081C301.634 46.8176 320.248 45.5168 338.957 46.3117C395.109 48.6723 445.176 67.9665 489.897 101.93C515.909 121.682 538.508 144.758 556.716 172.073C570.533 192.789 581.177 215.045 588.813 238.796C594.183 255.537 597.905 272.639 600.316 290.078C602.75 307.711 603.657 325.415 602.798 343.192C600.865 383.779 590.364 422.078 571.894 458.162C570.223 461.414 568.529 464.641 567.431 468.158C567.359 468.303 567.288 468.447 567.216 468.616C567.383 468.592 567.55 468.544 567.741 468.519C570.963 466.376 574.256 464.617 578.361 465.846C583.062 467.267 585.592 470.687 585.234 475.312C584.852 480.226 581.01 484.297 576.237 484.851C571.894 485.357 567.574 482.514 566.166 478.203C565.45 476.011 565.522 473.746 565.14 471.217C561.036 477.817 556.931 484.417 552.826 490.993C552.779 491.186 552.659 491.475 552.731 491.523C552.97 491.692 553.089 491.523 553.16 491.282M64.8556 328.498C64.8317 472.855 178.735 589.174 321.274 590.547C468.491 591.944 583.325 471.747 583.468 328.619C583.611 185.538 466.582 64.9796 321.608 66.4972C179.928 67.9906 64.8317 184.117 64.8556 328.498Z" fill="#6D863A" fill-opacity="0.1"/>
<path d="M477.917 66.8604C483.334 66.9327 487.988 71.5575 487.892 76.8086C487.797 82.1079 482.881 86.6845 477.392 86.5641C472.214 86.4677 468.062 82.132 468.062 76.8568C468.062 71.3889 472.62 66.7881 477.917 66.8363" fill="#6D863A" fill-opacity="0.1"/>
<path d="M327.053 32.0526C327.076 36.4607 322.566 42.314 318.366 43.4461C317.34 43.711 316.362 43.6629 315.407 43.3497C311.469 42.0731 307.293 35.9307 307.556 31.8117C307.794 27.6687 311.422 23.9833 316.242 22.9957C321.635 21.8636 327.029 26.4161 327.077 32.0767" fill="#6D863A" fill-opacity="0.1"/>
<path d="M192.74 69.5086C192.74 74.8079 188.229 79.5772 183.17 79.5772C177.896 79.5772 173.052 74.7356 173.052 69.4604C173.052 64.2816 177.801 59.6567 183.146 59.6567C188.539 59.6567 192.74 63.9684 192.716 69.5086" fill="#6D863A" fill-opacity="0.1"/>
<path d="M45.5225 400.137C50.8441 400.137 55.0203 404.545 55.0203 410.158C55.0203 415.794 50.7964 420.13 45.26 420.202C39.819 420.25 35.9053 416.083 35.9053 410.206C35.9053 404.352 39.9621 400.113 45.5225 400.137Z" fill="#6D863A" fill-opacity="0.1"/>
<path d="M97.668 152.201C92.0123 152.201 87.6929 147.962 87.669 142.446C87.6452 136.833 91.9645 132.281 97.3339 132.281C102.679 132.281 107.023 136.809 107.047 142.446C107.047 148.01 103.014 152.225 97.668 152.225" fill="#6D863A" fill-opacity="0.1"/>
<path d="M158.859 94.1989C153.418 94.0544 149.194 89.4536 149.361 83.8653C149.528 78.6865 154.397 74.1339 159.527 74.3507C164.706 74.5434 169.073 79.3127 168.93 84.6361C168.81 89.8149 164.038 94.3434 158.835 94.1748" fill="#6D863A" fill-opacity="0.1"/>
<path d="M500.804 102.509C495.458 102.533 491.33 98.5347 491.258 93.2113C491.163 87.8157 495.697 82.7332 500.661 82.6609C505.839 82.5887 510.875 87.5507 510.898 92.7296C510.898 98.0047 506.293 102.485 500.804 102.509Z" fill="#6D863A" fill-opacity="0.1"/>
<path d="M585.232 177.639C585.208 182.552 580.578 187.009 575.471 187.009C569.959 187.009 565.424 182.649 565.496 177.422C565.568 172.171 570.221 167.16 575.065 167.136C580.244 167.112 585.279 172.315 585.255 177.639" fill="#6D863A" fill-opacity="0.1"/>
<path d="M532.589 131.439C532.589 126.212 537.004 121.563 541.991 121.491C547.122 121.419 552.587 126.718 552.515 131.704C552.444 136.738 547.695 140.978 542.158 140.954C536.694 140.954 532.565 136.835 532.589 131.439Z" fill="#6D863A" fill-opacity="0.1"/>
<path d="M90.414 165.331C90.3662 170.991 86.19 175.231 80.7729 175.159C75.2842 175.086 71.2751 170.871 71.2989 165.186C71.3228 159.694 75.6422 155.142 80.8206 155.118C86.1423 155.118 90.4617 159.694 90.414 165.331Z" fill="#6D863A" fill-opacity="0.1"/>
<path d="M559.464 163.138C554.023 163.09 550.086 159.067 550.181 153.624C550.277 148.132 554.668 143.507 559.775 143.555C565.001 143.603 569.965 148.565 569.941 153.768C569.941 158.923 565.144 163.186 559.488 163.138" fill="#6D863A" fill-opacity="0.1"/>
<path d="M443.814 62.7414C443.885 56.9844 447.679 53.2267 453.359 53.3231C458.872 53.4194 463.668 57.8034 463.668 62.6932C463.644 67.8479 458.18 72.8341 452.715 72.6895C447.512 72.5691 443.742 68.3779 443.814 62.7414Z" fill="#6D863A" fill-opacity="0.1"/>
<path d="M599.077 433.498C594.018 433.498 589.198 428.464 589.245 423.309C589.293 418.299 594.161 413.457 599.173 413.457C604.184 413.457 608.79 418.13 608.814 423.237C608.814 428.56 604.137 433.522 599.077 433.498Z" fill="#6D863A" fill-opacity="0.1"/>
<path d="M208.18 66.8597C202.882 66.8597 198.443 62.3313 198.467 56.9597C198.491 51.9495 203.383 46.867 208.227 46.7948C213.31 46.7225 217.797 51.4678 217.773 56.8634C217.773 62.3794 213.477 66.8357 208.18 66.8357" fill="#6D863A" fill-opacity="0.1"/>
<path d="M624.63 340.181C624.606 345.889 620.669 350.105 615.418 350.081C609.834 350.057 605.419 345.697 605.467 340.253C605.515 334.881 610.335 330.16 615.705 330.233C620.836 330.305 624.654 334.544 624.63 340.181Z" fill="#6D863A" fill-opacity="0.1"/>
<path d="M42.9495 326.163C42.9495 331.8 38.8449 336.039 33.4039 335.991C28.1061 335.943 23.4287 331.27 23.4287 325.995C23.4287 320.816 27.7958 316.576 33.213 316.528C38.7971 316.48 42.9256 320.575 42.9495 326.139" fill="#6D863A" fill-opacity="0.1"/>
<path d="M261.425 49.0817C256.032 49.0335 251.617 44.5532 251.712 39.2299C251.808 33.8824 256.39 29.643 262.022 29.7153C267.224 29.7875 271.782 34.3883 271.615 39.4708C271.448 44.5051 266.556 49.1299 261.425 49.0817Z" fill="#6D863A" fill-opacity="0.1"/>
<path d="M427.632 41.8557C433.121 42.0002 437.75 46.4805 437.583 51.4907C437.416 56.5491 431.975 61.7039 426.916 61.6075C422.239 61.5112 417.919 56.4046 418.039 51.1294C418.158 45.7338 422.31 41.7352 427.632 41.8557Z" fill="#6D863A" fill-opacity="0.1"/>
<path d="M400.932 33.3535C406.54 33.3535 410.788 37.1834 410.812 42.3141C410.86 47.6375 405.991 52.5032 400.503 52.6236C395.252 52.744 391.052 48.2878 391.076 42.5791C391.076 37.2075 395.181 33.3535 400.932 33.3535Z" fill="#6D863A" fill-opacity="0.1"/>
<path d="M35.9326 241.879C35.9326 236.459 40.1565 232.196 45.4782 232.244C50.8476 232.268 55.1192 236.845 55.0477 242.481C54.9761 247.997 50.776 252.261 45.5498 252.164C40.2759 252.068 35.9326 247.419 35.9565 241.879" fill="#6D863A" fill-opacity="0.1"/>
<path d="M599.34 238.339C593.779 238.339 589.221 233.955 589.245 228.656C589.245 223.164 593.636 218.924 599.292 218.972C604.637 219.021 608.766 223.356 608.814 228.969C608.861 234.244 604.709 238.363 599.34 238.339Z" fill="#6D863A" fill-opacity="0.1"/>
<path d="M335.733 33.0411C335.733 27.6695 340.101 23.7192 345.852 23.8396C351.293 23.9359 355.421 27.8381 355.445 32.8725C355.445 38.2199 350.553 43.0856 345.136 43.1097C339.91 43.1338 335.71 38.6535 335.733 33.0411Z" fill="#6D863A" fill-opacity="0.1"/>
<path d="M616.467 256.044C616.467 261.609 612.554 265.679 607.256 265.607C601.767 265.559 597.281 261.199 597.329 255.996C597.376 250.625 602.173 245.735 607.375 245.735C612.601 245.735 616.491 250.143 616.467 256.044Z" fill="#6D863A" fill-opacity="0.1"/>
<path d="M244.291 46.9145C244.291 51.9488 239.399 56.9108 234.459 56.9108C229.472 56.9108 224.699 51.9488 224.77 46.8422C224.842 41.7115 229.686 36.9422 234.722 37.0385C239.757 37.1349 244.315 41.832 244.291 46.9145Z" fill="#6D863A" fill-opacity="0.1"/>
<path d="M616.756 395.968C616.708 401.749 612.198 406.374 606.709 406.277C601.578 406.181 597.235 401.629 597.283 396.377C597.33 391.03 601.912 386.766 607.52 386.815C613.081 386.887 616.803 390.548 616.756 395.968Z" fill="#6D863A" fill-opacity="0.1"/>
<path d="M289.632 25.0186C294.906 25.0186 299.059 29.1857 299.059 34.5091C299.059 40.0011 294.668 44.3609 289.083 44.3368C283.953 44.3368 279.251 39.5434 279.299 34.4127C279.347 29.4989 284.239 25.0426 289.632 25.0186Z" fill="#6D863A" fill-opacity="0.1"/>
<path d="M48.1778 382.528C48.1539 388.092 43.9061 392.62 38.7038 392.62C33.5492 392.62 28.9673 387.947 29.015 382.672C29.0389 377.277 33.5014 372.748 38.7276 372.796C44.097 372.844 48.2017 377.084 48.1778 382.504" fill="#6D863A" fill-opacity="0.1"/>
<path d="M106.592 121.153C106.592 115.565 110.744 111.181 116.042 111.109C121.077 111.061 125.707 115.974 125.683 121.37C125.659 126.718 121.555 130.885 116.304 130.861C110.816 130.861 106.592 126.597 106.592 121.129" fill="#6D863A" fill-opacity="0.1"/>
<path d="M522.231 120.454C516.647 120.454 513.139 116.961 513.139 111.493C513.139 105.712 517.172 101.28 522.422 101.28C527.648 101.28 532.588 106.049 532.588 111.156C532.588 116.479 528.149 120.502 522.207 120.478" fill="#6D863A" fill-opacity="0.1"/>
<path d="M126.901 101.907C126.901 96.7524 131.77 91.7422 136.805 91.7422C141.769 91.7422 146.398 96.5597 146.494 101.811C146.565 107.014 142.318 111.301 137.067 111.301C131.531 111.301 126.925 107.038 126.925 101.907" fill="#6D863A" fill-opacity="0.1"/>
<path d="M382.934 36.1482C382.958 42.122 378.686 46.7227 373.15 46.6745C367.971 46.6504 363.795 42.2424 363.747 36.7745C363.7 31.138 367.685 27.2599 373.532 27.3081C379.474 27.3321 382.91 30.5599 382.934 36.1482Z" fill="#6D863A" fill-opacity="0.1"/>
<path d="M48.0767 269.967C48.0767 275.411 44.1392 279.481 38.7937 279.481C33.4959 279.481 29.0094 275.001 29.0333 269.678C29.0333 264.499 33.7107 259.802 38.8175 259.802C44.0438 259.802 48.0529 264.21 48.0767 269.967Z" fill="#6D863A" fill-opacity="0.1"/>
<path d="M605.565 312.072C605.565 306.676 610.027 302.244 615.516 302.172C620.528 302.124 624.608 306.532 624.632 312C624.656 317.66 620.719 321.828 615.349 321.803C609.932 321.779 605.565 317.419 605.541 312.072" fill="#6D863A" fill-opacity="0.1"/>
<path d="M588.762 440.459C594.251 440.435 598.212 444.241 598.188 449.516C598.188 454.719 593.535 459.657 588.595 459.729C583.631 459.826 578.572 454.743 578.572 449.661C578.572 444.361 582.868 440.459 588.762 440.435" fill="#6D863A" fill-opacity="0.1"/>
<path d="M612.722 293.188C607.042 293.043 602.604 288.707 602.723 283.408C602.842 278.181 607.687 273.749 613.08 273.918C618.068 274.062 622.363 278.759 622.172 283.842C621.957 289.406 617.996 293.332 612.698 293.188" fill="#6D863A" fill-opacity="0.1"/>
<path d="M622.034 368.534C621.891 373.881 617.452 378.578 612.608 378.506C607.62 378.41 602.585 373.207 602.752 368.293C602.919 363.138 607.787 358.754 613.228 358.874C618.407 358.995 622.177 363.138 622.034 368.534Z" fill="#6D863A" fill-opacity="0.1"/>
<path d="M64.3505 215.528C64.3267 221.14 60.2459 225.163 54.614 225.115C49.1969 225.067 45.2832 220.996 45.2832 215.383C45.2832 209.771 49.3639 205.724 54.972 205.772C60.3175 205.821 64.3744 210.036 64.3505 215.528Z" fill="#6D863A" fill-opacity="0.1"/>
<path d="M578.573 202.279C578.62 197.1 583.083 192.692 588.285 192.692C593.44 192.692 598.308 197.582 598.237 202.713C598.189 207.747 593.726 211.987 588.5 211.962C583.274 211.938 578.525 207.314 578.573 202.279Z" fill="#6D863A" fill-opacity="0.1"/>
<path d="M25.148 297.451C25.3389 292.031 29.6583 287.984 35.0277 288.201C40.3494 288.394 44.5495 292.898 44.3347 298.149C44.0961 303.593 39.6574 307.712 34.1925 307.519C28.8708 307.327 24.9333 302.967 25.148 297.451Z" fill="#6D863A" fill-opacity="0.1"/>
<path d="M57.1494 189.707C57.1733 184.046 61.1347 179.807 66.4087 179.807C71.8974 179.807 76.2645 184.215 76.3122 189.755C76.3599 195.15 72.1837 199.269 66.6712 199.245C61.1108 199.245 57.1255 195.247 57.1733 189.707" fill="#6D863A" fill-opacity="0.1"/>
<path d="M25.214 354.683C25.1901 349.432 29.5572 344.71 34.5209 344.662C39.7233 344.614 44.3529 349.215 44.3529 354.418C44.3529 359.428 39.7233 364.221 34.7834 364.342C29.6527 364.462 25.2378 360.006 25.214 354.659" fill="#6D863A" fill-opacity="0.1"/>
<path d="M567.706 468.481C567.535 468.506 567.364 468.555 567.169 468.58C567.242 468.432 567.315 468.284 567.389 468.111C567.511 468.21 567.608 468.333 567.706 468.457" fill="#6D863A" fill-opacity="0.1"/>
<path d="M553.127 491.267C553.054 491.489 552.931 491.686 552.687 491.514C552.614 491.465 552.761 491.144 552.785 490.971C552.907 491.07 553.005 491.169 553.102 491.267" fill="#6D863A" fill-opacity="0.1"/>
<path d="M330.887 119.179C334.849 115.036 339.001 111.158 345.134 110.796C348.618 110.604 351.888 111.447 354.918 113.133C356.302 113.904 357.209 115.132 356.469 116.818C355.753 118.456 354.298 117.734 353.224 117.493C347.902 116.312 343.153 117.806 338.571 120.383C337.688 120.889 336.877 121.563 336.519 122.551C335.97 124.02 336.257 125.201 337.975 125.562C338.882 125.755 339.836 125.755 340.743 125.923C342.867 126.333 344.8 126.815 345.969 129.151C347.854 132.909 351.434 134.378 355.324 134.836C359.787 135.366 364.177 136.088 368.545 137.196C373.079 138.353 377.589 138.28 381.622 135.221C383.34 133.92 385.178 135.004 386.944 135.366C388.137 135.607 389.33 136.329 390.309 134.932C391.215 133.583 390.69 132.403 389.903 131.271C386.681 126.55 382.171 123.731 376.778 122.238C375.728 121.949 374.534 121.78 374.558 120.311C374.558 118.89 375.656 118.649 376.754 118.336C383.555 116.457 390.118 119.203 394.246 125.707C395.248 127.272 396.203 128.862 397.372 130.38C397.635 127.489 396.99 124.815 395.678 122.31C394.676 120.383 393.459 118.577 391.764 117.131C390.738 116.264 389.712 115.277 390.929 113.783C392.122 112.338 393.602 112.049 394.986 113.253C396.609 114.674 398.017 116.361 399.544 117.926C399.735 118.143 399.973 118.312 400.236 118.528C400.832 117.83 400.427 117.348 400.14 116.818C399.496 115.59 398.804 114.337 398.303 113.036C397.348 110.604 397.969 109.351 400.451 108.652C401.787 108.267 403.171 108.002 404.531 107.761C410.211 106.677 412.979 103.16 412.693 97.3795C412.645 96.6809 412.55 95.9824 412.502 95.2838C412.43 94.3444 412.765 93.5736 413.695 93.2364C414.53 92.9233 415.246 93.2364 415.724 93.959C417.537 96.7291 420.377 97.3795 423.36 97.789C426.272 98.1744 426.677 99.2342 424.887 101.571C423.814 102.992 422.62 104.341 421.618 105.81C420.162 107.906 419.995 110.17 421.188 112.458C422.191 114.385 423.384 116.216 424.386 118.143C425.914 121.009 425.126 122.912 422.119 123.972C420.592 124.502 419.065 125.08 417.561 125.634C417.227 125.755 416.941 125.971 416.225 126.381C418.921 126.79 421.069 126.092 423.241 126.02C424.41 125.971 425.579 126.02 426.606 126.694C427.775 127.441 427.87 128.645 427.584 129.825C427.25 131.198 426.057 131.247 424.959 131.174C419.995 130.934 415.676 132.547 412.001 135.871C411.786 136.064 411.595 136.329 411.261 136.739C413.194 136.715 414.674 135.847 416.249 135.414C423.814 133.318 430.806 136.04 434.886 142.785C434.934 142.857 434.958 142.929 435.006 143.001C435.674 144.061 436.032 145.145 435.006 146.181C433.908 147.289 433.025 146.374 432.142 145.796C427.56 142.809 422.644 141.291 417.156 142.351C416.177 142.544 415.199 142.833 414.268 143.146C413.528 143.387 412.741 143.676 412.693 144.639C412.645 145.531 413.266 146.205 413.958 146.446C418.635 148.156 420.377 151.938 421.284 156.466C421.761 158.755 423.408 160.296 425.412 161.26C429.851 163.38 433.813 166.198 437.607 169.305C441.115 172.196 445.005 173.231 449.539 171.569C451.806 170.726 453.286 172.99 455.123 173.858C456.149 174.339 456.841 175.905 458.321 174.893C459.705 173.954 459.347 172.485 459.108 171.256C458.13 166.053 455.433 161.886 451.233 158.682C450.732 158.297 450.207 157.96 449.73 157.574C449.038 157.02 448.489 156.442 448.871 155.382C449.276 154.298 450.04 154.082 451.066 154.082C456.794 154.034 462.664 158.658 464.669 164.777C465.265 166.655 465.647 168.558 465.671 170.534C465.671 171.786 465.766 173.039 466.363 174.315C467.365 173.135 467.461 171.714 467.508 170.389C467.676 166.415 467.938 162.416 465.981 158.707C465.313 157.478 465.695 156.442 466.84 155.696C468.081 154.877 469.37 154.78 470.372 156.033C471.279 157.165 472.019 158.442 472.997 159.887C473.546 157.045 474.381 154.708 477.412 154.323C478.748 154.154 480.013 154.66 481.278 154.949C487.435 156.418 491.158 154.395 493.377 148.349C493.496 148.06 493.52 147.747 493.64 147.458C493.974 146.639 494.475 145.916 495.477 145.892C496.336 145.892 496.933 146.422 497.195 147.217C498.269 150.396 500.393 152.468 503.519 153.576C504.378 153.889 504.927 154.491 504.832 155.527C504.736 156.539 504.116 157.044 503.281 157.358C502.851 157.526 502.374 157.574 501.944 157.719C496.837 159.381 494.499 163.163 495.215 168.51C495.453 170.293 495.763 172.051 495.954 173.858C496.193 176.05 495.095 177.109 492.995 177.061C490.752 177.013 488.509 176.796 486.17 177.013C488.199 177.784 490.203 178.555 492.232 179.277C493.186 179.639 494.093 180.048 494.833 180.771C495.859 181.782 495.931 182.987 495.31 184.215C494.642 185.516 493.544 185.179 492.47 184.769C490.227 183.926 487.888 183.348 485.526 182.987C482.042 182.457 478.534 183.18 475.217 185.131C479.083 185.372 482.877 185.251 486.456 186.576C493.305 189.129 497.076 195.633 495.668 202.883C493.95 201.847 492.733 200.354 491.396 199.029C488.151 195.85 484.834 192.815 480.156 191.947C479.321 191.803 478.486 191.707 477.627 191.707C476.72 191.707 475.932 192.14 475.551 192.983C475.121 193.899 475.646 194.621 476.267 195.272C478.677 197.777 479.655 200.571 479.059 204.16C478.438 207.942 479.942 211.362 481.922 214.518C483.593 217.167 485.669 219.504 487.578 221.937C489.225 224.008 490.895 226.08 491.897 228.585C492.733 230.656 494.284 231.692 496.36 231.74C500.202 231.837 502.445 234.004 503.973 237.28C504.474 238.364 504.975 239.496 506.455 239.256C508.006 239.015 508.244 237.642 508.483 236.461C509.581 230.873 508.793 225.574 505.977 220.636C505.452 219.696 504.76 218.829 504.903 217.649C509.581 217.143 513.638 220.274 515.022 225.405C516.406 230.536 515.499 235.45 513.781 240.315C513.566 240.942 513.017 241.52 513.303 242.531C516.811 240.05 518.315 236.51 519.293 232.631C519.747 230.849 519.651 229.066 519.604 227.26C519.556 225.839 519.938 224.731 521.537 224.634C523.112 224.538 524.448 224.899 524.949 226.73C525.283 227.91 524.997 229.042 524.901 230.223C524.83 231.283 524.901 232.342 524.901 233.667C526.214 232.969 526.453 231.981 526.667 230.921C527.55 226.61 529.937 225.694 533.421 228.247C534.423 228.994 535.425 229.717 536.499 230.319C541.177 232.993 544.708 232.391 548.288 228.368C548.455 228.199 548.598 228.007 548.765 227.862C549.672 227.019 550.149 225.164 551.772 225.887C553.276 226.561 553.013 228.175 552.798 229.62C552.56 231.403 553.657 232.728 554.564 234.053C555.137 234.896 555.877 235.642 556.306 236.534C557.285 238.557 556.33 240.099 554.135 240.291C553.825 240.315 553.514 240.291 553.204 240.291C547.047 240.147 544.16 242.483 543.038 248.529C543.014 248.674 542.99 248.842 542.966 248.987C542.083 254.961 541.296 255.466 535.569 253.804C535.139 253.684 534.709 253.467 534.184 253.901C534.805 255.37 536.213 256.165 537.12 257.418C538.217 258.935 538.552 260.356 536.977 261.729C535.258 263.223 534.161 262.042 533.111 260.814C529.483 256.695 524.854 255.009 519.389 255.202C520.845 255.924 522.3 256.623 523.756 257.393C530.963 261.223 534.542 269.196 532.299 276.206C531.894 277.434 531.44 278.446 529.984 278.35C528.648 278.253 528.648 277.145 528.409 276.134C527.049 270.064 523.971 265.198 518.387 262.187C517.432 261.657 516.382 261.055 515.38 261.922C514.449 262.717 514.831 263.849 515.189 264.764C516.477 268.016 516.072 271.172 514.33 273.99C512.039 277.699 511.776 281.433 513.184 285.407C514.592 289.406 515.189 293.573 515.881 297.74C516.597 302.052 518.434 305.593 522.658 307.375C523.851 307.881 524.138 308.893 524.281 310.001C524.472 311.398 524.639 312.795 524.734 314.192C524.782 315.107 524.901 315.926 525.88 316.288C527.025 316.721 527.789 316.047 528.481 315.252C531.321 312 532.538 308.122 532.657 303.858C532.705 301.907 532.609 299.956 532.538 298.005C532.49 296.969 532.371 295.861 533.588 295.452C534.757 295.067 535.64 295.596 536.404 296.56C540.842 302.196 540.771 309.905 536.213 316.119C535.02 317.733 533.707 319.275 532.323 321.009C533.588 321.25 534.328 320.648 535.02 320.118C538.48 317.564 541.606 314.698 543.038 310.41C543.539 308.941 544.327 307.664 546.284 308.363C548.169 309.037 548.789 310.314 548.121 312.217C547.739 313.325 547.381 314.433 546.999 315.517C546.641 315.661 546.522 316.047 546.761 316.24C547.071 316.504 547.19 316.023 547.357 315.854C551.701 312.626 553.586 313.012 556.426 317.709C556.784 318.311 557.142 318.913 557.523 319.515C560.172 323.562 563.847 324.598 568.143 322.478C568.763 322.165 569.336 321.756 569.933 321.418C570.935 320.84 571.985 320.551 572.94 321.418C573.894 322.286 573.799 323.442 573.154 324.405C571.77 326.477 572.104 328.524 572.892 330.668C573.154 331.391 573.417 332.137 573.512 332.908C573.775 335.052 572.534 336.184 570.434 335.726C569.766 335.582 569.145 335.245 568.501 334.956C563.752 332.667 560.172 333.607 557.07 337.942C556.163 339.195 555.4 340.592 554.445 341.796C552.679 343.964 551.486 344.061 549.362 342.326C548.527 341.652 547.763 340.881 546.785 339.99C546.283 341.748 547.429 342.905 547.739 344.229C547.978 345.241 548.24 346.205 547.787 347.168C547.286 348.276 546.212 348.782 545.138 348.782C543.778 348.782 543.277 347.626 542.871 346.469C541.248 341.724 538.218 338.28 533.636 336.28C533.564 336.015 533.397 335.871 533.158 336.015C533.111 336.064 533.206 336.377 533.254 336.569C535.855 340.086 538.48 343.555 539.435 347.987C540.389 352.395 539.363 356.321 536.762 359.934C535.927 361.091 534.853 361.621 533.54 361.115C532.251 360.609 532.49 359.38 532.562 358.297C532.824 353.021 532.848 347.794 529.603 343.218C529.101 342.519 528.648 341.772 527.884 341.339C526.357 340.448 524.901 341.146 524.663 342.905C524.543 343.748 524.472 344.615 524.424 345.458C524.281 347.963 523.446 349.769 520.892 350.902C517.527 352.395 516.334 355.695 515.952 359.14C515.284 364.897 513.685 370.437 512.301 376.025C511.585 378.867 511.728 381.372 513.733 383.685C515.928 386.19 516.334 389.032 515.141 392.188C514.735 393.272 513.9 394.548 515.189 395.632C516.43 396.668 517.527 395.729 518.601 395.223C523.589 392.91 525.76 388.358 527.55 383.516C528.099 381.999 528.147 379.445 529.626 379.421C531.154 379.397 531.726 381.806 532.251 383.42C533.636 387.539 532.419 391.104 529.889 394.332C526.834 398.234 522.658 400.594 518.219 402.594C517.742 402.81 517.265 402.979 516.644 403.22C520.892 404.497 528.91 401.462 532.753 397.15C533.803 395.994 534.757 394.5 536.571 395.921C538.098 397.126 538.194 399.173 536.762 400.908C536.07 401.751 535.234 402.449 534.423 403.172C533.683 403.822 532.896 404.4 532.013 405.123C533.636 405.773 534.447 404.762 535.402 404.183C538.862 402.064 540.866 402.835 541.988 406.713C542.441 408.278 542.99 409.82 543.324 411.434C544.16 415.384 546.88 416.829 550.507 417.143C551.82 417.263 553.133 417.359 554.445 417.576C556.975 418.01 557.452 419.238 555.829 421.141C554.612 422.562 554.039 424.224 553.634 425.983C553.419 426.898 553.276 427.813 553.013 428.729C552.631 430.102 551.844 431.186 550.436 431.475C549.099 431.764 548.336 430.68 547.572 429.813C543.897 425.525 539.673 424.995 534.996 428.247C534.924 428.295 534.853 428.319 534.805 428.367C530.462 431.427 528.314 433.498 525.522 426.055C525.45 425.886 525.188 425.79 524.925 425.573C524.042 426.994 524.52 428.536 524.4 429.933C524.233 431.932 523.613 433.305 521.37 433.185C519.079 433.064 519.198 431.33 519.341 429.74C519.771 424.176 517.05 419.937 513.59 415.938C514.163 418.54 514.759 421.141 515.284 423.767C516.621 430.391 513.9 436.702 508.292 440.05C507.242 440.676 506.168 441.591 504.975 440.387C503.806 439.231 504.784 438.219 505.309 437.232C507.6 432.968 509.294 428.584 508.555 423.622C508.364 422.394 508.006 421.189 507.695 419.985C507.457 419.07 506.884 418.467 505.953 418.347C504.975 418.202 504.354 418.756 503.901 419.551C503.352 420.563 502.827 421.623 502.207 422.61C500.894 424.73 499.033 426.079 496.527 426.127C493.735 426.2 491.874 427.621 490.49 429.861C487.029 435.425 483.45 440.893 479.655 446.216C478.677 447.613 478.51 449.083 478.82 450.673C479.703 455.105 478.701 459.031 475.813 462.475C475.36 463.005 474.763 463.559 475.073 464.33C475.407 465.149 476.29 465.27 477.054 465.27C480.658 465.318 483.879 464.089 486.791 461.994C488.819 460.524 490.68 458.886 492.136 456.839C492.924 455.731 493.759 454.551 495.334 455.249C496.885 455.948 496.623 457.489 496.336 458.766C494.928 465.029 491.182 469.075 485.025 470.882C481.875 471.797 478.629 471.87 475.407 472.159C480.729 474.423 486.122 474.399 491.516 472.4C492.9 471.87 494.188 471.219 495.095 472.954C496.002 474.688 495.238 475.989 493.735 476.88C492.279 477.723 490.752 478.421 489.01 479.313C490.585 479.529 491.897 479.746 493.234 479.867C495.358 480.059 496.265 481.24 496.002 483.311C495.787 485.021 495.501 486.708 495.238 488.394C494.427 493.645 496.551 497.186 501.539 498.872C502.254 499.113 503.042 499.329 503.686 499.715C505.357 500.678 505.381 503.015 503.591 503.497C500.417 504.34 498.914 506.532 497.696 509.278C497.243 510.313 496.479 511.06 495.167 510.964C493.95 510.867 493.425 510.121 493.043 509.109C492.876 508.675 492.685 508.242 492.566 507.808C491.014 502.943 487.196 500.703 482.185 501.714C481.946 501.762 481.731 501.859 481.517 501.907C475.503 503.497 474.143 502.581 473.212 495.885C472.544 497.162 472.114 498.101 471.589 498.968C471.16 499.691 470.682 500.438 470.134 501.064C469.251 502.051 468.105 502.172 466.96 501.594C465.814 501.016 465.933 500.028 466.172 498.968C466.888 495.765 467.676 492.609 467.676 489.285C467.676 486.611 467.198 484.058 465.647 481.625C465.647 483.167 465.647 484.732 465.647 486.274C465.575 493.838 461.853 499.426 454.932 502.292C454.503 502.461 454.073 502.629 453.62 502.726C451.878 503.135 450.064 503.376 449.205 501.353C448.393 499.474 450.136 498.776 451.281 497.957C455.863 494.632 458.44 490.104 459.18 484.467C459.323 483.408 459.514 482.203 458.225 481.601C457.08 481.071 456.292 481.818 455.576 482.516C453.19 484.877 450.303 485.792 447.057 485.214C443.167 484.54 439.898 485.624 437.034 488.273C433.24 491.766 428.539 493.934 424.291 496.728C422 498.221 420.234 499.859 419.9 502.654C419.47 506.315 417.513 508.82 414.316 510.458C413.409 510.916 412.407 511.373 412.526 512.626C412.645 513.951 413.743 514.288 414.817 514.625C420.401 516.311 425.508 514.77 430.472 512.337C431.593 511.783 432.667 510.819 433.789 512.072C434.934 513.373 434.314 514.697 433.502 515.926C429.326 522.189 421.045 524.308 413.123 521.177C411.619 520.575 410.139 519.9 408.66 519.274C408.541 519.057 408.326 518.889 408.183 519.105C407.992 519.346 408.278 519.419 408.469 519.467C412.311 524.164 417.418 526.115 423.312 526.356C424.386 526.404 425.532 526.115 426.343 527.078C427.536 528.476 426.629 530.692 424.72 531.246C422.692 531.824 420.592 531.101 418.158 531.703C419.876 532.667 421.26 533.438 422.62 534.184C424.219 535.075 424.482 536.449 423.742 537.966C423.002 539.508 422.071 540.953 421.212 542.422C418.349 547.288 419.017 551.672 423.217 555.381C424.076 556.152 425.245 556.73 424.864 558.2C424.458 559.645 423.121 559.452 422.048 559.789C420.353 560.343 418.754 561.162 417.084 561.74C413.218 563.089 410.784 561.885 410.975 557.862C411.213 552.178 408.063 550.516 403.529 549.287C398.088 547.818 395.94 547.89 398.876 540.784C398.995 540.495 399.043 540.206 398.709 539.989C398.804 540.206 398.923 540.23 399.043 540.062C399.09 540.013 399.043 539.917 399.067 539.845C398.947 539.917 398.828 539.989 398.733 540.038C397.515 541.122 396.322 542.205 395.081 543.241C394.556 543.699 393.984 544.132 393.387 544.421C392.027 545.096 390.81 544.735 389.879 543.554C388.829 542.254 389.784 541.387 390.643 540.568C395.439 536.015 397.396 530.234 397.85 523.802C397.873 523.345 397.85 522.887 397.706 522.405C396.322 525.248 395.177 528.211 393.435 530.836C390.834 534.738 387.851 538.111 383.054 539.291C379.88 540.086 377.064 539.219 374.463 537.532C372.721 536.4 374.2 535.702 375.131 535.316C376.754 534.642 378.52 534.305 380.166 533.606C384.271 531.848 387.206 528.861 389.521 525.151C390.189 524.067 390.452 522.911 389.664 521.876C388.805 520.743 387.683 521.442 386.681 521.803C383.985 522.791 381.479 523.056 378.806 521.249C374.725 518.503 370.096 518.889 365.562 520.021C360.622 521.273 355.873 523.273 350.718 523.538C349.429 523.61 348.427 524.621 347.831 525.705C345.754 529.511 342.485 531.149 338.333 531.414C337.45 531.462 336.352 531.221 335.994 532.45C335.636 533.702 336.352 534.497 337.235 535.22C342.032 539.291 347.711 539.893 353.63 539.315C354.918 539.194 356.207 538.761 356.804 540.278C357.4 541.796 356.469 542.711 355.205 543.458C347.735 547.89 339.502 546.638 333.274 540.062C332.057 538.761 330.863 537.436 329.67 536.111C329.527 535.895 329.384 535.702 329.217 535.485C329.169 535.533 329.097 535.605 329.097 535.654C329.05 535.943 329.097 536.208 329.455 536.28C331.508 542.663 335.755 547.023 341.674 549.841C343.058 550.492 344.871 550.781 344.084 552.997C343.344 555.116 341.769 555.068 339.908 554.562C338.619 554.225 337.45 553.213 335.97 553.623C335.97 553.527 335.946 553.406 335.923 553.31C335.827 553.358 335.755 553.382 335.66 553.43C335.779 553.478 335.899 553.551 336.018 553.599C336.09 553.816 336.113 554.057 336.233 554.225C339.693 558.585 339.335 560.584 334.443 563.379C331.174 565.257 328.453 567.401 329.002 571.713C329.217 573.495 329.837 575.181 330.744 576.747C331.412 577.879 331.913 579.011 330.816 580.143C329.789 581.203 328.644 580.794 327.666 580.119C325.589 578.674 323.489 579.373 321.437 580.023C320.148 580.432 318.86 580.938 317.786 579.758C316.712 578.602 317.213 577.325 317.714 576.049C320.172 569.954 319.265 566.919 313.92 563.138C308.264 559.163 308.216 558.657 313.037 553.719C313.323 553.43 313.872 553.238 313.681 552.635C313.92 552.9 314.063 552.635 314.23 552.515C314.23 552.515 314.159 552.346 314.111 552.346C313.872 552.298 313.657 552.346 313.681 552.684C312.249 552.684 311.104 553.551 309.791 553.936C308.908 554.201 308.026 554.49 307.119 554.586C305.854 554.731 304.828 554.297 304.446 552.924C304.064 551.527 304.78 550.757 305.997 550.227C311.844 547.794 315.925 543.578 318.478 537.773C318.812 537.003 319.051 536.184 319.313 535.389C319.671 535.172 319.767 534.883 319.504 534.522C319.337 534.738 319.17 534.931 319.003 535.148C317.094 537.292 315.328 539.58 313.276 541.579C307.835 546.854 299.387 547.746 294.161 543.771C293.659 543.41 293.134 543.024 292.776 542.519C292.228 541.772 290.748 541.338 291.44 540.158C291.989 539.219 293.278 538.93 294.375 539.195C297.311 539.893 300.222 539.459 303.133 539.05C306.069 538.641 308.455 537.051 310.818 535.389C311.796 534.69 312.106 533.654 311.796 532.474C311.486 531.318 310.46 531.173 309.553 531.173C306.236 531.173 303.873 529.8 301.702 527.127C298.313 522.935 293.23 521.972 288.195 521.249C283.756 520.623 279.269 520.262 275.045 518.551C273.494 517.925 271.919 518.431 270.726 519.563C267.672 522.478 264.283 522.984 260.465 521.37C259.606 521.008 258.699 520.695 257.911 521.586C257.124 522.478 257.553 523.369 257.935 524.212C260.369 529.511 264.593 532.691 270.034 534.353C271.347 534.762 273.542 534.835 273.566 536.015C273.59 537.508 271.514 538.111 270.13 538.689C266.598 540.11 263.281 539.315 260.226 537.292C255.954 534.473 253.449 530.306 251.539 525.705C251.253 525.007 251.134 524.212 250.299 523.441C249.988 526.476 250.37 529.198 251.372 531.848C252.566 534.931 254.188 537.749 256.67 539.989C257.577 540.808 258.436 541.7 257.577 542.976C256.67 544.301 255.405 544.638 253.902 543.94C252.757 543.41 251.874 542.543 251.038 541.603C250.227 540.712 249.392 539.821 248.366 538.713C247.841 540.351 248.747 541.218 249.249 542.181C251.134 545.794 250.203 547.938 246.266 548.878C244.309 549.335 242.376 549.841 240.419 550.323C237.889 550.949 236.72 552.756 236.41 555.189C236.171 557.116 236.1 559.091 235.932 561.018C235.861 561.957 235.813 562.993 234.763 563.354C233.785 563.716 232.949 563.306 232.305 562.511C230.277 560.03 227.532 559.187 224.478 559.067C223.595 559.019 222.473 559.163 222.02 558.151C221.495 557.068 222.282 556.224 222.903 555.43C224.215 553.792 225.575 552.202 226.84 550.516C228.296 548.589 228.463 546.517 227.198 544.397C226.077 542.543 224.86 540.712 223.786 538.809C221.996 535.63 222.688 533.968 226.172 532.884C227.986 532.322 229.314 531.599 230.157 530.716C228.272 530.812 226.458 530.932 224.621 530.957C223.929 530.957 223.237 530.884 222.569 530.716C221.256 530.402 220.636 529.511 220.659 528.162C220.683 526.573 221.781 526.332 223.022 526.187C226.649 525.778 230.205 525.151 233.474 523.393C235.073 522.55 236.457 521.466 238.104 519.563C236.195 520.165 234.906 520.599 233.594 520.96C229.155 522.237 224.74 522.285 220.373 520.647C217.08 519.394 214.884 516.938 213.333 513.854C212.904 512.987 212.689 512.048 213.5 511.253C214.407 510.362 215.314 510.699 216.245 511.253C221.065 514.312 226.339 514.938 231.876 514.192C232.663 514.095 233.427 513.927 234.071 513.517C235.479 512.626 235.598 511.084 234.119 510.41C229.919 508.555 228.01 505.231 227.246 500.847C226.793 498.197 224.74 496.535 222.473 495.427C218.464 493.452 214.932 490.899 211.424 488.153C207.677 485.214 203.525 483.528 198.657 485.262C196.557 486.009 195.173 484.612 193.645 483.528C192.619 482.805 191.593 481.143 190.376 481.842C189.207 482.516 189.35 484.323 189.422 485.744C189.66 490.104 192.166 493.259 194.958 496.246C195.865 497.21 196.939 498.005 197.917 498.872C198.681 499.546 199.54 500.221 199.015 501.425C198.466 502.63 197.368 502.702 196.247 502.581C190.09 501.907 185.89 498.631 183.933 492.754C182.883 489.598 182.238 486.298 181.403 483.022C179.542 486.78 180.067 493.693 181.761 497.475C182.406 498.944 183.527 500.534 181.332 501.666C179.613 502.557 178.158 501.859 177.108 499.619C176.225 497.716 175.533 495.74 174.721 493.693C173.791 494.464 174.172 495.379 174.363 496.222C175.413 501.305 173.671 503.159 168.588 502.365C166.918 502.1 165.247 501.786 163.553 501.594C160.999 501.329 159.019 502.292 157.682 504.532C156.585 506.411 155.582 508.362 154.389 510.169C153.315 511.807 152.265 511.783 151.526 510.024C150.141 506.821 148.041 504.556 144.7 503.473C143.794 503.183 143.292 502.557 143.292 501.57C143.292 500.486 143.794 499.884 144.772 499.45C146.466 498.679 148.161 497.908 149.736 496.945C152.623 495.211 153.554 492.898 152.933 489.598C152.623 487.984 152.337 486.37 152.003 484.781C151.335 481.625 152.218 480.3 155.439 479.77C156.394 479.602 157.372 479.457 158.351 479.289C158.16 478.181 157.348 478.157 156.609 477.94C155.463 477.603 154.508 476.976 153.673 476.109C152.623 475.049 152.647 473.869 153.387 472.713C154.127 471.581 155.129 471.773 156.274 472.207C161.835 474.302 167.443 474.375 173.099 472.472C173.719 472.255 174.435 472.207 174.864 471.556C172.144 471.556 169.471 471.725 166.798 471.532C158.78 470.954 153.983 465.149 151.764 459.344C151.573 458.838 151.478 458.284 151.454 457.73C151.454 456.478 151.836 455.442 153.101 454.912C154.509 454.334 155.129 455.346 155.678 456.237C158.828 461.392 163.72 463.8 169.328 465.077C170.545 465.366 171.881 465.631 172.669 464.306C173.48 462.981 172.383 462.09 171.643 461.271C168.97 458.284 168.421 454.695 169.113 450.962C169.662 448.071 168.875 445.686 167.109 443.591C163.243 438.99 160.522 433.618 157.11 428.681C155.869 426.874 154.389 425.646 152.265 425.477C148.423 425.188 146.037 423.068 144.462 419.696C143.961 418.588 143.674 417.143 142.052 417.263C140.357 417.383 140.286 418.925 139.832 420.153C137.995 425.091 139.379 429.668 141.264 434.197C141.98 435.907 142.767 437.569 143.555 439.327C138.925 439.737 134.892 436.774 133.675 432.149C132.434 427.476 133.126 422.851 133.962 418.227C134.2 416.926 134.725 415.673 134.582 414.059C131.002 417.359 129.404 421.478 128.544 425.959C128.306 427.259 128.258 428.584 128.187 429.909C128.139 431.162 128.02 432.342 126.444 432.462C124.822 432.583 123.772 431.788 123.461 430.15C123.008 427.717 123.438 425.308 123.605 422.9C123.629 422.538 123.796 422.153 123.318 421.719C122.173 422.538 122.316 423.911 121.982 424.995C120.24 430.608 118.808 431.162 113.964 427.982C112.985 427.356 112.031 426.657 111.004 426.151C107.425 424.369 104.108 424.802 101.149 427.5C100.409 428.175 99.7407 428.945 99.0486 429.668C98.452 430.318 97.8077 430.824 96.8293 430.608C95.7315 430.367 95.3736 429.451 95.1588 428.56C93.9656 423.863 95.6599 418.636 99.7884 416.251C103.821 413.915 105.611 410.687 105.707 406.183C105.778 403.678 107.019 402.04 109.62 401.823C111.362 401.678 111.482 400.811 110.837 399.462C110.67 399.125 110.479 398.764 110.408 398.378C110.169 397.029 110.145 395.729 111.577 394.91C113.009 394.091 113.964 394.958 114.823 395.849C117.185 398.306 119.882 400.185 123.104 401.293C125.013 401.967 127.041 402.04 129.189 402.064C127.733 401.245 126.254 400.426 124.798 399.607C119.5 396.62 115.968 392.356 115.205 386.07C114.99 384.359 114.942 382.649 115.491 380.963C115.968 379.494 116.947 378.675 118.402 378.771C119.906 378.867 119.906 380.216 120.192 381.372C121.648 387.322 124.655 392.116 130.43 394.669C131.241 395.03 132.196 395.536 133.055 394.813C134.009 394.043 133.413 393.055 133.103 392.236C131.814 388.671 132.1 385.202 134.248 382.191C136.467 379.084 136.873 375.88 135.417 372.484C133.604 368.245 133.484 363.692 132.721 359.236C132.029 355.261 130.287 351.937 126.54 350.155C124.583 349.215 123.748 347.867 123.581 345.843C123.485 344.759 123.294 343.675 123.104 342.591C122.984 341.821 122.889 341.002 121.863 340.857C121.027 340.737 120.383 341.026 119.834 341.7C116.278 346.156 114.632 351.215 115.324 356.948C115.324 357.092 115.419 357.237 115.419 357.405C115.443 358.826 116.469 360.778 115.061 361.5C114.011 362.054 112.651 360.464 111.673 359.477C107.902 355.695 108.165 351.215 109.644 346.614C110.551 343.772 112.031 341.218 113.701 338.761C114.107 338.159 114.847 337.678 114.727 336.642C112.603 336.907 111.028 338.111 109.62 339.556C107.544 341.7 105.898 344.157 104.967 347.048C104.537 348.397 103.941 349.384 102.366 349.023C100.815 348.661 100.075 347.65 100.027 345.988C99.9793 344.302 101.077 342.905 101.053 341.218C100.838 341.218 100.671 341.17 100.576 341.218C96.4236 344.374 94.6099 344.013 91.8656 339.484C91.269 338.496 90.6962 337.437 89.9803 336.545C87.3075 333.221 83.895 332.715 79.0506 334.835C78.3347 335.148 77.6665 335.582 76.9267 335.726C75.2801 336.04 73.9914 334.691 74.7312 333.221C76.3301 329.994 76.2108 326.934 74.6119 323.803C74.2539 323.104 74.3016 322.286 74.9221 321.611C75.6142 320.864 76.4733 320.913 77.2847 321.25C79.1461 322.021 81.0074 322.695 82.9882 323.153C85.8041 323.803 88.0473 322.888 89.7417 320.672C90.8394 319.275 91.7224 317.709 92.7485 316.215C94.9917 312.988 96.9963 312.771 99.7407 315.517C100.385 316.167 100.91 316.938 101.817 318.046C102.008 315.734 100.958 314.481 100.504 313.06C100.003 311.567 99.4066 310.049 101.268 308.941C103.32 307.713 104.681 308.411 105.659 311.253C107.186 315.734 110.36 318.624 114.441 320.672C114.56 320.72 114.727 320.672 115.133 320.672C113.844 318.889 112.508 317.323 111.482 315.589C107.998 309.712 107.687 303.666 110.981 297.572C111.267 297.042 111.649 296.512 112.078 296.078C112.937 295.163 114.059 295.115 115.085 295.621C116.111 296.126 115.992 297.138 115.73 298.102C114.703 301.859 115.109 305.521 116.374 309.134C117.305 311.807 119.118 313.807 121.218 315.589C122.435 316.625 122.722 316.288 122.936 314.794C123.557 310.627 125.418 306.99 128.807 304.509C131.838 302.269 133.317 299.306 133.389 295.741C133.484 290.755 134.94 286.058 135.751 281.216C136.276 278.037 136.229 274.761 134.272 272.207C132.267 269.606 132.506 267.077 133.198 264.307C133.46 263.247 134.033 262.139 132.792 261.368C131.671 260.669 130.597 261.031 129.523 261.681C124.535 264.812 121.505 269.341 120.097 275.05C119.81 276.182 119.786 277.531 118.164 277.531C116.565 277.531 116.469 276.182 116.207 275.05C114.799 269.245 116.255 264.258 120.478 260.067C122.483 258.092 124.798 256.526 127.494 254.816C122.674 254.045 119.405 256.285 116.302 258.983C115.825 259.393 115.443 259.875 115.014 260.332C113.964 261.44 112.818 261.85 111.577 260.718C110.36 259.61 109.764 258.261 110.909 256.815C111.959 255.491 113.224 254.334 114.847 252.6C113.248 253.034 112.222 253.347 111.172 253.588C108.308 254.262 107.091 253.564 106.327 250.745C105.945 249.324 105.778 247.831 105.444 246.385C104.275 241.183 101.721 239.111 96.4952 239.111C95.7077 239.111 94.944 239.159 94.1804 239.207C93.2497 239.28 92.486 239.015 92.0326 238.147C91.5076 237.184 91.7462 236.293 92.4383 235.57C94.6099 233.258 95.8508 230.68 95.7792 227.38C95.7315 225.333 97.5213 224.707 99.2157 226.007C100.695 227.139 102.055 228.416 103.535 229.572C105.874 231.379 108.379 231.451 110.909 229.958C112.842 228.826 114.68 227.501 116.66 226.417C118.951 225.164 120.24 225.598 121.338 227.958C122.173 229.741 122.793 231.644 123.676 233.932C124.058 231.837 123.676 230.319 123.509 228.777C123.342 226.971 123.724 225.333 125.036 224.056C125.633 223.454 126.444 223.02 127.351 223.31C128.449 223.671 128.449 224.634 128.544 225.598C128.831 228.464 129.141 231.331 129.976 234.125C130.835 236.991 132.554 239.207 135.274 241.568C134.487 238.846 133.795 236.774 133.246 234.655C131.408 227.308 133.914 220.804 140.095 216.782C141.097 216.131 142.123 215.457 143.245 216.469C144.486 217.601 143.483 218.564 142.911 219.552C139.737 225.02 138.973 230.801 140.596 236.919C140.858 237.931 141.336 238.726 142.338 238.894C143.436 239.063 144.008 238.123 144.342 237.256C145.87 233.161 148.805 231.066 153.029 230.56C155.487 230.247 157.468 228.85 158.47 226.61C160.665 221.816 163.792 217.673 166.822 213.434C169.328 209.917 170.378 206.015 168.851 201.727C168.111 199.631 169.734 198.427 170.664 196.958C171.476 195.681 173.624 194.838 172.43 192.863C171.333 191.056 169.471 191.899 167.944 192.164C162.575 193.104 158.828 196.524 155.63 200.715C154.89 201.703 154.365 203.1 152.79 202.426C151.191 201.751 151.478 200.306 151.693 198.981C152.886 190.936 159.806 185.468 168.898 185.323C170.593 185.299 172.311 185.323 173.791 185.323C171.213 183.107 165.152 182.144 160.427 183.396C159.09 183.758 157.802 184.263 156.465 184.697C155.32 185.058 154.103 185.805 153.244 184.191C152.385 182.577 152.957 181.277 154.318 180.361C156.251 179.036 158.589 178.555 160.713 177.663C161.119 177.495 161.668 177.615 161.835 176.724C159.83 176.724 157.849 176.772 155.893 176.724C153.506 176.628 152.647 175.785 152.695 173.4C152.743 171.545 153.029 169.666 153.244 167.812C153.745 163.524 151.812 160.609 148.137 158.707C146.896 158.056 145.583 157.526 144.438 156.78C143.054 155.864 142.958 154.515 144.486 153.889C147.683 152.564 149.378 150.011 150.81 147.096C151.287 146.133 152.146 145.603 153.291 145.771C154.341 145.94 154.89 146.639 155.201 147.578C155.368 148.084 155.511 148.614 155.678 149.144C157.134 153.937 161.238 156.442 166.178 155.431C167.634 155.117 169.089 155.069 170.545 154.973C172.764 154.804 174.125 155.671 174.244 158.056C174.316 159.453 174.483 160.826 174.674 162.681C175.676 160.561 176.511 158.779 177.37 156.996C177.871 155.961 178.516 155.166 179.757 155.045C181.69 154.853 182.74 155.912 182.358 157.815C181.952 159.887 181.523 161.934 180.926 163.958C179.995 167.234 180.162 170.389 181.713 174.171C182.119 171.208 182.262 168.799 182.954 166.487C184.816 160.128 188.682 155.888 195.149 154.25C195.674 154.13 196.223 154.058 196.748 154.009C197.726 153.937 198.633 154.13 199.086 155.142C199.564 156.25 199.11 157.093 198.203 157.767C196.008 159.405 194.075 161.308 192.476 163.524C190.567 166.174 189.398 169.088 189.374 172.412C189.374 173.472 189.421 174.46 190.543 174.99C191.617 175.471 192.333 174.869 192.977 174.171C195.531 171.449 198.466 170.654 202.022 172.075C204.146 172.918 206.15 171.979 207.94 170.823C213.667 167.089 219.323 163.283 225.027 159.526C226.458 158.586 227.389 157.406 227.652 155.623C228.344 151.167 230.682 147.843 234.787 145.868C235.431 145.555 236.195 145.217 236.171 144.447C236.171 143.58 235.384 143.146 234.62 142.905C228.869 140.954 223.356 141.628 218.058 144.567C217.724 144.76 217.39 144.953 217.056 145.169C216.101 145.771 215.075 146.398 214.121 145.41C213.118 144.398 213.643 143.266 214.24 142.207C217.963 135.606 225.528 132.836 233.331 135.245C234.954 135.751 236.553 136.353 238.152 136.931C238.39 137.317 238.724 137.389 239.154 137.341C239.202 137.558 239.321 137.678 239.56 137.558C239.488 137.437 239.393 137.293 239.321 137.172C239.321 136.787 239.035 136.666 238.748 136.522C234.668 132.379 229.513 130.693 223.905 130.283C222.616 130.187 221.208 130.235 221.208 128.501C221.208 126.839 222.115 125.634 223.881 125.586C226.435 125.49 228.964 125.586 231.518 125.586C230.802 124.334 229.227 124.261 227.962 123.683C223.905 121.804 223.571 120.817 225.742 116.939C226.196 116.12 226.697 115.325 227.174 114.53C230.205 109.351 229.489 105.377 224.836 101.571C224.358 101.185 223.857 100.8 223.428 100.366C222.807 99.7401 222.712 98.9692 223.07 98.1984C223.404 97.4758 224.072 97.1868 224.812 97.3072C228.463 97.8612 231.303 96.4882 233.594 93.6941C234.095 93.0678 234.715 92.6101 235.598 92.9955C236.505 93.3809 236.887 94.0313 236.887 94.9948C236.887 96.6328 236.863 98.2948 236.982 99.9087C237.317 104.1 238.892 105.882 242.972 106.798C244.547 107.159 246.17 107.4 247.745 107.785C250.513 108.46 251.325 109.761 250.656 112.579C250.322 114 249.774 115.373 249.654 117.059C250.776 116.023 251.897 114.939 253.043 113.928C253.854 113.205 254.618 112.434 255.787 112.314C256.957 112.193 257.983 112.506 258.579 113.566C259.176 114.65 258.579 115.469 257.816 116.216C253.258 120.769 250.919 126.261 250.847 133.198C252.232 130.62 253.329 128.332 254.666 126.212C256.742 122.864 259.271 119.974 263.09 118.48C266.765 117.035 270.177 117.709 273.614 119.323C274.759 119.853 274.52 120.359 273.948 121.034C273.303 121.756 272.397 122.021 271.49 122.214C266.287 123.298 262.469 126.453 259.343 130.62C258.436 131.825 258.054 133.174 258.937 134.523C259.844 135.896 261.085 135.317 262.278 134.98C264.736 134.258 266.956 134.282 269.294 135.823C273.828 138.786 278.792 137.943 283.637 136.618C287.956 135.438 292.251 134.113 296.786 134.041C298.217 134.041 299.172 132.981 299.864 131.825C302.227 127.802 305.591 125.61 310.316 125.707C311.199 125.707 312.059 125.538 312.44 124.574C312.822 123.587 312.154 122.888 311.534 122.334C306.832 118.215 301.391 116.553 295.211 117.372C293.922 117.541 292.132 118.263 291.512 117.252C290.748 116.071 292.419 114.988 293.206 114.048C296.499 110.17 300.652 110.483 304.923 111.784C309.075 113.036 312.822 115.252 316.855 117.42C316.712 115.614 315.686 114.506 314.803 113.446C312.321 110.483 309.386 108.074 305.663 106.894C304.518 106.533 303.563 106.027 303.825 104.654C304.112 103.281 304.804 102.173 306.45 102.149C307.572 102.125 308.55 102.534 309.553 102.992C310.46 103.401 311.39 103.69 312.941 104.244C312.035 102.992 311.486 102.245 310.961 101.45C309.052 98.7043 309.243 97.4517 311.891 95.3561C312.751 94.6816 313.657 94.0795 314.54 93.4532C319.146 90.105 320.22 86.0824 317.881 80.7831C317.571 80.0846 317.094 79.386 316.998 78.6393C316.807 77.2663 317.571 75.9415 318.86 76.4233C321.27 77.3145 323.609 76.6641 325.947 76.7364C330.124 76.8809 331.508 78.7116 330.362 82.7824C330.219 83.3123 330.004 83.8181 329.813 84.324C328.453 88.0576 328.763 89.3342 331.77 92.032C333.226 93.3327 334.777 94.489 336.185 95.8379C338.261 97.8371 338.333 99.0656 336.638 101.33C335.899 102.317 335.04 103.233 334.252 104.196C334.061 104.389 333.894 104.606 333.727 104.798C334.109 105.063 334.371 104.919 334.586 104.558C335.994 103.955 337.426 103.353 338.834 102.727C339.693 102.342 340.576 102.101 341.531 102.125C343.01 102.149 343.798 103.04 344.156 104.341C344.49 105.642 343.511 106.147 342.581 106.581C338.738 108.363 335.183 110.579 332.796 114.193C331.818 115.686 330.267 117.131 330.935 119.299C330.863 119.179 330.816 119.082 330.744 118.986L330.553 119.179C330.672 119.203 330.816 119.227 330.959 119.251M324.372 136.45C216.507 136.45 134.081 224.08 133.938 328.886C133.795 435.305 220.278 519.997 323.155 520.575C428.753 521.177 515.69 434.317 514.282 325.899C512.946 223.237 431.331 136.642 324.372 136.45ZM115.324 336.642L115.205 336.545V336.666H115.324V336.642Z" fill="#6D863A" fill-opacity="0.1"/>
<path d="M272.665 93.4754C272.26 90.8739 270.876 88.6819 269.706 86.4177C269.157 85.3097 267.821 84.2739 268.871 82.8287C269.826 81.5038 271.186 81.9856 272.498 82.1783C275.028 82.5396 277.438 82.2746 279.586 80.709C280.469 80.0586 281.447 79.4082 282.521 80.2754C283.428 81.0221 283.452 82.0097 283.022 83.0455C282.999 83.1177 282.975 83.19 282.951 83.2622C281.28 91.4279 282.259 93.2827 289.943 96.5104C290.301 96.6549 290.659 96.7995 291.017 96.944C294.668 98.6301 295.193 100.533 292.616 103.616C288.726 108.265 286.22 113.516 285.194 119.49C285.027 120.478 284.741 121.513 283.524 121.778C282.259 122.043 281.376 121.393 280.827 120.381C277.725 114.793 273.143 110.915 267.463 108.169C264.719 106.844 264.409 104.869 266.318 102.46C267.678 100.75 269.253 99.2564 270.709 97.6425C271.759 96.4622 272.522 95.1133 272.642 93.4754" fill="#6D863A" fill-opacity="0.1"/>
<path d="M282.354 574.603C282.354 576.482 280.636 577.542 279.275 576.386C277.008 574.435 274.526 574.483 271.854 574.748C270.446 574.892 268.99 574.844 268.226 573.302C267.463 571.761 268.417 570.629 269.3 569.521C272.546 565.474 272.57 562.102 269.3 558.031C268.226 556.706 266.938 555.574 265.816 554.273C263.764 551.913 263.955 550.54 266.604 548.829C267.63 548.155 268.751 547.601 269.825 546.999C274.073 544.542 277.629 541.386 280.015 537.026C280.707 535.75 281.423 534.497 283.165 534.883C284.764 535.244 284.669 536.617 284.812 537.87C285.456 543.386 287.843 548.107 291.303 552.346C294.691 556.513 294.047 558.753 289.012 560.705C281.9 563.475 280.659 565.691 282.067 573.399C282.163 573.856 282.306 574.314 282.378 574.603" fill="#6D863A" fill-opacity="0.1"/>
<path d="M437.348 526.017C437.443 525.559 437.515 524.764 437.777 524.042C439.829 518.429 439.591 512.721 438.708 506.964C438.541 505.856 438.04 504.603 439.328 503.76C440.593 502.941 441.548 503.856 442.455 504.507C447.394 507.999 452.788 509.975 458.897 509.975C461.761 509.975 463.431 512.576 462.5 515.346C462.071 516.599 461.474 517.779 460.973 519.007C458.754 524.716 460.066 528.498 465.34 531.629C466.366 532.231 467.774 532.569 467.488 534.255C467.202 535.941 465.77 535.821 464.6 536.013C461.951 536.423 460.09 537.892 458.801 540.18C458.252 541.144 457.775 542.18 456.391 541.939C454.888 541.698 454.84 540.421 454.554 539.313C454.267 538.109 453.933 536.904 453.599 535.7C452.621 532.352 450.449 530.425 446.965 530.112C444.96 529.919 442.956 529.895 440.951 529.75C438.612 529.582 437.348 528.353 437.348 526.017Z" fill="#6D863A" fill-opacity="0.1"/>
<path d="M439.044 151.43C439.378 149.672 439.856 147.793 440.094 145.866C440.643 141.193 439.521 136.737 438.161 132.329C437.23 129.342 438.113 127.921 441.216 127.584C443.602 127.319 445.989 127.319 448.375 127.006C450.714 126.692 452.241 125.584 453.028 123.392C453.697 121.49 454.293 119.563 454.89 117.636C455.224 116.527 455.677 115.516 456.918 115.347C458.064 115.203 458.708 116.022 459.209 116.961C460.593 119.49 462.598 121.104 465.557 121.49C466.559 121.61 467.8 121.73 468.063 123.152C468.301 124.476 467.275 124.862 466.488 125.464C465.629 126.114 464.746 126.765 463.934 127.487C460.379 130.667 459.782 133.148 461.333 137.701C461.858 139.242 462.669 140.687 462.837 142.349C463.123 145.071 462.312 146.3 459.615 146.782C456.059 147.432 452.456 147.841 449.115 149.455C446.728 150.587 444.485 151.96 442.314 153.43C441.502 153.984 440.667 154.321 439.736 153.743C438.925 153.237 439.116 152.418 439.068 151.479" fill="#6D863A" fill-opacity="0.1"/>
<path d="M365.257 574.218C365.424 573.134 365.543 572.05 365.758 570.966C366.617 566.437 365.113 563.426 360.937 561.547C359.243 560.777 357.477 560.199 355.83 559.355C353.706 558.247 353.396 557.067 354.589 554.971C355.234 553.815 355.973 552.707 356.785 551.672C360.054 547.48 362.178 542.783 362.822 537.46C362.99 536.207 363.348 535.123 364.732 534.882C366.068 534.642 366.665 535.653 367.213 536.617C370.149 541.94 374.468 545.626 379.909 548.155C383.632 549.889 384.014 552.25 381.269 555.309C379.981 556.754 378.597 558.127 377.308 559.596C375.542 561.62 375.16 563.884 376.425 566.317C377.356 568.123 378.406 569.858 379.312 571.664C380.291 573.639 379.408 575.229 377.356 574.723C374.015 573.928 371.175 574.796 368.263 576.265C366.14 577.349 365.209 576.554 365.304 574.218" fill="#6D863A" fill-opacity="0.1"/>
<path d="M354.347 100.606C354.347 99.1603 355.23 98.2932 356.376 97.7151C358.165 96.7757 359.955 95.8604 361.793 95.0896C365.086 93.7166 366.685 91.4282 366.136 87.7669C365.921 86.2976 365.754 84.8282 365.659 83.3348C365.492 80.3238 366.518 79.6253 369.214 80.8538C370.336 81.3596 371.458 81.9136 372.627 82.2749C374.274 82.7808 375.992 82.7085 377.686 82.3472C378.426 82.1786 379.309 81.9618 379.786 82.8289C380.263 83.6961 380.263 84.5633 379.667 85.4786C378.76 86.8275 377.877 88.2246 377.113 89.6457C375.538 92.6567 375.825 95.5231 378.068 98.1005C379.142 99.329 380.311 100.485 381.433 101.665C384.559 105.014 384.44 106.459 380.454 108.603C376.23 110.867 372.388 113.541 369.644 117.587C369 118.551 368.403 119.563 367.735 120.526C367.138 121.417 366.375 122.019 365.205 121.851C363.94 121.682 363.606 120.671 363.439 119.659C362.389 113.252 359.907 107.567 355.278 102.942C354.657 102.316 354.371 101.497 354.323 100.606" fill="#6D863A" fill-opacity="0.1"/>
<path d="M527.409 287.407C534.187 282.974 538.935 277.458 542.396 270.738C543.398 268.811 545.116 268.498 547.121 269.871C548.911 271.099 550.557 272.52 552.18 273.966C554.71 276.158 557.358 276.471 560.294 274.857C561.773 274.038 563.301 273.243 564.852 272.593C566.785 271.774 567.572 272.352 567.596 274.52C567.596 274.761 567.644 275.001 567.572 275.218C566.546 277.988 567.572 280.277 568.909 282.685C570.579 285.745 569.839 286.708 566.331 286.612C565.401 286.588 564.47 286.539 563.563 286.371C559.077 285.576 556.285 286.997 554.495 291.212C553.922 292.561 553.492 294.007 552.896 295.331C551.345 298.776 549.77 299.306 546.858 296.945C543.326 294.103 539.723 291.526 535.356 290.153C532.874 289.382 530.416 288.466 527.457 287.431" fill="#6D863A" fill-opacity="0.1"/>
<path d="M204.031 529.294C197.11 528.957 194.103 531.511 192.982 538.616C192.791 539.797 192.648 541.049 191.216 541.29C189.832 541.531 189.092 540.519 188.591 539.435C187.78 537.629 186.252 536.834 184.51 536.256C183.556 535.943 182.553 535.702 181.67 535.268C180.071 534.473 179.857 532.884 181.169 531.679C181.718 531.149 182.434 530.764 183.078 530.403C187.207 528.018 188.686 524.092 187.087 519.515C186.61 518.118 185.87 516.817 185.322 515.468C183.985 512.192 185.035 510.338 188.567 509.976C193.149 509.519 197.564 508.627 201.621 506.315C202.766 505.665 203.864 504.918 204.938 504.171C205.964 503.448 207.038 503.063 208.183 503.738C209.4 504.46 209.329 505.64 209.018 506.845C207.682 512.361 207.992 517.805 209.615 523.2C209.711 523.489 209.806 523.802 209.878 524.092C210.737 528.283 209.878 529.319 205.63 529.319H204.007" fill="#6D863A" fill-opacity="0.1"/>
<path d="M125.394 207.314C125.298 205.917 125.298 204.496 125.108 203.123C124.32 197.896 120.311 196.716 116.039 195.969C114.87 195.752 113.581 195.8 113.295 194.355C113.009 192.934 114.178 192.284 115.204 191.73C116.803 190.838 117.614 189.369 118.235 187.755C118.593 186.816 118.855 185.804 119.332 184.937C120.478 182.817 122.339 182.745 123.7 184.72C123.867 184.985 124.081 185.226 124.177 185.515C125.609 190.718 130.763 191.031 135.345 189.875C136.682 189.538 137.946 188.863 139.259 188.454C142.385 187.514 143.721 188.381 144.318 191.585C144.748 193.897 145.106 196.186 145.631 198.474C146.466 201.991 148.065 205.195 150.141 208.133C150.833 209.121 151.955 210.108 151.024 211.457C150.212 212.662 148.948 212.276 147.826 211.987C142.099 210.59 136.515 211.12 130.907 212.854C126.277 214.276 125.298 213.457 125.298 208.495V207.314C125.298 207.314 125.346 207.314 125.37 207.314" fill="#6D863A" fill-opacity="0.1"/>
<path d="M527.844 369.857C530.731 368.918 533.428 368.195 536.005 367.183C539.847 365.69 543.331 363.546 546.41 360.728C549.083 358.271 550.896 358.56 552.662 361.739C553.689 363.57 554.452 365.545 555.431 367.4C557.22 370.845 558.939 371.688 562.781 371.278C564.475 371.086 566.169 371.013 567.864 370.941C569.606 370.869 570.274 371.76 569.296 373.253C567.315 376.264 566.503 379.372 567.434 382.985C567.911 384.912 566.384 385.827 564.523 384.912C562.924 384.117 561.397 383.202 559.869 382.286C556.934 380.504 554.309 380.937 551.899 383.298C550.348 384.815 548.82 386.381 547.102 387.706C544.668 389.561 543.713 389.272 542.234 386.55C540.468 383.322 538.32 380.383 535.934 377.589C533.547 374.819 530.827 372.41 527.844 369.809" fill="#6D863A" fill-opacity="0.1"/>
<path d="M80.6026 380.192C80.7935 377.711 80.4355 375.374 78.9082 373.303C78.3355 372.556 77.8821 371.713 78.6219 370.75C79.3139 369.81 80.2685 369.882 81.1514 370.147C82.5594 370.557 83.9435 370.942 85.4231 371.087C88.955 371.424 91.3891 369.834 93.0357 366.847C93.7039 365.619 94.2289 364.318 94.8016 363.041C97.0687 357.911 98.4767 357.525 102.796 361.187C105.922 363.86 109.335 365.908 113.296 366.944C114.633 367.305 116.017 367.522 117.353 367.859C118.379 368.1 119.62 368.148 119.835 369.545C120.05 370.894 119.095 371.472 118.117 372.002C113.606 374.579 110.289 378.289 107.807 382.842C107.282 383.805 106.853 384.817 106.328 385.756C104.896 388.261 103.106 388.743 100.792 387.009C99.1926 385.804 97.7608 384.359 96.3051 382.938C93.8471 380.529 91.1743 379.975 88.0959 381.685C86.6879 382.48 85.1845 383.131 83.7049 383.805C81.0321 385.033 80.4594 384.6 80.5548 381.613C80.5548 381.155 80.6026 380.674 80.6264 380.216" fill="#6D863A" fill-opacity="0.1"/>
<path d="M522.801 450.431C522.515 457.007 525.116 460.042 531.631 460.837C532.251 460.909 532.872 460.981 533.469 461.15C534.304 461.391 534.733 462.017 534.853 462.86C534.972 463.655 534.614 464.329 533.922 464.57C530.963 465.654 530.104 468.232 529.412 470.93C529.054 472.254 528.648 473.555 527.049 473.748C525.45 473.94 524.758 472.712 524.066 471.556C520.821 466.16 516.859 464.932 511.227 467.605C505.619 470.279 504.927 469.942 503.806 463.848C502.756 458.211 501.419 452.695 497.553 448.215C496.837 447.396 496.503 446.432 497.195 445.445C498.007 444.24 499.248 444.337 500.345 444.746C504.569 446.288 508.841 446.191 513.136 445.204C514.711 444.843 516.239 444.264 517.814 443.879C521.179 443.012 522.658 444.144 522.849 447.613C522.897 448.552 522.849 449.492 522.849 450.431" fill="#6D863A" fill-opacity="0.1"/>
<path d="M507.075 188.405C509.008 188.453 510.249 189.151 511.514 189.705C518.22 192.62 520.869 191.825 524.926 185.635C525.212 185.177 525.451 184.671 525.785 184.238C526.93 182.768 528.577 182.937 528.863 184.695C529.436 188.357 531.202 190.982 534.28 192.957C535.855 193.969 535.259 195.824 533.35 196.378C532.085 196.739 530.772 196.908 529.531 197.317C525.069 198.738 523.565 200.689 523.279 205.435C523.16 207.217 523.16 209.024 522.945 210.806C522.659 213.287 521.513 214.058 519.127 213.576C516.335 213.022 513.519 212.492 510.75 211.818C507.481 211.023 504.307 211.384 501.133 212.324C499.916 212.685 498.699 213.046 497.769 211.818C496.838 210.565 497.745 209.602 498.389 208.662C501.825 203.676 503.639 198.112 504.116 192.066C504.331 189.296 505.381 188.308 507.099 188.381" fill="#6D863A" fill-opacity="0.1"/>
<path d="M90.6549 275.772C93.2322 276.206 95.4516 274.929 97.4323 272.978C98.6016 271.822 99.6516 270.569 100.893 269.509C102.969 267.727 104.329 267.895 105.88 270.184C107.312 272.303 108.553 274.568 109.913 276.735C112.037 280.108 115.187 282.396 118.361 284.636C119.077 285.142 120.342 285.552 119.817 286.949C119.387 288.057 118.456 288.273 117.406 288.442C111.846 289.309 106.954 291.622 102.706 295.379C98.9357 298.727 97.0266 298.294 94.7356 293.741C94.0674 292.417 93.3754 291.116 92.7549 289.767C91.2038 286.515 88.6742 285.238 85.1662 285.72C83.5434 285.937 81.9445 286.106 80.3218 286.202C78.4604 286.298 78.007 285.407 78.6752 283.697C80.6082 278.638 84.9037 275.676 90.6549 275.772Z" fill="#6D863A" fill-opacity="0.1"/>
<path d="M186.823 120.454C190.45 120.743 193.791 121.683 196.368 124.525C198.588 126.982 201.404 127.705 204.578 127.151C206.129 126.886 207.656 126.645 209.088 127.512C210.591 128.451 211.546 129.8 210.806 131.607C208.3 137.725 208.086 144.012 209.088 150.443C209.231 151.286 209.494 152.226 208.682 152.828C207.728 153.502 206.702 153.117 205.866 152.539C200.712 148.974 194.984 147.143 188.78 146.565C185.868 146.3 184.818 144.084 185.892 141.001C186.274 139.893 186.823 138.857 187.205 137.773C189.162 132.353 187.777 128.427 182.957 125.344C181.978 124.718 180.308 124.501 180.642 122.863C180.928 121.418 182.503 121.37 183.625 120.96C184.627 120.599 185.701 120.334 186.823 120.43" fill="#6D863A" fill-opacity="0.1"/>
<path d="M118.264 467.148C118.311 463.558 119.433 460.427 122.273 458.067C124.779 455.971 125.399 453.153 125.232 450.069C125.208 449.515 125.089 448.985 125.017 448.431C124.516 444.24 126.139 442.626 130.196 443.566C134.109 444.481 137.999 445.445 142.08 445.3C144.108 445.228 146.065 444.818 148.046 444.457C149 444.288 149.907 444.288 150.504 445.252C151.101 446.215 150.766 447.083 150.17 447.853C146.113 452.936 144.371 458.789 144.371 465.245C144.371 467.22 143.249 468.183 141.292 468.328C139.336 468.472 137.689 467.509 135.971 466.883C130.291 464.787 127.785 465.485 124.086 470.279C123.991 470.399 123.919 470.544 123.824 470.664C122.869 471.7 122.297 473.772 120.626 473.266C118.741 472.712 118.526 470.592 118.311 468.785C118.24 468.256 118.311 467.702 118.311 467.148" fill="#6D863A" fill-opacity="0.1"/>
<path d="M318.938 535.147C319.106 534.93 319.273 534.737 319.44 534.521C319.702 534.882 319.607 535.171 319.249 535.388C319.153 535.291 319.058 535.219 318.938 535.123" fill="#6D863A" fill-opacity="0.1"/>
<path d="M334.567 104.485C334.352 104.846 334.09 104.991 333.708 104.726C333.875 104.533 334.066 104.316 334.233 104.124C334.352 104.244 334.448 104.364 334.567 104.485Z" fill="#6D863A" fill-opacity="0.1"/>
<path d="M329.337 536.302C328.979 536.23 328.932 535.965 328.979 535.676C328.979 535.628 329.051 535.556 329.099 535.508C329.242 535.724 329.385 535.917 329.552 536.134C329.48 536.182 329.409 536.254 329.337 536.302Z" fill="#6D863A" fill-opacity="0.1"/>
<path d="M238.703 136.521C238.989 136.666 239.276 136.786 239.276 137.171C239.228 137.22 239.156 137.292 239.109 137.34C238.703 137.388 238.345 137.316 238.106 136.931C238.297 136.786 238.488 136.641 238.679 136.521" fill="#6D863A" fill-opacity="0.1"/>
<path d="M313.562 552.715C313.514 552.37 313.733 552.346 314.002 552.37C314.051 552.37 314.124 552.543 314.124 552.543C313.953 552.666 313.807 552.937 313.562 552.666H313.587" fill="#6D863A" fill-opacity="0.1"/>
<path d="M547.266 315.901C547.075 316.069 546.979 316.551 546.669 316.286C546.43 316.093 546.55 315.708 546.908 315.563C547.027 315.684 547.146 315.78 547.266 315.901Z" fill="#6D863A" fill-opacity="0.1"/>
<path d="M533.188 336.557C533.164 336.36 533.042 336.04 533.091 336.015C533.335 335.867 533.506 336.015 533.579 336.286C533.457 336.385 533.31 336.483 533.188 336.582" fill="#6D863A" fill-opacity="0.1"/>
<path d="M115.259 336.596H115.109L115.134 336.495L115.259 336.596Z" fill="#6D863A" fill-opacity="0.1"/>
<path d="M335.915 553.628C335.915 553.628 335.671 553.529 335.549 553.455C335.646 553.406 335.744 553.381 335.817 553.332C335.817 553.431 335.842 553.554 335.866 553.653L335.915 553.628Z" fill="#6D863A" fill-opacity="0.1"/>
<path d="M330.904 119.183C330.758 119.159 330.636 119.134 330.489 119.109L330.709 118.912C330.709 118.912 330.855 119.134 330.904 119.233V119.183Z" fill="#6D863A" fill-opacity="0.1"/>
<path d="M408.387 519.428C408.191 519.379 407.898 519.305 408.094 519.058C408.24 518.861 408.46 519.034 408.582 519.231C408.509 519.305 408.46 519.354 408.387 519.428Z" fill="#6D863A" fill-opacity="0.1"/>
<path d="M398.639 539.994C398.639 539.994 398.883 539.846 398.98 539.797C398.98 539.871 398.981 539.969 398.956 540.019C398.81 540.191 398.688 540.166 398.614 539.945L398.639 539.994Z" fill="#6D863A" fill-opacity="0.1"/>
<path d="M239.285 137.171C239.358 137.294 239.456 137.442 239.529 137.565C239.285 137.689 239.188 137.565 239.114 137.344C239.163 137.294 239.236 137.22 239.285 137.171Z" fill="#6D863A" fill-opacity="0.1"/>
<path d="M505.548 328.932C505.238 429.449 424.721 512.118 324.11 512.166C222.235 512.215 141.312 428.101 142.84 325.487C144.319 226.246 223.524 144.878 324.492 145.095C424.411 145.312 505.214 226.319 505.525 328.932M150.357 328.33C149.331 419.838 221.209 503.398 322.01 504.266C425.246 505.133 497.721 422.295 498.055 328.715C498.389 231.714 420.163 152.875 324.254 152.755C224.956 152.635 149.259 235.376 150.381 328.354" fill="#6D863A" fill-opacity="0.1"/>
<path d="M324.02 501.256C230.163 501.256 151.866 423.694 153.536 325.777C155.159 231.547 230.116 155.598 325.619 155.912C418.975 156.201 495.889 233.209 494.815 332.859C493.813 425.38 416.851 501.183 323.996 501.256M490.185 328.186C489.97 237.328 416.875 162.006 327.29 160.681C231.571 159.236 159.096 236.099 157.784 326.572C156.424 420.562 233.075 495.764 322.087 496.438C413.844 497.137 489.66 423.14 490.185 328.162" fill="#6D863A" fill-opacity="0.1"/>
</svg>
