<svg width="16" height="16" viewBox="0 0 16 16" fill="none" xmlns="http://www.w3.org/2000/svg">
<g clip-path="url(#clip0_1_6899)">
<path d="M11.9759 16.0001H4.05744C3.88976 15.9721 3.7174 15.9582 3.54972 15.9209C2.73305 15.7715 1.97756 15.3876 1.37541 14.8161C0.773255 14.2445 0.350498 13.51 0.158756 12.7023C0.093545 12.4647 0.0702417 12.2365 0.0283203 11.971V4.05251L0.0562668 3.88483C0.0936452 3.45329 0.203897 3.03118 0.382328 2.63648C0.710954 1.8488 1.26948 1.17854 1.98494 0.713204C2.7004 0.247864 3.53953 0.00908438 4.3928 0.0280462C6.81493 9.85544e-05 9.23707 0.0280462 11.6545 0.0280462C12.4039 0.0137196 13.143 0.203698 13.7925 0.57765C14.4842 0.951496 15.0586 1.51 15.4517 2.19093C15.8448 2.87185 16.0412 3.6485 16.019 4.43443C16.019 6.82395 16.019 9.21348 16.019 11.603C16.0241 11.9048 15.996 12.2063 15.9352 12.502C15.7884 13.3178 15.4065 14.0729 14.8363 14.6745C14.2662 15.2761 13.5326 15.698 12.7259 15.8883C12.4417 15.9349 12.2088 15.9675 11.9759 16.0001ZM8.01202 0.945645C6.81494 0.945645 5.61787 0.945645 4.42078 0.945645C4.14034 0.942318 3.86047 0.971995 3.58699 1.03412C2.82509 1.20316 2.1454 1.63123 1.6638 2.24534C1.1822 2.85945 0.928499 3.62162 0.945948 4.40185C0.945948 6.79914 0.945948 9.19795 0.945948 11.5983C0.942351 11.858 0.967331 12.1173 1.02046 12.3716C1.18257 13.1408 1.60728 13.8297 2.22173 14.3201C2.83619 14.8105 3.60212 15.0718 4.38817 15.0592H11.6173C11.8723 15.0626 12.127 15.0376 12.3765 14.9847C13.1402 14.8243 13.8247 14.4045 14.3139 13.7965C14.803 13.1885 15.0664 12.4299 15.0595 11.6496C15.0595 9.21813 15.0595 6.78667 15.0595 4.35523C15.0679 3.8723 14.9642 3.39399 14.7567 2.95785C14.4928 2.34936 14.0527 1.83388 13.4932 1.47774C12.9336 1.12159 12.2803 0.941138 11.6173 0.959633C10.4109 0.931685 9.20445 0.945645 8.0027 0.945645H8.01202Z" fill="#6D863A"/>
<path d="M3.62504 7.97862C3.62966 7.11358 3.89068 6.26934 4.3751 5.55265C4.85953 4.83597 5.54561 4.279 6.34656 3.95223C7.14752 3.62545 8.02739 3.54355 8.87491 3.71683C9.72243 3.89011 10.4995 4.31085 11.108 4.92578C11.7164 5.54071 12.1288 6.32224 12.293 7.17156C12.4573 8.02087 12.366 8.89977 12.0307 9.6972C11.6954 10.4946 11.1312 11.1748 10.4094 11.6515C9.68757 12.1283 8.84057 12.3803 7.97553 12.3757C6.81591 12.3684 5.70661 11.9012 4.89099 11.0768C4.07537 10.2525 3.62008 9.13826 3.62504 7.97862ZM11.4317 8.01126C11.4336 7.33138 11.2338 6.66619 10.8576 6.09987C10.4814 5.53355 9.94569 5.09151 9.31827 4.82963C8.69085 4.56775 7.99986 4.4978 7.33268 4.62863C6.6655 4.75946 6.05211 5.08521 5.57006 5.56465C5.08801 6.0441 4.75896 6.65572 4.62452 7.32218C4.49007 7.98864 4.55626 8.67996 4.81474 9.30879C5.07322 9.93763 5.51238 10.4757 6.07665 10.855C6.64093 11.2342 7.30498 11.4376 7.98486 11.4395C8.89618 11.4407 9.77082 11.0805 10.417 10.4379C11.0631 9.7952 11.428 8.92258 11.4317 8.01126Z" fill="#6D863A"/>
<path d="M13.4223 3.20039C13.4223 3.41256 13.338 3.61599 13.188 3.76602C13.0379 3.91604 12.8344 4.00039 12.6223 4.00039C12.4101 4.00039 12.2066 3.91604 12.0566 3.76602C11.9065 3.61599 11.8223 3.41256 11.8223 3.20039C11.8223 2.98822 11.9065 2.78473 12.0566 2.6347C12.2066 2.48467 12.4101 2.40039 12.6223 2.40039C12.8344 2.40039 13.0379 2.48467 13.188 2.6347C13.338 2.78473 13.4223 2.98822 13.4223 3.20039Z" fill="#6D863A"/>
</g>
<defs>
<clipPath id="clip0_1_6899">
<rect width="16" height="16" fill="white"/>
</clipPath>
</defs>
</svg>
