<svg width="25" height="29" viewBox="0 0 25 29" fill="none" xmlns="http://www.w3.org/2000/svg">
<path d="M19.6429 29H5.35714C1.90286 29 0 27.0191 0 23.4231V5.57692C0 1.98092 1.90286 0 5.35714 0H19.6429C23.0971 0 25 1.98092 25 5.57692V23.4231C25 27.0191 23.0971 29 19.6429 29ZM5.35714 2.23077C3.10429 2.23077 2.14286 3.23164 2.14286 5.57692V23.4231C2.14286 25.7684 3.10429 26.7692 5.35714 26.7692H19.6429C21.8957 26.7692 22.8571 25.7684 22.8571 23.4231V5.57692C22.8571 3.23164 21.8957 2.23077 19.6429 2.23077H5.35714ZM19.2857 14.5C19.2857 13.8843 18.8057 13.3846 18.2143 13.3846H6.78571C6.19429 13.3846 5.71429 13.8843 5.71429 14.5C5.71429 15.1157 6.19429 15.6154 6.78571 15.6154H18.2143C18.8057 15.6154 19.2857 15.1157 19.2857 14.5ZM15 20.4487C15 19.833 14.52 19.3333 13.9286 19.3333H6.78571C6.19429 19.3333 5.71429 19.833 5.71429 20.4487C5.71429 21.0644 6.19429 21.5641 6.78571 21.5641H13.9286C14.52 21.5641 15 21.0644 15 20.4487ZM19.2857 8.55128C19.2857 7.93559 18.8057 7.4359 18.2143 7.4359H6.78571C6.19429 7.4359 5.71429 7.93559 5.71429 8.55128C5.71429 9.16698 6.19429 9.66667 6.78571 9.66667H18.2143C18.8057 9.66667 19.2857 9.16698 19.2857 8.55128Z" fill="#6D863A"/>
</svg>
