<svg width="19" height="18" viewBox="0 0 19 18" fill="none" xmlns="http://www.w3.org/2000/svg">
<path d="M13.4695 17C13.0694 17 12.6667 16.9491 12.2692 16.8466C6.89523 15.4582 2.64047 11.4556 1.16468 6.40034C0.829081 5.25077 1.01296 4.05278 1.68417 3.02875C2.35799 1.9998 3.46597 1.27363 4.72383 1.03731C5.56066 0.87977 6.38789 1.23096 6.81241 1.90462L8.17486 4.07082C8.83648 5.12275 8.50773 6.47745 7.42596 7.15521L6.44019 7.77227C7.36158 9.55283 8.91132 11.0158 10.7951 11.8823L11.4595 10.9494C12.1838 9.93272 13.623 9.62831 14.7396 10.2544L17.0436 11.5475C17.7566 11.948 18.1253 12.7316 17.9631 13.4963C17.7121 14.6803 16.9406 15.7232 15.8484 16.3575C15.1144 16.7825 14.2976 17 13.4695 17ZM5.12392 2.22873C5.08121 2.22873 5.03765 2.23284 4.99581 2.24105C4.07704 2.41418 3.28118 2.9352 2.79826 3.6745C2.3197 4.40478 2.18805 5.25732 2.4269 6.07375C3.78064 10.7122 7.68496 14.3858 12.6153 15.6592C13.4835 15.8833 14.3865 15.7585 15.1614 15.3089C15.9459 14.8535 16.5005 14.1035 16.6809 13.2534C16.735 12.9982 16.612 12.7365 16.3732 12.6027L14.0701 11.3096C13.5514 11.0191 12.8819 11.1611 12.5455 11.6329L11.5735 12.9991C11.3992 13.2436 11.0628 13.3371 10.7787 13.2239C8.19583 12.2072 6.09416 10.2248 5.01326 7.78456C4.89296 7.51215 4.99395 7.1987 5.25459 7.03542L6.70259 6.12872C7.20469 5.81445 7.35719 5.18511 7.04949 4.69689L5.68703 2.53149C5.56761 2.34113 5.35143 2.22873 5.12392 2.22873Z" fill="#6D863A" stroke="#6D863A" stroke-width="0.5"/>
</svg>
