<svg width="30" height="30" viewBox="0 0 30 30" fill="none" xmlns="http://www.w3.org/2000/svg">
<path d="M9.4186 21.6279C8.84093 21.6279 8.37209 21.1591 8.37209 20.5814V13.6047C8.37209 13.027 8.84093 12.5581 9.4186 12.5581C9.99628 12.5581 10.4651 13.027 10.4651 13.6047V20.5814C10.4651 21.1591 9.99628 21.6279 9.4186 21.6279ZM16.0465 20.5814V9.4186C16.0465 8.84093 15.5777 8.37209 15 8.37209C14.4223 8.37209 13.9535 8.84093 13.9535 9.4186V20.5814C13.9535 21.1591 14.4223 21.6279 15 21.6279C15.5777 21.6279 16.0465 21.1591 16.0465 20.5814ZM21.6279 20.5814V16.3953C21.6279 15.8177 21.1591 15.3488 20.5814 15.3488C20.0037 15.3488 19.5349 15.8177 19.5349 16.3953V20.5814C19.5349 21.1591 20.0037 21.6279 20.5814 21.6279C21.1591 21.6279 21.6279 21.1591 21.6279 20.5814ZM30 15C30 6.72837 23.2716 0 15 0C6.72837 0 0 6.72837 0 15C0 23.2716 6.72837 30 15 30C23.2716 30 30 23.2716 30 15ZM27.907 15C27.907 22.1177 22.1177 27.907 15 27.907C7.88233 27.907 2.09302 22.1177 2.09302 15C2.09302 7.88233 7.88233 2.09302 15 2.09302C22.1177 2.09302 27.907 7.88233 27.907 15Z" fill="#6D863A"/>
</svg>
