<svg width="78" height="57" viewBox="0 0 78 57" fill="none" xmlns="http://www.w3.org/2000/svg">
<path d="M59.5907 56.5076H45.5331L45.199 53.9377L47.769 53.0125C47.8352 52.604 47.8352 52.1875 47.769 51.779C46.6125 48.5408 45.4046 45.2769 44.1967 42.013H32.2978C30.9614 45.5082 29.2911 49.0291 28.2117 52.9098L30.7816 53.8349V56.4049H17.9319V53.8349C18.1915 53.7029 18.4682 53.6078 18.7541 53.5523C19.7313 53.5692 20.6897 53.2813 21.4957 52.7286C22.3017 52.1759 22.9152 51.3859 23.2515 50.4683C24.7421 47.0245 26.1815 43.5293 27.6721 39.9571C27.1067 39.4688 26.6439 39.0062 26.1299 38.6207C23.2524 36.5358 20.9735 33.7316 19.5212 30.4886C18.0688 27.2456 17.4941 23.6779 17.8547 20.1429C17.8607 17.0828 18.5789 14.0659 19.9528 11.3316C21.3267 8.59719 23.3184 6.22034 25.77 4.38906C34.6878 -2.39561 54.8107 -1.41912 58.4344 16.1851C60.2333 24.8715 58.4342 32.7355 50.9043 38.4922L49.7994 39.4945C51.4698 43.4009 53.0889 47.41 54.9393 51.342C55.813 53.2437 57.7662 53.5008 59.7193 53.655L59.5907 56.5076ZM47.6661 34.3804C49.335 32.8441 50.5675 30.8933 51.2384 28.7264C52.7935 24.108 52.7935 19.1074 51.2384 14.489C50.5408 11.5376 48.8218 8.92803 46.3855 7.12199C43.9492 5.31595 40.9529 4.42977 37.9262 4.62027C34.9087 4.62207 31.9837 5.66299 29.6435 7.56793C27.3033 9.47287 25.6906 12.1256 25.0764 15.08C23.9582 19.2031 23.9582 23.5497 25.0764 27.6728C25.7975 30.5337 27.3862 33.1012 29.625 35.0228L37.7718 15.4398C38.0103 15.3443 38.2669 15.3016 38.5235 15.315C38.7801 15.3283 39.0306 15.3972 39.2579 15.517C39.4852 15.6368 39.6838 15.8045 39.8398 16.0086C39.9959 16.2127 40.106 16.4483 40.162 16.6991C40.4808 17.5762 40.8496 18.4343 41.2669 19.269C43.4 24.2547 45.4302 29.112 47.6661 34.3804ZM42.5262 37.5928C41.1127 33.8921 39.9562 30.4997 38.3371 26.4906C36.7438 30.5511 35.4334 33.9177 34.097 37.3872C36.8164 38.2843 39.7404 38.3559 42.5005 37.5928H42.5262Z" fill="#6D863A"/>
<path d="M0.404651 6.57239H11.7125V9.32226L6.5726 9.65636V52.8573L11.4298 53.0885L11.6099 56.0697H0.353516L0.404651 6.57239Z" fill="#6D863A"/>
<path d="M77.1627 56.0445H66.4719C66.3534 55.5799 66.2676 55.1077 66.215 54.6311C66.1735 54.0836 66.1735 53.5338 66.215 52.9863H70.8665C71.3805 38.389 71.3548 24.0487 70.8665 9.50274H65.7266V6.47021H76.8801L77.1627 56.0445Z" fill="#6D863A"/>
</svg>
