<svg width="18" height="10" viewBox="0 0 18 10" fill="none" xmlns="http://www.w3.org/2000/svg">
<path d="M17.4419 5.03787C17.4039 5.12987 17.349 5.21276 17.28 5.28176L13.28 9.28176C13.134 9.42776 12.942 9.50173 12.75 9.50173C12.558 9.50173 12.366 9.42876 12.22 9.28176C11.927 8.98876 11.927 8.51373 12.22 8.22073L14.9399 5.50076H0.75C0.336 5.50076 0 5.16476 0 4.75076C0 4.33676 0.336 4.00076 0.75 4.00076H14.939L12.219 1.28079C11.926 0.987785 11.926 0.51275 12.219 0.21975C12.512 -0.07325 12.987 -0.07325 13.28 0.21975L17.28 4.21975C17.349 4.28875 17.4039 4.37165 17.4419 4.46365C17.5179 4.64765 17.5179 4.85387 17.4419 5.03787Z" fill="#6D863A"/>
</svg>
