<svg width="13" height="14" viewBox="0 0 13 14" fill="none" xmlns="http://www.w3.org/2000/svg">
<path d="M10.5 1.07692H9.66667V0.538462C9.66667 0.241231 9.44267 0 9.16667 0C8.89067 0 8.66667 0.241231 8.66667 0.538462V1.07692H4.33333V0.538462C4.33333 0.241231 4.10933 0 3.83333 0C3.55733 0 3.33333 0.241231 3.33333 0.538462V1.07692H2.5C0.888 1.07692 0 2.03323 0 3.76923V11.3077C0 13.0437 0.888 14 2.5 14H10.5C12.112 14 13 13.0437 13 11.3077V3.76923C13 2.03323 12.112 1.07692 10.5 1.07692ZM2.5 2.15385H3.33333V2.69231C3.33333 2.98954 3.55733 3.23077 3.83333 3.23077C4.10933 3.23077 4.33333 2.98954 4.33333 2.69231V2.15385H8.66667V2.69231C8.66667 2.98954 8.89067 3.23077 9.16667 3.23077C9.44267 3.23077 9.66667 2.98954 9.66667 2.69231V2.15385H10.5C11.5513 2.15385 12 2.63703 12 3.76923V4.30769H1V3.76923C1 2.63703 1.44867 2.15385 2.5 2.15385ZM10.5 12.9231H2.5C1.44867 12.9231 1 12.4399 1 11.3077V5.38462H12V11.3077C12 12.4399 11.5513 12.9231 10.5 12.9231ZM4.51335 7.71795C4.51335 8.11426 4.21535 8.4359 3.84668 8.4359C3.47868 8.4359 3.1766 8.11426 3.1766 7.71795C3.1766 7.32164 3.47201 7 3.84001 7H3.84668C4.21468 7 4.51335 7.32164 4.51335 7.71795ZM7.18001 7.71795C7.18001 8.11426 6.88201 8.4359 6.51335 8.4359C6.14535 8.4359 5.84326 8.11426 5.84326 7.71795C5.84326 7.32164 6.13867 7 6.50667 7H6.51335C6.88135 7 7.18001 7.32164 7.18001 7.71795ZM9.84668 7.71795C9.84668 8.11426 9.54868 8.4359 9.18001 8.4359C8.81201 8.4359 8.50993 8.11426 8.50993 7.71795C8.50993 7.32164 8.80534 7 9.17334 7H9.18001C9.54801 7 9.84668 7.32164 9.84668 7.71795ZM4.51335 10.5897C4.51335 10.9861 4.21535 11.3077 3.84668 11.3077C3.47868 11.3077 3.1766 10.9861 3.1766 10.5897C3.1766 10.1934 3.47201 9.87179 3.84001 9.87179H3.84668C4.21468 9.87179 4.51335 10.1934 4.51335 10.5897ZM7.18001 10.5897C7.18001 10.9861 6.88201 11.3077 6.51335 11.3077C6.14535 11.3077 5.84326 10.9861 5.84326 10.5897C5.84326 10.1934 6.13867 9.87179 6.50667 9.87179H6.51335C6.88135 9.87179 7.18001 10.1934 7.18001 10.5897ZM9.84668 10.5897C9.84668 10.9861 9.54868 11.3077 9.18001 11.3077C8.81201 11.3077 8.50993 10.9861 8.50993 10.5897C8.50993 10.1934 8.80534 9.87179 9.17334 9.87179H9.18001C9.54801 9.87179 9.84668 10.1934 9.84668 10.5897Z" fill="#6D863A"/>
</svg>
