<svg width="17" height="19" viewBox="0 0 17 19" fill="none" xmlns="http://www.w3.org/2000/svg">
<path d="M8.5 1C4.36429 1 1 4.4218 1 8.62821C1 13.0901 5.02599 15.7943 7.68999 17.5841L8.14343 17.8902C8.25143 17.9634 8.37571 18 8.5 18C8.62429 18 8.74857 17.9634 8.85657 17.8902L9.31001 17.5841C11.974 15.7943 16 13.0901 16 8.62821C16 4.4218 12.6357 1 8.5 1ZM8.602 16.4927L8.5 16.5616L8.398 16.4927C5.818 14.7595 2.28571 12.3865 2.28571 8.62821C2.28571 5.14277 5.07314 2.30769 8.5 2.30769C11.9269 2.30769 14.7143 5.14277 14.7143 8.62821C14.7143 12.3865 11.1811 14.7604 8.602 16.4927ZM8.5 5.79487C6.964 5.79487 5.71429 7.06595 5.71429 8.62821C5.71429 10.1905 6.964 11.4615 8.5 11.4615C10.036 11.4615 11.2857 10.1905 11.2857 8.62821C11.2857 7.06595 10.036 5.79487 8.5 5.79487ZM8.5 10.1538C7.67286 10.1538 7 9.46949 7 8.62821C7 7.78692 7.67286 7.10256 8.5 7.10256C9.32714 7.10256 10 7.78692 10 8.62821C10 9.46949 9.32714 10.1538 8.5 10.1538Z" fill="#6D863A" stroke="#6D863A" stroke-width="0.5"/>
</svg>
