<svg width="18" height="15" viewBox="0 0 18 15" fill="none" xmlns="http://www.w3.org/2000/svg">
<path d="M13.9231 14H4.07692C2.09292 14 1 12.9505 1 11.0455V3.95455C1 2.04945 2.09292 1 4.07692 1H13.9231C15.9071 1 17 2.04945 17 3.95455V11.0455C17 12.9505 15.9071 14 13.9231 14ZM4.07692 2.18182C2.78297 2.18182 2.23077 2.71206 2.23077 3.95455V11.0455C2.23077 12.2879 2.78297 12.8182 4.07692 12.8182H13.9231C15.217 12.8182 15.7692 12.2879 15.7692 11.0455V3.95455C15.7692 2.71206 15.217 2.18182 13.9231 2.18182H4.07692ZM9.84435 8.03497L13.8746 5.22066C14.1495 5.02921 14.2102 4.65891 14.01 4.39497C13.8106 4.13182 13.4268 4.07194 13.1502 4.26497L9.11979 7.07928C9.04759 7.1297 8.95161 7.1297 8.87941 7.07928L4.84896 4.26497C4.57162 4.07194 4.18857 4.13261 3.98918 4.39497C3.78898 4.65891 3.84973 5.02842 4.1246 5.22066L8.15485 8.03575C8.40757 8.21224 8.70381 8.2997 8.9992 8.2997C9.29458 8.2997 9.59245 8.21146 9.84435 8.03497Z" fill="#6D863A" stroke="#6D863A" stroke-width="0.5"/>
</svg>
