<svg width="16" height="16" viewBox="0 0 16 16" fill="none" xmlns="http://www.w3.org/2000/svg">
<g clip-path="url(#clip0_1_6907)">
<path d="M14.4201 14.4291L9.20023 6.83988L8.64648 7.48438L13.7301 14.8694L13.8527 15.0464H11.5015L11.4652 14.9965L7.32562 8.98227L6.77641 9.61775V9.64495L10.7798 15.4594L11.0567 15.8634H15.3824L14.4201 14.4291ZM1.90604 1.10711L1.78351 0.925537H4.13471L4.171 0.97546L8.05639 6.62201L8.60562 5.98654V5.95928L4.86094 0.512472L4.58407 0.113037H0.240234L1.23882 1.56555L6.2045 8.77804L6.75824 8.13803V8.11531L1.90604 1.10711Z" fill="#6D863A"/>
<path d="M7.34411 9.00489L6.79489 9.64035L6.75858 9.68574L6.71773 9.73113L1.32993 15.9995H0L6.12312 8.86872L6.16397 8.82333L6.20028 8.77794L6.75404 8.13794L7.32596 8.97766L7.34411 9.00489Z" fill="#6D863A"/>
<path d="M15.082 0L9.27212 6.75404L9.23581 6.79943L9.19949 6.84028L8.64573 7.48482L8.07382 6.64965L8.05566 6.62241L8.60488 5.98695L8.64573 5.94156L8.68205 5.89617L12.6128 1.31631L13.7521 0H15.082Z" fill="#6D863A"/>
</g>
<defs>
<clipPath id="clip0_1_6907">
<rect width="15.419" height="16" fill="white"/>
</clipPath>
</defs>
</svg>
