<svg width="22" height="16" viewBox="0 0 22 16" fill="none" xmlns="http://www.w3.org/2000/svg">
<g clip-path="url(#clip0_1_6913)">
<path d="M21.1461 4.66619C21.1366 3.80595 20.9791 2.95376 20.6805 2.14696C20.4847 1.64045 20.1503 1.19931 19.7154 0.87402C19.2806 0.548727 18.763 0.352442 18.2218 0.307636C17.2905 0.195878 16.3592 0.158614 15.4278 0.121362L14.7899 0.0934519C14.2125 0.0655124 13.6258 0.0562061 13.0577 0.0422363H12.1962H12.0286H11.9587H9.2998H9.23927H9.06698L7.26488 0.102717L3.73519 0.233115C2.9985 0.226696 2.27623 0.437251 1.65837 0.838493C0.987517 1.33061 0.522937 2.05398 0.354508 2.86875C0.193854 3.57027 0.106464 4.28655 0.0937409 5.00611C0.0937409 5.19703 0.0937375 5.3926 0.0611415 5.58352C0.0611415 5.70459 0.0611426 5.82101 0.0332031 5.93742V6.10505V9.99334C0.0332031 10.1144 0.0332031 10.2448 0.0332031 10.3752C0.0332031 10.6685 0.0658014 10.9572 0.0937409 11.2506L0.135663 11.6511C0.168907 12.1199 0.229552 12.5863 0.317276 13.048C0.657206 14.7011 1.62577 15.5719 3.28351 15.7116C4.53148 15.8187 5.80738 15.8699 7.04138 15.9165L7.73054 15.9444C10.6642 16.0608 13.5652 15.9723 15.7631 15.8839C16.5501 15.8513 17.3464 15.8187 18.1147 15.7256C18.7985 15.671 19.4445 15.39 19.9505 14.927C20.4566 14.4639 20.7937 13.8453 20.9086 13.1691C21.0808 12.3495 21.1728 11.5152 21.1834 10.6778V10.6406C21.2714 8.64973 21.2589 6.65576 21.1461 4.66619ZM20.1263 11.2646C20.1143 11.9925 19.987 12.7139 19.7492 13.4019C19.6292 13.7516 19.4106 14.059 19.1198 14.287C18.8289 14.5151 18.4782 14.6541 18.11 14.6872C17.3184 14.7756 16.5035 14.8129 15.7166 14.8501H15.684C14.1753 14.92 12.606 14.9572 10.9529 14.9572C9.2998 14.9572 7.46047 14.92 5.55593 14.8408C4.77828 14.8129 3.99597 14.743 3.33939 14.6778C2.81956 14.6473 2.32617 14.4384 1.94242 14.0864C1.66248 13.8059 1.47413 13.4471 1.40224 13.0573C1.28137 12.4877 1.19894 11.9105 1.15545 11.3298C1.0202 9.11531 1.0202 6.89464 1.15545 4.68017C1.17389 4.01412 1.28676 3.35409 1.49071 2.71977C1.6153 2.31039 1.86522 1.95038 2.20523 1.69057C2.54525 1.43075 2.95821 1.28418 3.38595 1.27152C4.17756 1.19702 5.02041 1.15047 6.12868 1.11322C7.16244 1.07596 8.1962 1.05271 9.38828 1.02943L11.1252 0.987478L12.6619 1.04336L17.5699 1.23429C18.1494 1.22819 18.7156 1.40768 19.1857 1.7465C19.5483 2.05196 19.8017 2.46714 19.9075 2.92929C20.0938 3.64845 20.1846 4.38899 20.1776 5.13184V5.50439C20.2381 7.4555 20.2148 9.38798 20.117 11.2646H20.1263Z" fill="#6D863A"/>
<path d="M14.2461 7.6975C14.217 7.57003 14.1603 7.45054 14.0798 7.34752C13.9993 7.2445 13.8971 7.16047 13.7804 7.10145L9.21233 4.60087C9.0692 4.52217 8.90985 4.47753 8.74667 4.47047C8.62108 4.46979 8.49748 4.50193 8.3881 4.56364C8.26626 4.6452 8.16811 4.75743 8.10352 4.88906C8.03893 5.02069 8.0102 5.16706 8.02024 5.31334V10.2307C8.0084 10.3804 8.03617 10.5307 8.10073 10.6664C8.1653 10.8021 8.26439 10.9184 8.3881 11.0037C8.52045 11.0722 8.66864 11.1045 8.81752 11.0972C8.96641 11.0898 9.11066 11.0431 9.2356 10.9618L13.7665 8.52639C13.8796 8.47008 13.982 8.39445 14.0691 8.30288C14.1428 8.22214 14.1971 8.12557 14.2277 8.02066C14.2584 7.91574 14.2647 7.80522 14.2461 7.6975ZM9.04004 9.90005V5.67656L12.9329 7.80459L9.04004 9.90005Z" fill="#6D863A"/>
</g>
<defs>
<clipPath id="clip0_1_6913">
<rect width="21.2293" height="16" fill="white"/>
</clipPath>
</defs>
</svg>
